<svg width="254" height="228" viewBox="0 0 254 228" fill="none" xmlns="http://www.w3.org/2000/svg">
<g filter="url(#filter0_d_6170_29138)">
<path d="M213 5.27246H22C13.1634 5.27246 6 12.4359 6 21.2725V186.544C6 195.381 13.1634 202.544 22 202.544H213C221.837 202.544 229 195.381 229 186.544V21.2725C229 12.4359 221.837 5.27246 213 5.27246Z" fill="#FFCF54"/>
<path d="M39.3125 55V34.6364H53.9886V39.0909H44.8409V42.5909H53.233V47.0455H44.8409V50.5455H53.9489V55H39.3125ZM61.543 39.7273L63.7702 44.4602L66.1168 39.7273H71.5657L67.4691 47.3636L71.7646 55H66.3555L63.7702 50.1477L61.2646 55H55.7759L60.1112 47.3636L56.0543 39.7273H61.543ZM73.517 60.7273V39.7273H78.9659V42.392H79.0852C79.2841 41.875 79.5758 41.401 79.9602 40.9702C80.3447 40.5327 80.822 40.1847 81.392 39.9261C81.9621 39.661 82.625 39.5284 83.3807 39.5284C84.3883 39.5284 85.3461 39.7969 86.2543 40.3338C87.169 40.8707 87.9115 41.7159 88.4815 42.8693C89.0582 44.0227 89.3466 45.5208 89.3466 47.3636C89.3466 49.1269 89.0715 50.5885 88.5213 51.7486C87.9777 52.9086 87.2486 53.7737 86.3338 54.3438C85.4257 54.9138 84.428 55.1989 83.3409 55.1989C82.625 55.1989 81.9853 55.0829 81.4219 54.8509C80.8651 54.6122 80.3878 54.2907 79.9901 53.8864C79.599 53.4754 79.2973 53.0114 79.0852 52.4943H79.0057V60.7273H73.517ZM78.8864 47.3636C78.8864 48.1061 78.9825 48.7491 79.1747 49.2926C79.3736 49.8295 79.652 50.2472 80.0099 50.5455C80.3745 50.8371 80.8087 50.983 81.3125 50.983C81.8163 50.983 82.2438 50.8404 82.5952 50.5554C82.9531 50.2637 83.2249 49.8494 83.4105 49.3125C83.6027 48.7689 83.6989 48.1193 83.6989 47.3636C83.6989 46.608 83.6027 45.9616 83.4105 45.4247C83.2249 44.8812 82.9531 44.4669 82.5952 44.1818C82.2438 43.8902 81.8163 43.7443 81.3125 43.7443C80.8087 43.7443 80.3745 43.8902 80.0099 44.1818C79.652 44.4669 79.3736 44.8812 79.1747 45.4247C78.9825 45.9616 78.8864 46.608 78.8864 47.3636ZM98.9641 55.2784C97.3335 55.2784 95.9281 54.9669 94.7482 54.3438C93.5749 53.714 92.6701 52.8125 92.0337 51.6392C91.404 50.4593 91.0891 49.0473 91.0891 47.4034C91.0891 45.8258 91.4073 44.447 92.0437 43.267C92.68 42.0871 93.5782 41.169 94.7383 40.5128C95.8983 39.8565 97.2672 39.5284 98.8448 39.5284C99.9982 39.5284 101.042 39.7074 101.977 40.0653C102.912 40.4233 103.71 40.9437 104.373 41.6264C105.036 42.3026 105.547 43.1245 105.904 44.0923C106.262 45.0601 106.441 46.1506 106.441 47.3636V48.6364H92.7994V45.6136H101.39C101.384 45.1761 101.271 44.7917 101.052 44.4602C100.84 44.1222 100.552 43.8603 100.187 43.6747C99.8292 43.4825 99.4215 43.3864 98.9641 43.3864C98.52 43.3864 98.1123 43.4825 97.7411 43.6747C97.3699 43.8603 97.0716 44.1188 96.8462 44.4503C96.6275 44.7817 96.5115 45.1695 96.4982 45.6136V48.875C96.4982 49.3655 96.601 49.803 96.8065 50.1875C97.012 50.572 97.3069 50.8736 97.6914 51.0923C98.0759 51.3111 98.5399 51.4205 99.0835 51.4205C99.4613 51.4205 99.806 51.3674 100.118 51.2614C100.436 51.1553 100.708 51.0028 100.933 50.804C101.158 50.5985 101.324 50.3532 101.43 50.0682H106.441C106.269 51.1288 105.861 52.0502 105.218 52.8324C104.575 53.608 103.724 54.2112 102.663 54.642C101.609 55.0663 100.376 55.2784 98.9641 55.2784ZM108.681 55V39.7273H114.011V42.6307H114.17C114.448 41.5568 114.889 40.7713 115.492 40.2741C116.102 39.777 116.815 39.5284 117.63 39.5284C117.869 39.5284 118.104 39.5483 118.336 39.5881C118.575 39.6212 118.803 39.6709 119.022 39.7372V44.4205C118.75 44.3277 118.415 44.258 118.018 44.2116C117.62 44.1652 117.279 44.142 116.994 44.142C116.457 44.142 115.973 44.2647 115.542 44.5099C115.118 44.7486 114.783 45.0866 114.538 45.5241C114.292 45.955 114.17 46.4621 114.17 47.0455V55H108.681ZM120.822 55V39.7273H126.31V55H120.822ZM123.566 38.1364C122.824 38.1364 122.187 37.8911 121.657 37.4006C121.127 36.91 120.862 36.3201 120.862 35.6307C120.862 34.9413 121.127 34.3513 121.657 33.8608C122.187 33.3703 122.824 33.125 123.566 33.125C124.315 33.125 124.951 33.3703 125.475 33.8608C126.005 34.3513 126.271 34.9413 126.271 35.6307C126.271 36.3201 126.005 36.91 125.475 37.4006C124.951 37.8911 124.315 38.1364 123.566 38.1364ZM136.425 55.2784C134.794 55.2784 133.389 54.9669 132.209 54.3438C131.036 53.714 130.131 52.8125 129.495 51.6392C128.865 50.4593 128.55 49.0473 128.55 47.4034C128.55 45.8258 128.868 44.447 129.505 43.267C130.141 42.0871 131.039 41.169 132.199 40.5128C133.359 39.8565 134.728 39.5284 136.306 39.5284C137.459 39.5284 138.503 39.7074 139.438 40.0653C140.373 40.4233 141.171 40.9437 141.834 41.6264C142.497 42.3026 143.007 43.1245 143.365 44.0923C143.723 45.0601 143.902 46.1506 143.902 47.3636V48.6364H130.26V45.6136H138.851C138.845 45.1761 138.732 44.7917 138.513 44.4602C138.301 44.1222 138.013 43.8603 137.648 43.6747C137.29 43.4825 136.882 43.3864 136.425 43.3864C135.981 43.3864 135.573 43.4825 135.202 43.6747C134.831 43.8603 134.533 44.1188 134.307 44.4503C134.088 44.7817 133.972 45.1695 133.959 45.6136V48.875C133.959 49.3655 134.062 49.803 134.267 50.1875C134.473 50.572 134.768 50.8736 135.152 51.0923C135.537 51.3111 136.001 51.4205 136.544 51.4205C136.922 51.4205 137.267 51.3674 137.578 51.2614C137.897 51.1553 138.168 51.0028 138.394 50.804C138.619 50.5985 138.785 50.3532 138.891 50.0682H143.902C143.73 51.1288 143.322 52.0502 142.679 52.8324C142.036 53.608 141.185 54.2112 140.124 54.642C139.07 55.0663 137.837 55.2784 136.425 55.2784ZM151.631 46.4091V55H146.142V39.7273H151.352V42.6307H151.511C151.843 41.6629 152.426 40.9039 153.261 40.3537C154.103 39.8035 155.084 39.5284 156.205 39.5284C157.285 39.5284 158.223 39.777 159.018 40.2741C159.821 40.7647 160.44 41.4408 160.878 42.3026C161.322 43.1643 161.541 44.1487 161.534 45.2557V55H156.045V46.4091C156.052 45.6534 155.86 45.0601 155.469 44.6293C155.084 44.1984 154.547 43.983 153.858 43.983C153.407 43.983 153.013 44.0824 152.675 44.2812C152.343 44.4735 152.088 44.7519 151.909 45.1165C151.73 45.4744 151.637 45.9053 151.631 46.4091ZM171.602 55.2784C169.944 55.2784 168.526 54.9503 167.346 54.294C166.166 53.6312 165.261 52.7098 164.631 51.5298C164.002 50.3433 163.687 48.9678 163.687 47.4034C163.687 45.839 164.002 44.4669 164.631 43.2869C165.261 42.1004 166.166 41.179 167.346 40.5227C168.526 39.8598 169.944 39.5284 171.602 39.5284C173.1 39.5284 174.396 39.8002 175.489 40.3438C176.59 40.8807 177.442 41.643 178.045 42.6307C178.648 43.6117 178.953 44.7652 178.96 46.0909H173.869C173.796 45.2888 173.564 44.679 173.173 44.2614C172.788 43.8371 172.291 43.625 171.681 43.625C171.204 43.625 170.786 43.7642 170.428 44.0426C170.07 44.3144 169.792 44.7287 169.593 45.2855C169.394 45.8357 169.295 46.5284 169.295 47.3636C169.295 48.1989 169.394 48.8949 169.593 49.4517C169.792 50.0019 170.07 50.4162 170.428 50.6946C170.786 50.9664 171.204 51.1023 171.681 51.1023C172.085 51.1023 172.443 51.0095 172.755 50.8239C173.067 50.6316 173.318 50.3532 173.511 49.9886C173.71 49.6174 173.829 49.1667 173.869 48.6364H178.96C178.94 49.982 178.631 51.1553 178.035 52.1562C177.438 53.1506 176.593 53.9195 175.499 54.4631C174.412 55.0066 173.113 55.2784 171.602 55.2784ZM188.542 55.2784C186.912 55.2784 185.506 54.9669 184.326 54.3438C183.153 53.714 182.248 52.8125 181.612 51.6392C180.982 50.4593 180.667 49.0473 180.667 47.4034C180.667 45.8258 180.985 44.447 181.622 43.267C182.258 42.0871 183.156 41.169 184.316 40.5128C185.476 39.8565 186.845 39.5284 188.423 39.5284C189.576 39.5284 190.62 39.7074 191.555 40.0653C192.49 40.4233 193.288 40.9437 193.951 41.6264C194.614 42.3026 195.125 43.1245 195.483 44.0923C195.841 45.0601 196.02 46.1506 196.02 47.3636V48.6364H182.377V45.6136H190.968C190.962 45.1761 190.849 44.7917 190.63 44.4602C190.418 44.1222 190.13 43.8603 189.765 43.6747C189.407 43.4825 189 43.3864 188.542 43.3864C188.098 43.3864 187.69 43.4825 187.319 43.6747C186.948 43.8603 186.65 44.1188 186.424 44.4503C186.206 44.7817 186.09 45.1695 186.076 45.6136V48.875C186.076 49.3655 186.179 49.803 186.385 50.1875C186.59 50.572 186.885 50.8736 187.27 51.0923C187.654 51.3111 188.118 51.4205 188.662 51.4205C189.039 51.4205 189.384 51.3674 189.696 51.2614C190.014 51.1553 190.286 51.0028 190.511 50.804C190.736 50.5985 190.902 50.3532 191.008 50.0682H196.02C195.847 51.1288 195.44 52.0502 194.797 52.8324C194.154 53.608 193.302 54.2112 192.241 54.642C191.187 55.0663 189.954 55.2784 188.542 55.2784Z" fill="#615E4A"/>
<path d="M27.2325 82.8182H28.704L32.1643 91.2699H32.2836L35.7438 82.8182H37.2154V93H36.062V85.2642H35.9626L32.7807 93H31.6671L28.4853 85.2642H28.3859V93H27.2325V82.8182ZM41.7756 93.179C41.2917 93.179 40.8525 93.0878 40.4581 92.9055C40.0637 92.7199 39.7505 92.4531 39.5185 92.1051C39.2865 91.7538 39.1705 91.3295 39.1705 90.8324C39.1705 90.3949 39.2567 90.0402 39.429 89.7685C39.6014 89.4934 39.8317 89.2779 40.1201 89.1222C40.4084 88.9664 40.7266 88.8504 41.0746 88.7741C41.4259 88.6946 41.7789 88.6316 42.1336 88.5852C42.5976 88.5256 42.9738 88.4808 43.2621 88.451C43.5538 88.4179 43.7659 88.3632 43.8985 88.2869C44.0344 88.2107 44.1023 88.0781 44.1023 87.8892V87.8494C44.1023 87.3589 43.9681 86.9777 43.6996 86.706C43.4345 86.4342 43.0318 86.2983 42.4915 86.2983C41.9314 86.2983 41.4922 86.4209 41.174 86.6662C40.8559 86.9115 40.6321 87.1733 40.5029 87.4517L39.3892 87.054C39.5881 86.59 39.8533 86.2287 40.1847 85.9702C40.5194 85.7083 40.884 85.526 41.2784 85.4233C41.6762 85.3172 42.0673 85.2642 42.4517 85.2642C42.697 85.2642 42.9787 85.294 43.2969 85.3537C43.6184 85.41 43.9283 85.5277 44.2266 85.7067C44.5282 85.8857 44.7784 86.1558 44.9773 86.517C45.1762 86.8783 45.2756 87.3622 45.2756 87.9688V93H44.1023V91.9659H44.0426C43.9631 92.1316 43.8305 92.3089 43.6449 92.4979C43.4593 92.6868 43.2124 92.8475 42.9042 92.9801C42.5959 93.1127 42.2197 93.179 41.7756 93.179ZM41.9546 92.125C42.4186 92.125 42.8097 92.0339 43.1279 91.8516C43.4494 91.6693 43.6913 91.4339 43.8537 91.1456C44.0194 90.8572 44.1023 90.554 44.1023 90.2358V89.1619C44.0526 89.2216 43.9432 89.2763 43.7742 89.326C43.6085 89.3724 43.4162 89.4138 43.1975 89.4503C42.982 89.4834 42.7716 89.5133 42.5661 89.5398C42.3639 89.563 42.1998 89.5829 42.0739 89.5994C41.769 89.6392 41.4839 89.7038 41.2188 89.7933C40.9569 89.8795 40.7448 90.0104 40.5824 90.1861C40.4233 90.3584 40.3438 90.5937 40.3438 90.892C40.3438 91.2997 40.4946 91.608 40.7962 91.8168C41.1011 92.0223 41.4872 92.125 41.9546 92.125ZM47.4171 93V85.3636H48.5506V86.517H48.6302C48.7694 86.1392 49.0213 85.8326 49.3859 85.5973C49.7504 85.362 50.1614 85.2443 50.6188 85.2443C50.705 85.2443 50.8127 85.246 50.942 85.2493C51.0712 85.2526 51.169 85.2576 51.2353 85.2642V86.4574C51.1955 86.4474 51.1044 86.4325 50.9619 86.4126C50.8227 86.3894 50.6752 86.3778 50.5194 86.3778C50.1482 86.3778 49.8167 86.4557 49.5251 86.6115C49.2367 86.764 49.008 86.9761 48.839 87.2479C48.6733 87.5163 48.5904 87.8229 48.5904 88.1676V93H47.4171ZM53.7198 90.2159L53.7 88.7642H53.9386L57.2795 85.3636H58.7312L55.1716 88.9631H55.0721L53.7198 90.2159ZM52.6261 93V82.8182H53.7994V93H52.6261ZM57.4784 93L54.4954 89.2216L55.3306 88.4062L58.9698 93H57.4784ZM63.1286 93.1591C62.3928 93.1591 61.7581 92.9967 61.2245 92.6719C60.6942 92.3438 60.2848 91.8864 59.9965 91.2997C59.7114 90.7098 59.5689 90.0237 59.5689 89.2415C59.5689 88.4593 59.7114 87.7699 59.9965 87.1733C60.2848 86.5734 60.6859 86.1061 61.1996 85.7713C61.7167 85.4332 62.3199 85.2642 63.0093 85.2642C63.407 85.2642 63.7997 85.3305 64.1875 85.4631C64.5753 85.5956 64.9283 85.8111 65.2465 86.1094C65.5647 86.4044 65.8182 86.7955 66.0071 87.2827C66.1961 87.7699 66.2905 88.3698 66.2905 89.0824V89.5795H60.4042V88.5653H65.0973C65.0973 88.1345 65.0112 87.75 64.8388 87.4119C64.6698 87.0739 64.4278 86.8071 64.113 86.6115C63.8014 86.416 63.4335 86.3182 63.0093 86.3182C62.5419 86.3182 62.1376 86.4342 61.7962 86.6662C61.4581 86.8949 61.1979 87.1932 61.0157 87.5611C60.8334 87.929 60.7422 88.3234 60.7422 88.7443V89.4205C60.7422 89.9972 60.8417 90.486 61.0405 90.8871C61.2427 91.2848 61.5228 91.5881 61.8807 91.7969C62.2387 92.0024 62.6546 92.1051 63.1286 92.1051C63.4368 92.1051 63.7152 92.062 63.9638 91.9759C64.2157 91.8864 64.4328 91.7538 64.6151 91.5781C64.7974 91.3991 64.9382 91.1771 65.0377 90.9119L66.1712 91.2301C66.0519 91.6146 65.8514 91.9527 65.5696 92.2443C65.2879 92.5327 64.9399 92.758 64.5256 92.9205C64.1113 93.0795 63.6456 93.1591 63.1286 93.1591ZM71.3963 85.3636V86.358H67.439V85.3636H71.3963ZM68.5924 83.5341H69.7657V90.8125C69.7657 91.1439 69.8137 91.3925 69.9098 91.5582C70.0093 91.7206 70.1352 91.83 70.2877 91.8864C70.4435 91.9394 70.6075 91.9659 70.7799 91.9659C70.9091 91.9659 71.0152 91.9593 71.098 91.946C71.1809 91.9295 71.2472 91.9162 71.2969 91.9062L71.5355 92.9602C71.456 92.9901 71.345 93.0199 71.2024 93.0497C71.0599 93.0829 70.8793 93.0994 70.6605 93.0994C70.3291 93.0994 70.0043 93.0282 69.6861 92.8857C69.3712 92.7431 69.1094 92.526 68.9006 92.2344C68.6951 91.9427 68.5924 91.5748 68.5924 91.1307V83.5341ZM73.1613 93V85.3636H74.3345V93H73.1613ZM73.7578 84.0909C73.5292 84.0909 73.3319 84.013 73.1662 83.8572C73.0038 83.7015 72.9226 83.5142 72.9226 83.2955C72.9226 83.0767 73.0038 82.8894 73.1662 82.7337C73.3319 82.5779 73.5292 82.5 73.7578 82.5C73.9865 82.5 74.1821 82.5779 74.3445 82.7337C74.5102 82.8894 74.5931 83.0767 74.5931 83.2955C74.5931 83.5142 74.5102 83.7015 74.3445 83.8572C74.1821 84.013 73.9865 84.0909 73.7578 84.0909ZM77.6568 88.4062V93H76.4835V85.3636H77.617V86.5568H77.7165C77.8955 86.169 78.1672 85.8575 78.5318 85.6222C78.8964 85.3835 79.367 85.2642 79.9437 85.2642C80.4608 85.2642 80.9132 85.3703 81.301 85.5824C81.6888 85.7912 81.9904 86.1094 82.2058 86.5369C82.4213 86.9612 82.529 87.4981 82.529 88.1477V93H81.3557V88.2273C81.3557 87.6274 81.1999 87.16 80.8883 86.8253C80.5768 86.4872 80.1492 86.3182 79.6057 86.3182C79.2312 86.3182 78.8964 86.3994 78.6014 86.5618C78.3098 86.7242 78.0794 86.9612 77.9104 87.2727C77.7413 87.5843 77.6568 87.9621 77.6568 88.4062ZM87.7554 96.0227C87.1886 96.0227 86.7014 95.9498 86.2937 95.804C85.886 95.6615 85.5463 95.4725 85.2745 95.2372C85.0061 95.0052 84.7923 94.7566 84.6332 94.4915L85.5679 93.8352C85.6739 93.9744 85.8082 94.1335 85.9706 94.3125C86.133 94.4948 86.355 94.6522 86.6368 94.7848C86.9218 94.9207 87.2947 94.9886 87.7554 94.9886C88.3718 94.9886 88.8806 94.8395 89.2816 94.5412C89.6827 94.2429 89.8832 93.7756 89.8832 93.1392V91.5881H89.7838C89.6976 91.7273 89.575 91.8996 89.4159 92.1051C89.2601 92.3073 89.0347 92.4879 88.7397 92.647C88.4481 92.8028 88.0537 92.8807 87.5565 92.8807C86.94 92.8807 86.3865 92.7348 85.896 92.4432C85.4088 92.1515 85.0226 91.7273 84.7376 91.1705C84.4559 90.6136 84.315 89.9375 84.315 89.142C84.315 88.3598 84.4526 87.6787 84.7277 87.0987C85.0028 86.5154 85.3856 86.0646 85.8761 85.7464C86.3666 85.425 86.9334 85.2642 87.5764 85.2642C88.0735 85.2642 88.468 85.3471 88.7596 85.5128C89.0546 85.6752 89.28 85.8608 89.4358 86.0696C89.5948 86.2751 89.7175 86.4441 89.8037 86.5767H89.923V85.3636H91.0565V93.2188C91.0565 93.875 90.9073 94.4086 90.6091 94.8196C90.3141 95.2339 89.9163 95.5372 89.4159 95.7294C88.9187 95.925 88.3652 96.0227 87.7554 96.0227ZM87.7156 91.8267C88.1862 91.8267 88.584 91.719 88.9088 91.5036C89.2336 91.2881 89.4805 90.9782 89.6495 90.5739C89.8186 90.1695 89.9031 89.6856 89.9031 89.1222C89.9031 88.572 89.8202 88.0864 89.6545 87.6655C89.4888 87.2446 89.2435 86.9148 88.9187 86.6761C88.5939 86.4375 88.1929 86.3182 87.7156 86.3182C87.2184 86.3182 86.8041 86.4441 86.4727 86.696C86.1446 86.9479 85.8976 87.286 85.7319 87.7102C85.5695 88.1345 85.4883 88.6051 85.4883 89.1222C85.4883 89.6525 85.5712 90.1214 85.7369 90.5291C85.9059 90.9335 86.1545 91.2517 86.4826 91.4837C86.8141 91.7124 87.2251 91.8267 87.7156 91.8267ZM97.7184 93H96.4258L100.164 82.8182H101.437L105.175 93H103.883L100.84 84.429H100.761L97.7184 93ZM98.1957 89.0227H103.405V90.1165H98.1957V89.0227ZM109.486 93.1591C108.849 93.1591 108.288 92.9983 107.8 92.6768C107.313 92.352 106.932 91.8946 106.657 91.3047C106.382 90.7114 106.244 90.0104 106.244 89.2017C106.244 88.3996 106.382 87.7036 106.657 87.1136C106.932 86.5237 107.315 86.0679 107.805 85.7464C108.296 85.425 108.863 85.2642 109.506 85.2642C110.003 85.2642 110.395 85.3471 110.684 85.5128C110.976 85.6752 111.198 85.8608 111.35 86.0696C111.506 86.2751 111.627 86.4441 111.713 86.5767H111.812V82.8182H112.986V93H111.852V91.8267H111.713C111.627 91.9659 111.504 92.1416 111.345 92.3537C111.186 92.5625 110.959 92.7498 110.664 92.9155C110.369 93.0779 109.976 93.1591 109.486 93.1591ZM109.645 92.1051C110.115 92.1051 110.513 91.9825 110.838 91.7372C111.163 91.4886 111.41 91.1456 111.579 90.7081C111.748 90.2673 111.832 89.7585 111.832 89.1818C111.832 88.6117 111.749 88.1129 111.584 87.6854C111.418 87.2545 111.173 86.9197 110.848 86.6811C110.523 86.4392 110.122 86.3182 109.645 86.3182C109.148 86.3182 108.733 86.4458 108.402 86.701C108.074 86.9529 107.827 87.2959 107.661 87.7301C107.499 88.161 107.418 88.6449 107.418 89.1818C107.418 89.7254 107.5 90.2192 107.666 90.6634C107.835 91.1042 108.084 91.4555 108.412 91.7173C108.743 91.9759 109.154 92.1051 109.645 92.1051ZM115.297 93V85.3636H116.431V86.5568H116.53C116.69 86.1491 116.946 85.8326 117.301 85.6072C117.656 85.3786 118.082 85.2642 118.579 85.2642C119.083 85.2642 119.502 85.3786 119.837 85.6072C120.175 85.8326 120.438 86.1491 120.627 86.5568H120.707C120.902 86.1624 121.195 85.8492 121.587 85.6172C121.978 85.3819 122.447 85.2642 122.993 85.2642C123.676 85.2642 124.235 85.478 124.669 85.9055C125.103 86.3298 125.32 86.991 125.32 87.8892V93H124.147V87.8892C124.147 87.3258 123.993 86.9231 123.685 86.6811C123.376 86.4392 123.013 86.3182 122.596 86.3182C122.059 86.3182 121.643 86.4806 121.348 86.8054C121.053 87.1269 120.905 87.5346 120.905 88.0284V93H119.712V87.7699C119.712 87.3357 119.571 86.986 119.29 86.7209C119.008 86.4524 118.645 86.3182 118.201 86.3182C117.896 86.3182 117.611 86.3994 117.346 86.5618C117.084 86.7242 116.872 86.9496 116.709 87.2379C116.55 87.523 116.471 87.8527 116.471 88.2273V93H115.297ZM127.465 93V85.3636H128.639V93H127.465ZM128.062 84.0909C127.833 84.0909 127.636 84.013 127.47 83.8572C127.308 83.7015 127.227 83.5142 127.227 83.2955C127.227 83.0767 127.308 82.8894 127.47 82.7337C127.636 82.5779 127.833 82.5 128.062 82.5C128.291 82.5 128.486 82.5779 128.649 82.7337C128.814 82.8894 128.897 83.0767 128.897 83.2955C128.897 83.5142 128.814 83.7015 128.649 83.8572C128.486 84.013 128.291 84.0909 128.062 84.0909ZM131.961 88.4062V93H130.788V85.3636H131.921V86.5568H132.021C132.2 86.169 132.471 85.8575 132.836 85.6222C133.201 85.3835 133.671 85.2642 134.248 85.2642C134.765 85.2642 135.217 85.3703 135.605 85.5824C135.993 85.7912 136.295 86.1094 136.51 86.5369C136.725 86.9612 136.833 87.4981 136.833 88.1477V93H135.66V88.2273C135.66 87.6274 135.504 87.16 135.193 86.8253C134.881 86.4872 134.453 86.3182 133.91 86.3182C133.535 86.3182 133.201 86.3994 132.906 86.5618C132.614 86.7242 132.384 86.9612 132.215 87.2727C132.046 87.5843 131.961 87.9621 131.961 88.4062ZM138.977 93V85.3636H140.15V93H138.977ZM139.574 84.0909C139.345 84.0909 139.148 84.013 138.982 83.8572C138.82 83.7015 138.739 83.5142 138.739 83.2955C138.739 83.0767 138.82 82.8894 138.982 82.7337C139.148 82.5779 139.345 82.5 139.574 82.5C139.802 82.5 139.998 82.5779 140.16 82.7337C140.326 82.8894 140.409 83.0767 140.409 83.2955C140.409 83.5142 140.326 83.7015 140.16 83.8572C139.998 84.013 139.802 84.0909 139.574 84.0909ZM147.709 87.0739L146.655 87.3722C146.588 87.1965 146.49 87.0258 146.361 86.8601C146.235 86.6911 146.063 86.5518 145.844 86.4425C145.625 86.3331 145.345 86.2784 145.004 86.2784C144.537 86.2784 144.147 86.3861 143.836 86.6016C143.527 86.8137 143.373 87.0838 143.373 87.4119C143.373 87.7036 143.479 87.9339 143.691 88.103C143.904 88.272 144.235 88.4129 144.686 88.5256L145.819 88.804C146.502 88.9697 147.011 89.2232 147.346 89.5646C147.68 89.9027 147.848 90.3385 147.848 90.8722C147.848 91.3097 147.722 91.7008 147.47 92.0455C147.221 92.3902 146.873 92.6619 146.426 92.8608C145.978 93.0597 145.458 93.1591 144.865 93.1591C144.086 93.1591 143.441 92.9901 142.931 92.652C142.42 92.3139 142.097 91.8201 141.961 91.1705L143.075 90.892C143.181 91.303 143.382 91.6113 143.677 91.8168C143.975 92.0223 144.364 92.125 144.845 92.125C145.392 92.125 145.826 92.009 146.147 91.777C146.472 91.5417 146.635 91.2599 146.635 90.9318C146.635 90.6667 146.542 90.4446 146.356 90.2656C146.171 90.0833 145.886 89.9474 145.501 89.858L144.228 89.5597C143.529 89.3939 143.015 89.1371 142.687 88.7891C142.362 88.4377 142.2 87.9986 142.2 87.4716C142.2 87.0407 142.321 86.6596 142.563 86.3281C142.808 85.9967 143.141 85.7365 143.562 85.5476C143.986 85.3587 144.467 85.2642 145.004 85.2642C145.76 85.2642 146.353 85.4299 146.784 85.7614C147.218 86.0928 147.526 86.5303 147.709 87.0739ZM152.935 85.3636V86.358H148.978V85.3636H152.935ZM150.131 83.5341H151.304V90.8125C151.304 91.1439 151.352 91.3925 151.448 91.5582C151.548 91.7206 151.674 91.83 151.826 91.8864C151.982 91.9394 152.146 91.9659 152.318 91.9659C152.448 91.9659 152.554 91.9593 152.637 91.946C152.719 91.9295 152.786 91.9162 152.835 91.9062L153.074 92.9602C152.995 92.9901 152.884 93.0199 152.741 93.0497C152.598 93.0829 152.418 93.0994 152.199 93.0994C151.868 93.0994 151.543 93.0282 151.225 92.8857C150.91 92.7431 150.648 92.526 150.439 92.2344C150.234 91.9427 150.131 91.5748 150.131 91.1307V83.5341ZM154.7 93V85.3636H155.833V86.517H155.913C156.052 86.1392 156.304 85.8326 156.669 85.5973C157.033 85.362 157.444 85.2443 157.902 85.2443C157.988 85.2443 158.095 85.246 158.225 85.2493C158.354 85.2526 158.452 85.2576 158.518 85.2642V86.4574C158.478 86.4474 158.387 86.4325 158.245 86.4126C158.105 86.3894 157.958 86.3778 157.802 86.3778C157.431 86.3778 157.099 86.4557 156.808 86.6115C156.519 86.764 156.291 86.9761 156.122 87.2479C155.956 87.5163 155.873 87.8229 155.873 88.1676V93H154.7ZM162.156 93.179C161.672 93.179 161.233 93.0878 160.838 92.9055C160.444 92.7199 160.131 92.4531 159.899 92.1051C159.667 91.7538 159.551 91.3295 159.551 90.8324C159.551 90.3949 159.637 90.0402 159.809 89.7685C159.982 89.4934 160.212 89.2779 160.5 89.1222C160.789 88.9664 161.107 88.8504 161.455 88.7741C161.806 88.6946 162.159 88.6316 162.514 88.5852C162.978 88.5256 163.354 88.4808 163.642 88.451C163.934 88.4179 164.146 88.3632 164.279 88.2869C164.415 88.2107 164.483 88.0781 164.483 87.8892V87.8494C164.483 87.3589 164.348 86.9777 164.08 86.706C163.815 86.4342 163.412 86.2983 162.872 86.2983C162.312 86.2983 161.873 86.4209 161.554 86.6662C161.236 86.9115 161.012 87.1733 160.883 87.4517L159.77 87.054C159.968 86.59 160.234 86.2287 160.565 85.9702C160.9 85.7083 161.264 85.526 161.659 85.4233C162.057 85.3172 162.448 85.2642 162.832 85.2642C163.077 85.2642 163.359 85.294 163.677 85.3537C163.999 85.41 164.309 85.5277 164.607 85.7067C164.909 85.8857 165.159 86.1558 165.358 86.517C165.557 86.8783 165.656 87.3622 165.656 87.9688V93H164.483V91.9659H164.423C164.343 92.1316 164.211 92.3089 164.025 92.4979C163.84 92.6868 163.593 92.8475 163.285 92.9801C162.976 93.1127 162.6 93.179 162.156 93.179ZM162.335 92.125C162.799 92.125 163.19 92.0339 163.508 91.8516C163.83 91.6693 164.072 91.4339 164.234 91.1456C164.4 90.8572 164.483 90.554 164.483 90.2358V89.1619C164.433 89.2216 164.324 89.2763 164.155 89.326C163.989 89.3724 163.797 89.4138 163.578 89.4503C163.362 89.4834 163.152 89.5133 162.946 89.5398C162.744 89.563 162.58 89.5829 162.454 89.5994C162.149 89.6392 161.864 89.7038 161.599 89.7933C161.337 89.8795 161.125 90.0104 160.963 90.1861C160.804 90.3584 160.724 90.5937 160.724 90.892C160.724 91.2997 160.875 91.608 161.177 91.8168C161.481 92.0223 161.868 92.125 162.335 92.125ZM171.118 85.3636V86.358H167.161V85.3636H171.118ZM168.315 83.5341H169.488V90.8125C169.488 91.1439 169.536 91.3925 169.632 91.5582C169.731 91.7206 169.857 91.83 170.01 91.8864C170.166 91.9394 170.33 91.9659 170.502 91.9659C170.631 91.9659 170.737 91.9593 170.82 91.946C170.903 91.9295 170.969 91.9162 171.019 91.9062L171.258 92.9602C171.178 92.9901 171.067 93.0199 170.925 93.0497C170.782 93.0829 170.601 93.0994 170.383 93.0994C170.051 93.0994 169.726 93.0282 169.408 92.8857C169.093 92.7431 168.832 92.526 168.623 92.2344C168.417 91.9427 168.315 91.5748 168.315 91.1307V83.5341ZM175.904 93.1591C175.214 93.1591 174.609 92.995 174.089 92.6669C173.572 92.3388 173.168 91.8797 172.876 91.2898C172.588 90.6998 172.443 90.0104 172.443 89.2216C172.443 88.4261 172.588 87.7318 172.876 87.1385C173.168 86.5452 173.572 86.0845 174.089 85.7564C174.609 85.4283 175.214 85.2642 175.904 85.2642C176.593 85.2642 177.196 85.4283 177.713 85.7564C178.234 86.0845 178.638 86.5452 178.926 87.1385C179.218 87.7318 179.364 88.4261 179.364 89.2216C179.364 90.0104 179.218 90.6998 178.926 91.2898C178.638 91.8797 178.234 92.3388 177.713 92.6669C177.196 92.995 176.593 93.1591 175.904 93.1591ZM175.904 92.1051C176.427 92.1051 176.858 91.9709 177.196 91.7024C177.534 91.4339 177.785 91.081 177.947 90.6435C178.109 90.206 178.191 89.732 178.191 89.2216C178.191 88.7112 178.109 88.2356 177.947 87.7947C177.785 87.3539 177.534 86.9976 177.196 86.7259C176.858 86.4541 176.427 86.3182 175.904 86.3182C175.38 86.3182 174.949 86.4541 174.611 86.7259C174.273 86.9976 174.023 87.3539 173.86 87.7947C173.698 88.2356 173.617 88.7112 173.617 89.2216C173.617 89.732 173.698 90.206 173.86 90.6435C174.023 91.081 174.273 91.4339 174.611 91.7024C174.949 91.9709 175.38 92.1051 175.904 92.1051ZM181.155 93V85.3636H182.288V86.517H182.368C182.507 86.1392 182.759 85.8326 183.124 85.5973C183.488 85.362 183.899 85.2443 184.357 85.2443C184.443 85.2443 184.55 85.246 184.68 85.2493C184.809 85.2526 184.907 85.2576 184.973 85.2642V86.4574C184.933 86.4474 184.842 86.4325 184.7 86.4126C184.56 86.3894 184.413 86.3778 184.257 86.3778C183.886 86.3778 183.555 86.4557 183.263 86.6115C182.974 86.764 182.746 86.9761 182.577 87.2479C182.411 87.5163 182.328 87.8229 182.328 88.1676V93H181.155ZM31.1302 106.818H32.3631V114.097C32.3631 114.746 32.2438 115.298 32.0052 115.752C31.7665 116.206 31.4301 116.551 30.9959 116.786C30.5618 117.022 30.0497 117.139 29.4597 117.139C28.9029 117.139 28.4074 117.038 27.9732 116.836C27.539 116.63 27.1977 116.339 26.9491 115.961C26.7005 115.583 26.5762 115.134 26.5762 114.614H27.7893C27.7893 114.902 27.8605 115.154 28.0031 115.369C28.1489 115.581 28.3477 115.747 28.5996 115.866C28.8515 115.986 29.1382 116.045 29.4597 116.045C29.8144 116.045 30.116 115.971 30.3646 115.822C30.6131 115.673 30.8021 115.454 30.9313 115.165C31.0639 114.874 31.1302 114.518 31.1302 114.097V106.818ZM39.4874 113.878V109.364H40.6607V117H39.4874V115.707H39.4079C39.2289 116.095 38.9505 116.425 38.5727 116.697C38.1948 116.965 37.7175 117.099 37.1408 117.099C36.6636 117.099 36.2393 116.995 35.8681 116.786C35.4969 116.574 35.2052 116.256 34.9931 115.832C34.781 115.404 34.6749 114.866 34.6749 114.216V109.364H35.8482V114.136C35.8482 114.693 36.004 115.137 36.3156 115.469C36.6304 115.8 37.0315 115.966 37.5187 115.966C37.8103 115.966 38.107 115.891 38.4086 115.742C38.7135 115.593 38.9687 115.364 39.1742 115.056C39.383 114.748 39.4874 114.355 39.4874 113.878ZM43.983 106.818V117H42.8097V106.818H43.983ZM46.132 117V109.364H47.3053V117H46.132ZM46.7285 108.091C46.4999 108.091 46.3026 108.013 46.1369 107.857C45.9745 107.701 45.8933 107.514 45.8933 107.295C45.8933 107.077 45.9745 106.889 46.1369 106.734C46.3026 106.578 46.4999 106.5 46.7285 106.5C46.9572 106.5 47.1528 106.578 47.3152 106.734C47.4809 106.889 47.5638 107.077 47.5638 107.295C47.5638 107.514 47.4809 107.701 47.3152 107.857C47.1528 108.013 46.9572 108.091 46.7285 108.091ZM53.3718 117V116.105L56.7326 112.426C57.127 111.995 57.4519 111.621 57.7071 111.303C57.9623 110.981 58.1512 110.679 58.2738 110.398C58.3998 110.113 58.4627 109.814 58.4627 109.503C58.4627 109.145 58.3766 108.835 58.2042 108.573C58.0352 108.311 57.8032 108.109 57.5082 107.967C57.2132 107.824 56.8818 107.753 56.5139 107.753C56.1228 107.753 55.7814 107.834 55.4897 107.996C55.2014 108.156 54.9777 108.379 54.8186 108.668C54.6628 108.956 54.5849 109.294 54.5849 109.682H53.4116C53.4116 109.085 53.5492 108.562 53.8243 108.111C54.0993 107.66 54.4739 107.309 54.9478 107.057C55.4251 106.805 55.9604 106.679 56.5537 106.679C57.1502 106.679 57.6789 106.805 58.1396 107.057C58.6003 107.309 58.9616 107.648 59.2234 108.076C59.4852 108.504 59.6162 108.979 59.6162 109.503C59.6162 109.877 59.5482 110.244 59.4123 110.602C59.2797 110.956 59.0477 111.352 58.7163 111.79C58.3882 112.224 57.9324 112.754 57.3491 113.381L55.0622 115.827V115.906H59.7951V117H53.3718ZM65.1694 117.139C64.4204 117.139 63.7823 116.935 63.2554 116.528C62.7284 116.117 62.3257 115.522 62.0473 114.743C61.7689 113.961 61.6296 113.016 61.6296 111.909C61.6296 110.809 61.7689 109.869 62.0473 109.09C62.329 108.308 62.7333 107.711 63.2603 107.3C63.7906 106.886 64.427 106.679 65.1694 106.679C65.9118 106.679 66.5466 106.886 67.0735 107.3C67.6038 107.711 68.0082 108.308 68.2866 109.09C68.5683 109.869 68.7092 110.809 68.7092 111.909C68.7092 113.016 68.57 113.961 68.2916 114.743C68.0132 115.522 67.6105 116.117 67.0835 116.528C66.5565 116.935 65.9185 117.139 65.1694 117.139ZM65.1694 116.045C65.9118 116.045 66.4886 115.687 66.8995 114.972C67.3105 114.256 67.516 113.235 67.516 111.909C67.516 111.027 67.4216 110.277 67.2326 109.657C67.047 109.037 66.7786 108.565 66.4272 108.24C66.0792 107.915 65.66 107.753 65.1694 107.753C64.4336 107.753 63.8586 108.116 63.4443 108.842C63.03 109.564 62.8228 110.587 62.8228 111.909C62.8228 112.791 62.9156 113.54 63.1012 114.156C63.2868 114.773 63.5537 115.242 63.9017 115.563C64.253 115.885 64.6756 116.045 65.1694 116.045ZM70.5984 117V116.105L73.9592 112.426C74.3536 111.995 74.6784 111.621 74.9336 111.303C75.1888 110.981 75.3778 110.679 75.5004 110.398C75.6263 110.113 75.6893 109.814 75.6893 109.503C75.6893 109.145 75.6031 108.835 75.4308 108.573C75.2618 108.311 75.0297 108.109 74.7348 107.967C74.4398 107.824 74.1083 107.753 73.7404 107.753C73.3493 107.753 73.008 107.834 72.7163 107.996C72.4279 108.156 72.2042 108.379 72.0451 108.668C71.8894 108.956 71.8115 109.294 71.8115 109.682H70.6382C70.6382 109.085 70.7757 108.562 71.0508 108.111C71.3259 107.66 71.7004 107.309 72.1744 107.057C72.6517 106.805 73.1869 106.679 73.7802 106.679C74.3768 106.679 74.9055 106.805 75.3662 107.057C75.8269 107.309 76.1881 107.648 76.45 108.076C76.7118 108.504 76.8427 108.979 76.8427 109.503C76.8427 109.877 76.7748 110.244 76.6389 110.602C76.5063 110.956 76.2743 111.352 75.9429 111.79C75.6147 112.224 75.159 112.754 74.5757 113.381L72.2887 115.827V115.906H77.0217V117H70.5984ZM82.6545 106.818V117H81.4216V108.111H81.3619L78.8761 109.761V108.509L81.4216 106.818H82.6545ZM93.9152 111.362V112.456H89.4606V111.362H93.9152ZM100.076 106.818H101.547L105.008 115.27H105.127L108.587 106.818H110.059V117H108.905V109.264H108.806L105.624 117H104.51L101.329 109.264H101.229V117H100.076V106.818ZM115.573 117.159C114.838 117.159 114.203 116.997 113.669 116.672C113.139 116.344 112.73 115.886 112.441 115.3C112.156 114.71 112.014 114.024 112.014 113.241C112.014 112.459 112.156 111.77 112.441 111.173C112.73 110.573 113.131 110.106 113.644 109.771C114.161 109.433 114.765 109.264 115.454 109.264C115.852 109.264 116.245 109.33 116.632 109.463C117.02 109.596 117.373 109.811 117.691 110.109C118.009 110.404 118.263 110.795 118.452 111.283C118.641 111.77 118.735 112.37 118.735 113.082V113.58H112.849V112.565H117.542C117.542 112.134 117.456 111.75 117.284 111.412C117.115 111.074 116.873 110.807 116.558 110.612C116.246 110.416 115.878 110.318 115.454 110.318C114.987 110.318 114.582 110.434 114.241 110.666C113.903 110.895 113.643 111.193 113.46 111.561C113.278 111.929 113.187 112.323 113.187 112.744V113.42C113.187 113.997 113.286 114.486 113.485 114.887C113.688 115.285 113.968 115.588 114.326 115.797C114.683 116.002 115.099 116.105 115.573 116.105C115.882 116.105 116.16 116.062 116.409 115.976C116.661 115.886 116.878 115.754 117.06 115.578C117.242 115.399 117.383 115.177 117.482 114.912L118.616 115.23C118.497 115.615 118.296 115.953 118.014 116.244C117.733 116.533 117.385 116.758 116.97 116.92C116.556 117.08 116.09 117.159 115.573 117.159ZM120.52 117V109.364H121.693V117H120.52ZM121.117 108.091C120.888 108.091 120.691 108.013 120.525 107.857C120.363 107.701 120.281 107.514 120.281 107.295C120.281 107.077 120.363 106.889 120.525 106.734C120.691 106.578 120.888 106.5 121.117 106.5C121.345 106.5 121.541 106.578 121.703 106.734C121.869 106.889 121.952 107.077 121.952 107.295C121.952 107.514 121.869 107.701 121.703 107.857C121.541 108.013 121.345 108.091 121.117 108.091ZM127.76 117V116.105L131.121 112.426C131.515 111.995 131.84 111.621 132.095 111.303C132.35 110.981 132.539 110.679 132.662 110.398C132.788 110.113 132.851 109.814 132.851 109.503C132.851 109.145 132.765 108.835 132.592 108.573C132.423 108.311 132.191 108.109 131.896 107.967C131.601 107.824 131.27 107.753 130.902 107.753C130.511 107.753 130.17 107.834 129.878 107.996C129.59 108.156 129.366 108.379 129.207 108.668C129.051 108.956 128.973 109.294 128.973 109.682H127.8C127.8 109.085 127.937 108.562 128.212 108.111C128.488 107.66 128.862 107.309 129.336 107.057C129.813 106.805 130.349 106.679 130.942 106.679C131.538 106.679 132.067 106.805 132.528 107.057C132.988 107.309 133.35 107.648 133.612 108.076C133.873 108.504 134.004 108.979 134.004 109.503C134.004 109.877 133.936 110.244 133.8 110.602C133.668 110.956 133.436 111.352 133.104 111.79C132.776 112.224 132.321 112.754 131.737 113.381L129.45 115.827V115.906H134.183V117H127.76ZM139.558 117.139C138.809 117.139 138.171 116.935 137.644 116.528C137.117 116.117 136.714 115.522 136.435 114.743C136.157 113.961 136.018 113.016 136.018 111.909C136.018 110.809 136.157 109.869 136.435 109.09C136.717 108.308 137.122 107.711 137.649 107.3C138.179 106.886 138.815 106.679 139.558 106.679C140.3 106.679 140.935 106.886 141.462 107.3C141.992 107.711 142.396 108.308 142.675 109.09C142.957 109.869 143.097 110.809 143.097 111.909C143.097 113.016 142.958 113.961 142.68 114.743C142.401 115.522 141.999 116.117 141.472 116.528C140.945 116.935 140.307 117.139 139.558 117.139ZM139.558 116.045C140.3 116.045 140.877 115.687 141.288 114.972C141.699 114.256 141.904 113.235 141.904 111.909C141.904 111.027 141.81 110.277 141.621 109.657C141.435 109.037 141.167 108.565 140.815 108.24C140.467 107.915 140.048 107.753 139.558 107.753C138.822 107.753 138.247 108.116 137.832 108.842C137.418 109.564 137.211 110.587 137.211 111.909C137.211 112.791 137.304 113.54 137.489 114.156C137.675 114.773 137.942 115.242 138.29 115.563C138.641 115.885 139.064 116.045 139.558 116.045ZM144.987 117V116.105L148.347 112.426C148.742 111.995 149.067 111.621 149.322 111.303C149.577 110.981 149.766 110.679 149.889 110.398C150.015 110.113 150.077 109.814 150.077 109.503C150.077 109.145 149.991 108.835 149.819 108.573C149.65 108.311 149.418 108.109 149.123 107.967C148.828 107.824 148.497 107.753 148.129 107.753C147.738 107.753 147.396 107.834 147.104 107.996C146.816 108.156 146.592 108.379 146.433 108.668C146.278 108.956 146.2 109.294 146.2 109.682H145.026C145.026 109.085 145.164 108.562 145.439 108.111C145.714 107.66 146.089 107.309 146.563 107.057C147.04 106.805 147.575 106.679 148.168 106.679C148.765 106.679 149.294 106.805 149.754 107.057C150.215 107.309 150.576 107.648 150.838 108.076C151.1 108.504 151.231 108.979 151.231 109.503C151.231 109.877 151.163 110.244 151.027 110.602C150.894 110.956 150.662 111.352 150.331 111.79C150.003 112.224 149.547 112.754 148.964 113.381L146.677 115.827V115.906H151.41V117H144.987ZM157.043 106.818V117H155.81V108.111H155.75L153.264 109.761V108.509L155.81 106.818H157.043ZM27.2325 130.818H28.704L32.1643 139.27H32.2836L35.7438 130.818H37.2154V141H36.062V133.264H35.9626L32.7807 141H31.6671L28.4853 133.264H28.3859V141H27.2325V130.818ZM41.7756 141.179C41.2917 141.179 40.8525 141.088 40.4581 140.906C40.0637 140.72 39.7505 140.453 39.5185 140.105C39.2865 139.754 39.1705 139.33 39.1705 138.832C39.1705 138.395 39.2567 138.04 39.429 137.768C39.6014 137.493 39.8317 137.278 40.1201 137.122C40.4084 136.966 40.7266 136.85 41.0746 136.774C41.4259 136.695 41.7789 136.632 42.1336 136.585C42.5976 136.526 42.9738 136.481 43.2621 136.451C43.5538 136.418 43.7659 136.363 43.8985 136.287C44.0344 136.211 44.1023 136.078 44.1023 135.889V135.849C44.1023 135.359 43.9681 134.978 43.6996 134.706C43.4345 134.434 43.0318 134.298 42.4915 134.298C41.9314 134.298 41.4922 134.421 41.174 134.666C40.8559 134.911 40.6321 135.173 40.5029 135.452L39.3892 135.054C39.5881 134.59 39.8533 134.229 40.1847 133.97C40.5194 133.708 40.884 133.526 41.2784 133.423C41.6762 133.317 42.0673 133.264 42.4517 133.264C42.697 133.264 42.9787 133.294 43.2969 133.354C43.6184 133.41 43.9283 133.528 44.2266 133.707C44.5282 133.886 44.7784 134.156 44.9773 134.517C45.1762 134.878 45.2756 135.362 45.2756 135.969V141H44.1023V139.966H44.0426C43.9631 140.132 43.8305 140.309 43.6449 140.498C43.4593 140.687 43.2124 140.848 42.9042 140.98C42.5959 141.113 42.2197 141.179 41.7756 141.179ZM41.9546 140.125C42.4186 140.125 42.8097 140.034 43.1279 139.852C43.4494 139.669 43.6913 139.434 43.8537 139.146C44.0194 138.857 44.1023 138.554 44.1023 138.236V137.162C44.0526 137.222 43.9432 137.276 43.7742 137.326C43.6085 137.372 43.4162 137.414 43.1975 137.45C42.982 137.483 42.7716 137.513 42.5661 137.54C42.3639 137.563 42.1998 137.583 42.0739 137.599C41.769 137.639 41.4839 137.704 41.2188 137.793C40.9569 137.879 40.7448 138.01 40.5824 138.186C40.4233 138.358 40.3438 138.594 40.3438 138.892C40.3438 139.3 40.4946 139.608 40.7962 139.817C41.1011 140.022 41.4872 140.125 41.9546 140.125ZM47.4171 141V133.364H48.5506V134.517H48.6302C48.7694 134.139 49.0213 133.833 49.3859 133.597C49.7504 133.362 50.1614 133.244 50.6188 133.244C50.705 133.244 50.8127 133.246 50.942 133.249C51.0712 133.253 51.169 133.258 51.2353 133.264V134.457C51.1955 134.447 51.1044 134.433 50.9619 134.413C50.8227 134.389 50.6752 134.378 50.5194 134.378C50.1482 134.378 49.8167 134.456 49.5251 134.612C49.2367 134.764 49.008 134.976 48.839 135.248C48.6733 135.516 48.5904 135.823 48.5904 136.168V141H47.4171ZM53.7198 138.216L53.7 136.764H53.9386L57.2795 133.364H58.7312L55.1716 136.963H55.0721L53.7198 138.216ZM52.6261 141V130.818H53.7994V141H52.6261ZM57.4784 141L54.4954 137.222L55.3306 136.406L58.9698 141H57.4784ZM63.1286 141.159C62.3928 141.159 61.7581 140.997 61.2245 140.672C60.6942 140.344 60.2848 139.886 59.9965 139.3C59.7114 138.71 59.5689 138.024 59.5689 137.241C59.5689 136.459 59.7114 135.77 59.9965 135.173C60.2848 134.573 60.6859 134.106 61.1996 133.771C61.7167 133.433 62.3199 133.264 63.0093 133.264C63.407 133.264 63.7997 133.33 64.1875 133.463C64.5753 133.596 64.9283 133.811 65.2465 134.109C65.5647 134.404 65.8182 134.795 66.0071 135.283C66.1961 135.77 66.2905 136.37 66.2905 137.082V137.58H60.4042V136.565H65.0973C65.0973 136.134 65.0112 135.75 64.8388 135.412C64.6698 135.074 64.4278 134.807 64.113 134.612C63.8014 134.416 63.4335 134.318 63.0093 134.318C62.5419 134.318 62.1376 134.434 61.7962 134.666C61.4581 134.895 61.1979 135.193 61.0157 135.561C60.8334 135.929 60.7422 136.323 60.7422 136.744V137.42C60.7422 137.997 60.8417 138.486 61.0405 138.887C61.2427 139.285 61.5228 139.588 61.8807 139.797C62.2387 140.002 62.6546 140.105 63.1286 140.105C63.4368 140.105 63.7152 140.062 63.9638 139.976C64.2157 139.886 64.4328 139.754 64.6151 139.578C64.7974 139.399 64.9382 139.177 65.0377 138.912L66.1712 139.23C66.0519 139.615 65.8514 139.953 65.5696 140.244C65.2879 140.533 64.9399 140.758 64.5256 140.92C64.1113 141.08 63.6456 141.159 63.1286 141.159ZM71.3963 133.364V134.358H67.439V133.364H71.3963ZM68.5924 131.534H69.7657V138.812C69.7657 139.144 69.8137 139.393 69.9098 139.558C70.0093 139.721 70.1352 139.83 70.2877 139.886C70.4435 139.939 70.6075 139.966 70.7799 139.966C70.9091 139.966 71.0152 139.959 71.098 139.946C71.1809 139.929 71.2472 139.916 71.2969 139.906L71.5355 140.96C71.456 140.99 71.345 141.02 71.2024 141.05C71.0599 141.083 70.8793 141.099 70.6605 141.099C70.3291 141.099 70.0043 141.028 69.6861 140.886C69.3712 140.743 69.1094 140.526 68.9006 140.234C68.6951 139.943 68.5924 139.575 68.5924 139.131V131.534ZM73.1613 141V133.364H74.3345V141H73.1613ZM73.7578 132.091C73.5292 132.091 73.3319 132.013 73.1662 131.857C73.0038 131.701 72.9226 131.514 72.9226 131.295C72.9226 131.077 73.0038 130.889 73.1662 130.734C73.3319 130.578 73.5292 130.5 73.7578 130.5C73.9865 130.5 74.1821 130.578 74.3445 130.734C74.5102 130.889 74.5931 131.077 74.5931 131.295C74.5931 131.514 74.5102 131.701 74.3445 131.857C74.1821 132.013 73.9865 132.091 73.7578 132.091ZM77.6568 136.406V141H76.4835V133.364H77.617V134.557H77.7165C77.8955 134.169 78.1672 133.857 78.5318 133.622C78.8964 133.384 79.367 133.264 79.9437 133.264C80.4608 133.264 80.9132 133.37 81.301 133.582C81.6888 133.791 81.9904 134.109 82.2058 134.537C82.4213 134.961 82.529 135.498 82.529 136.148V141H81.3557V136.227C81.3557 135.627 81.1999 135.16 80.8883 134.825C80.5768 134.487 80.1492 134.318 79.6057 134.318C79.2312 134.318 78.8964 134.399 78.6014 134.562C78.3098 134.724 78.0794 134.961 77.9104 135.273C77.7413 135.584 77.6568 135.962 77.6568 136.406ZM87.7554 144.023C87.1886 144.023 86.7014 143.95 86.2937 143.804C85.886 143.661 85.5463 143.473 85.2745 143.237C85.0061 143.005 84.7923 142.757 84.6332 142.491L85.5679 141.835C85.6739 141.974 85.8082 142.134 85.9706 142.312C86.133 142.495 86.355 142.652 86.6368 142.785C86.9218 142.921 87.2947 142.989 87.7554 142.989C88.3718 142.989 88.8806 142.839 89.2816 142.541C89.6827 142.243 89.8832 141.776 89.8832 141.139V139.588H89.7838C89.6976 139.727 89.575 139.9 89.4159 140.105C89.2601 140.307 89.0347 140.488 88.7397 140.647C88.4481 140.803 88.0537 140.881 87.5565 140.881C86.94 140.881 86.3865 140.735 85.896 140.443C85.4088 140.152 85.0226 139.727 84.7376 139.17C84.4559 138.614 84.315 137.937 84.315 137.142C84.315 136.36 84.4526 135.679 84.7277 135.099C85.0028 134.515 85.3856 134.065 85.8761 133.746C86.3666 133.425 86.9334 133.264 87.5764 133.264C88.0735 133.264 88.468 133.347 88.7596 133.513C89.0546 133.675 89.28 133.861 89.4358 134.07C89.5948 134.275 89.7175 134.444 89.8037 134.577H89.923V133.364H91.0565V141.219C91.0565 141.875 90.9073 142.409 90.6091 142.82C90.3141 143.234 89.9163 143.537 89.4159 143.729C88.9187 143.925 88.3652 144.023 87.7554 144.023ZM87.7156 139.827C88.1862 139.827 88.584 139.719 88.9088 139.504C89.2336 139.288 89.4805 138.978 89.6495 138.574C89.8186 138.17 89.9031 137.686 89.9031 137.122C89.9031 136.572 89.8202 136.086 89.6545 135.665C89.4888 135.245 89.2435 134.915 88.9187 134.676C88.5939 134.437 88.1929 134.318 87.7156 134.318C87.2184 134.318 86.8041 134.444 86.4727 134.696C86.1446 134.948 85.8976 135.286 85.7319 135.71C85.5695 136.134 85.4883 136.605 85.4883 137.122C85.4883 137.652 85.5712 138.121 85.7369 138.529C85.9059 138.933 86.1545 139.252 86.4826 139.484C86.8141 139.712 87.2251 139.827 87.7156 139.827ZM102.868 133.364C102.809 132.86 102.567 132.469 102.143 132.19C101.718 131.912 101.198 131.773 100.582 131.773C100.131 131.773 99.7369 131.846 99.3988 131.991C99.0641 132.137 98.8022 132.338 98.6133 132.593C98.4277 132.848 98.3349 133.138 98.3349 133.463C98.3349 133.735 98.3995 133.969 98.5288 134.164C98.6614 134.356 98.8304 134.517 99.0359 134.646C99.2414 134.772 99.4568 134.877 99.6822 134.96C99.9076 135.039 100.114 135.104 100.303 135.153L101.337 135.432C101.602 135.501 101.897 135.598 102.222 135.72C102.55 135.843 102.864 136.01 103.162 136.222C103.463 136.431 103.712 136.7 103.908 137.028C104.103 137.356 104.201 137.759 104.201 138.236C104.201 138.786 104.057 139.283 103.768 139.727C103.483 140.171 103.066 140.524 102.516 140.786C101.969 141.048 101.304 141.179 100.522 141.179C99.7932 141.179 99.1618 141.061 98.6282 140.826C98.0979 140.591 97.6803 140.263 97.3754 139.842C97.0738 139.421 96.9031 138.932 96.8633 138.375H98.136C98.1692 138.759 98.2984 139.078 98.5238 139.33C98.7525 139.578 99.0409 139.764 99.3889 139.886C99.7402 140.006 100.118 140.065 100.522 140.065C100.993 140.065 101.415 139.989 101.79 139.837C102.164 139.681 102.461 139.465 102.68 139.19C102.898 138.912 103.008 138.587 103.008 138.216C103.008 137.878 102.913 137.603 102.724 137.391C102.535 137.179 102.287 137.006 101.979 136.874C101.67 136.741 101.337 136.625 100.979 136.526L99.727 136.168C98.9315 135.939 98.3018 135.612 97.8377 135.188C97.3737 134.764 97.1417 134.209 97.1417 133.523C97.1417 132.953 97.2958 132.455 97.6041 132.031C97.9156 131.604 98.3332 131.272 98.8569 131.037C99.3839 130.798 99.9722 130.679 100.621 130.679C101.278 130.679 101.861 130.797 102.371 131.032C102.882 131.264 103.286 131.582 103.584 131.987C103.886 132.391 104.045 132.85 104.062 133.364H102.868ZM109.39 133.364V134.358H105.433V133.364H109.39ZM106.586 131.534H107.759V138.812C107.759 139.144 107.807 139.393 107.903 139.558C108.003 139.721 108.129 139.83 108.281 139.886C108.437 139.939 108.601 139.966 108.774 139.966C108.903 139.966 109.009 139.959 109.092 139.946C109.175 139.929 109.241 139.916 109.291 139.906L109.529 140.96C109.45 140.99 109.339 141.02 109.196 141.05C109.054 141.083 108.873 141.099 108.654 141.099C108.323 141.099 107.998 141.028 107.68 140.886C107.365 140.743 107.103 140.526 106.894 140.234C106.689 139.943 106.586 139.575 106.586 139.131V131.534ZM113.402 141.179C112.918 141.179 112.479 141.088 112.085 140.906C111.69 140.72 111.377 140.453 111.145 140.105C110.913 139.754 110.797 139.33 110.797 138.832C110.797 138.395 110.883 138.04 111.055 137.768C111.228 137.493 111.458 137.278 111.747 137.122C112.035 136.966 112.353 136.85 112.701 136.774C113.052 136.695 113.405 136.632 113.76 136.585C114.224 136.526 114.6 136.481 114.889 136.451C115.18 136.418 115.392 136.363 115.525 136.287C115.661 136.211 115.729 136.078 115.729 135.889V135.849C115.729 135.359 115.595 134.978 115.326 134.706C115.061 134.434 114.658 134.298 114.118 134.298C113.558 134.298 113.119 134.421 112.8 134.666C112.482 134.911 112.259 135.173 112.129 135.452L111.016 135.054C111.215 134.59 111.48 134.229 111.811 133.97C112.146 133.708 112.51 133.526 112.905 133.423C113.303 133.317 113.694 133.264 114.078 133.264C114.323 133.264 114.605 133.294 114.923 133.354C115.245 133.41 115.555 133.528 115.853 133.707C116.155 133.886 116.405 134.156 116.604 134.517C116.803 134.878 116.902 135.362 116.902 135.969V141H115.729V139.966H115.669C115.59 140.132 115.457 140.309 115.271 140.498C115.086 140.687 114.839 140.848 114.531 140.98C114.222 141.113 113.846 141.179 113.402 141.179ZM113.581 140.125C114.045 140.125 114.436 140.034 114.754 139.852C115.076 139.669 115.318 139.434 115.48 139.146C115.646 138.857 115.729 138.554 115.729 138.236V137.162C115.679 137.222 115.57 137.276 115.401 137.326C115.235 137.372 115.043 137.414 114.824 137.45C114.608 137.483 114.398 137.513 114.193 137.54C113.99 137.563 113.826 137.583 113.7 137.599C113.395 137.639 113.11 137.704 112.845 137.793C112.583 137.879 112.371 138.01 112.209 138.186C112.05 138.358 111.97 138.594 111.97 138.892C111.97 139.3 112.121 139.608 112.423 139.817C112.728 140.022 113.114 140.125 113.581 140.125ZM122.444 133.364V134.358H118.328V133.364H122.444ZM119.561 141V132.31C119.561 131.872 119.663 131.508 119.869 131.216C120.074 130.924 120.341 130.705 120.669 130.56C120.997 130.414 121.344 130.341 121.708 130.341C121.997 130.341 122.232 130.364 122.414 130.411C122.597 130.457 122.732 130.5 122.822 130.54L122.484 131.554C122.424 131.534 122.341 131.509 122.235 131.479C122.133 131.45 121.997 131.435 121.828 131.435C121.44 131.435 121.16 131.532 120.987 131.728C120.818 131.924 120.734 132.21 120.734 132.588V141H119.561ZM127.489 133.364V134.358H123.373V133.364H127.489ZM124.606 141V132.31C124.606 131.872 124.708 131.508 124.914 131.216C125.119 130.924 125.386 130.705 125.714 130.56C126.042 130.414 126.389 130.341 126.753 130.341C127.042 130.341 127.277 130.364 127.459 130.411C127.642 130.457 127.777 130.5 127.867 130.54L127.529 131.554C127.469 131.534 127.386 131.509 127.28 131.479C127.178 131.45 127.042 131.435 126.873 131.435C126.485 131.435 126.205 131.532 126.032 131.728C125.863 131.924 125.779 132.21 125.779 132.588V141H124.606ZM134.463 130.818V141H133.23V130.818H134.463ZM137.949 136.406V141H136.776V133.364H137.91V134.557H138.009C138.188 134.169 138.46 133.857 138.824 133.622C139.189 133.384 139.66 133.264 140.236 133.264C140.753 133.264 141.206 133.37 141.593 133.582C141.981 133.791 142.283 134.109 142.498 134.537C142.714 134.961 142.821 135.498 142.821 136.148V141H141.648V136.227C141.648 135.627 141.492 135.16 141.181 134.825C140.869 134.487 140.442 134.318 139.898 134.318C139.524 134.318 139.189 134.399 138.894 134.562C138.602 134.724 138.372 134.961 138.203 135.273C138.034 135.584 137.949 135.962 137.949 136.406ZM148.286 133.364V134.358H144.329V133.364H148.286ZM145.482 131.534H146.656V138.812C146.656 139.144 146.704 139.393 146.8 139.558C146.899 139.721 147.025 139.83 147.178 139.886C147.334 139.939 147.498 139.966 147.67 139.966C147.799 139.966 147.905 139.959 147.988 139.946C148.071 139.929 148.137 139.916 148.187 139.906L148.426 140.96C148.346 140.99 148.235 141.02 148.093 141.05C147.95 141.083 147.769 141.099 147.551 141.099C147.219 141.099 146.894 141.028 146.576 140.886C146.261 140.743 146 140.526 145.791 140.234C145.585 139.943 145.482 139.575 145.482 139.131V131.534ZM153.171 141.159C152.435 141.159 151.801 140.997 151.267 140.672C150.737 140.344 150.327 139.886 150.039 139.3C149.754 138.71 149.611 138.024 149.611 137.241C149.611 136.459 149.754 135.77 150.039 135.173C150.327 134.573 150.728 134.106 151.242 133.771C151.759 133.433 152.362 133.264 153.052 133.264C153.449 133.264 153.842 133.33 154.23 133.463C154.618 133.596 154.971 133.811 155.289 134.109C155.607 134.404 155.861 134.795 156.05 135.283C156.239 135.77 156.333 136.37 156.333 137.082V137.58H150.447V136.565H155.14C155.14 136.134 155.054 135.75 154.881 135.412C154.712 135.074 154.47 134.807 154.155 134.612C153.844 134.416 153.476 134.318 153.052 134.318C152.584 134.318 152.18 134.434 151.839 134.666C151.501 134.895 151.24 135.193 151.058 135.561C150.876 135.929 150.785 136.323 150.785 136.744V137.42C150.785 137.997 150.884 138.486 151.083 138.887C151.285 139.285 151.565 139.588 151.923 139.797C152.281 140.002 152.697 140.105 153.171 140.105C153.479 140.105 153.758 140.062 154.006 139.976C154.258 139.886 154.475 139.754 154.658 139.578C154.84 139.399 154.981 139.177 155.08 138.912L156.214 139.23C156.094 139.615 155.894 139.953 155.612 140.244C155.33 140.533 154.982 140.758 154.568 140.92C154.154 141.08 153.688 141.159 153.171 141.159ZM158.118 141V133.364H159.251V134.517H159.331C159.47 134.139 159.722 133.833 160.087 133.597C160.451 133.362 160.862 133.244 161.319 133.244C161.406 133.244 161.513 133.246 161.643 133.249C161.772 133.253 161.87 133.258 161.936 133.264V134.457C161.896 134.447 161.805 134.433 161.663 134.413C161.523 134.389 161.376 134.378 161.22 134.378C160.849 134.378 160.517 134.456 160.226 134.612C159.937 134.764 159.709 134.976 159.54 135.248C159.374 135.516 159.291 135.823 159.291 136.168V141H158.118ZM164.5 136.406V141H163.327V133.364H164.46V134.557H164.56C164.739 134.169 165.01 133.857 165.375 133.622C165.74 133.384 166.21 133.264 166.787 133.264C167.304 133.264 167.756 133.37 168.144 133.582C168.532 133.791 168.834 134.109 169.049 134.537C169.265 134.961 169.372 135.498 169.372 136.148V141H168.199V136.227C168.199 135.627 168.043 135.16 167.732 134.825C167.42 134.487 166.992 134.318 166.449 134.318C166.074 134.318 165.74 134.399 165.445 134.562C165.153 134.724 164.923 134.961 164.754 135.273C164.585 135.584 164.5 135.962 164.5 136.406ZM31.1302 154.818H32.3631V162.097C32.3631 162.746 32.2438 163.298 32.0052 163.752C31.7665 164.206 31.4301 164.551 30.9959 164.786C30.5618 165.022 30.0497 165.139 29.4597 165.139C28.9029 165.139 28.4074 165.038 27.9732 164.836C27.539 164.63 27.1977 164.339 26.9491 163.961C26.7005 163.583 26.5762 163.134 26.5762 162.614H27.7893C27.7893 162.902 27.8605 163.154 28.0031 163.369C28.1489 163.581 28.3477 163.747 28.5996 163.866C28.8515 163.986 29.1382 164.045 29.4597 164.045C29.8144 164.045 30.116 163.971 30.3646 163.822C30.6131 163.673 30.8021 163.454 30.9313 163.165C31.0639 162.874 31.1302 162.518 31.1302 162.097V154.818ZM36.9221 165.179C36.4382 165.179 35.999 165.088 35.6046 164.906C35.2102 164.72 34.897 164.453 34.665 164.105C34.433 163.754 34.317 163.33 34.317 162.832C34.317 162.395 34.4031 162.04 34.5755 161.768C34.7478 161.493 34.9782 161.278 35.2665 161.122C35.5549 160.966 35.8731 160.85 36.2211 160.774C36.5724 160.695 36.9254 160.632 37.28 160.585C37.7441 160.526 38.1202 160.481 38.4086 160.451C38.7003 160.418 38.9124 160.363 39.045 160.287C39.1808 160.211 39.2488 160.078 39.2488 159.889V159.849C39.2488 159.359 39.1146 158.978 38.8461 158.706C38.5809 158.434 38.1782 158.298 37.638 158.298C37.0779 158.298 36.6387 158.421 36.3205 158.666C36.0023 158.911 35.7786 159.173 35.6494 159.452L34.5357 159.054C34.7346 158.59 34.9997 158.229 35.3312 157.97C35.6659 157.708 36.0305 157.526 36.4249 157.423C36.8227 157.317 37.2138 157.264 37.5982 157.264C37.8435 157.264 38.1252 157.294 38.4434 157.354C38.7649 157.41 39.0748 157.528 39.3731 157.707C39.6747 157.886 39.9249 158.156 40.1238 158.517C40.3227 158.878 40.4221 159.362 40.4221 159.969V165H39.2488V163.966H39.1891C39.1096 164.132 38.977 164.309 38.7914 164.498C38.6058 164.687 38.3589 164.848 38.0506 164.98C37.7424 165.113 37.3662 165.179 36.9221 165.179ZM37.1011 164.125C37.5651 164.125 37.9562 164.034 38.2744 163.852C38.5959 163.669 38.8378 163.434 39.0002 163.146C39.1659 162.857 39.2488 162.554 39.2488 162.236V161.162C39.1991 161.222 39.0897 161.276 38.9207 161.326C38.7549 161.372 38.5627 161.414 38.344 161.45C38.1285 161.483 37.9181 161.513 37.7126 161.54C37.5104 161.563 37.3463 161.583 37.2204 161.599C36.9155 161.639 36.6304 161.704 36.3653 161.793C36.1034 161.879 35.8913 162.01 35.7289 162.186C35.5698 162.358 35.4903 162.594 35.4903 162.892C35.4903 163.3 35.6411 163.608 35.9427 163.817C36.2476 164.022 36.6337 164.125 37.1011 164.125ZM43.7369 160.406V165H42.5636V157.364H43.6971V158.557H43.7966C43.9755 158.169 44.2473 157.857 44.6119 157.622C44.9765 157.384 45.4471 157.264 46.0238 157.264C46.5409 157.264 46.9933 157.37 47.3811 157.582C47.7689 157.791 48.0705 158.109 48.2859 158.537C48.5013 158.961 48.6091 159.498 48.6091 160.148V165H47.4358V160.227C47.4358 159.627 47.28 159.16 46.9684 158.825C46.6569 158.487 46.2293 158.318 45.6858 158.318C45.3112 158.318 44.9765 158.399 44.6815 158.562C44.3898 158.724 44.1595 158.961 43.9904 159.273C43.8214 159.584 43.7369 159.962 43.7369 160.406ZM55.5656 161.878V157.364H56.7388V165H55.5656V163.707H55.486C55.307 164.095 55.0286 164.425 54.6508 164.697C54.2729 164.965 53.7957 165.099 53.219 165.099C52.7417 165.099 52.3174 164.995 51.9462 164.786C51.575 164.574 51.2834 164.256 51.0712 163.832C50.8591 163.404 50.7531 162.866 50.7531 162.216V157.364H51.9263V162.136C51.9263 162.693 52.0821 163.137 52.3937 163.469C52.7085 163.8 53.1096 163.966 53.5968 163.966C53.8885 163.966 54.1851 163.891 54.4867 163.742C54.7916 163.593 55.0468 163.364 55.2523 163.056C55.4611 162.748 55.5656 162.355 55.5656 161.878ZM61.135 165.179C60.6511 165.179 60.2119 165.088 59.8175 164.906C59.4231 164.72 59.1099 164.453 58.8779 164.105C58.6459 163.754 58.5299 163.33 58.5299 162.832C58.5299 162.395 58.616 162.04 58.7884 161.768C58.9607 161.493 59.1911 161.278 59.4794 161.122C59.7678 160.966 60.086 160.85 60.434 160.774C60.7853 160.695 61.1383 160.632 61.4929 160.585C61.9569 160.526 62.3331 160.481 62.6215 160.451C62.9131 160.418 63.1253 160.363 63.2578 160.287C63.3937 160.211 63.4617 160.078 63.4617 159.889V159.849C63.4617 159.359 63.3274 158.978 63.059 158.706C62.7938 158.434 62.3911 158.298 61.8509 158.298C61.2908 158.298 60.8516 158.421 60.5334 158.666C60.2152 158.911 59.9915 159.173 59.8622 159.452L58.7486 159.054C58.9475 158.59 59.2126 158.229 59.5441 157.97C59.8788 157.708 60.2434 157.526 60.6378 157.423C61.0355 157.317 61.4266 157.264 61.8111 157.264C62.0564 157.264 62.3381 157.294 62.6563 157.354C62.9778 157.41 63.2877 157.528 63.586 157.707C63.8876 157.886 64.1378 158.156 64.3367 158.517C64.5355 158.878 64.635 159.362 64.635 159.969V165H63.4617V163.966H63.402C63.3225 164.132 63.1899 164.309 63.0043 164.498C62.8187 164.687 62.5718 164.848 62.2635 164.98C61.9553 165.113 61.5791 165.179 61.135 165.179ZM61.314 164.125C61.778 164.125 62.1691 164.034 62.4872 163.852C62.8087 163.669 63.0507 163.434 63.2131 163.146C63.3788 162.857 63.4617 162.554 63.4617 162.236V161.162C63.412 161.222 63.3026 161.276 63.1336 161.326C62.9678 161.372 62.7756 161.414 62.5569 161.45C62.3414 161.483 62.131 161.513 61.9255 161.54C61.7233 161.563 61.5592 161.583 61.4333 161.599C61.1283 161.639 60.8433 161.704 60.5782 161.793C60.3163 161.879 60.1042 162.01 59.9418 162.186C59.7827 162.358 59.7032 162.594 59.7032 162.892C59.7032 163.3 59.854 163.608 60.1556 163.817C60.4605 164.022 60.8466 164.125 61.314 164.125ZM66.7765 165V157.364H67.91V158.517H67.9896C68.1288 158.139 68.3807 157.833 68.7452 157.597C69.1098 157.362 69.5208 157.244 69.9782 157.244C70.0644 157.244 70.1721 157.246 70.3013 157.249C70.4306 157.253 70.5284 157.258 70.5947 157.264V158.457C70.5549 158.447 70.4638 158.433 70.3212 158.413C70.182 158.389 70.0345 158.378 69.8788 158.378C69.5075 158.378 69.1761 158.456 68.8844 158.612C68.5961 158.764 68.3674 158.976 68.1984 159.248C68.0326 159.516 67.9498 159.823 67.9498 160.168V165H66.7765ZM71.9855 165V157.364H73.1588V165H71.9855ZM72.5821 156.091C72.3534 156.091 72.1562 156.013 71.9904 155.857C71.828 155.701 71.7468 155.514 71.7468 155.295C71.7468 155.077 71.828 154.889 71.9904 154.734C72.1562 154.578 72.3534 154.5 72.5821 154.5C72.8108 154.5 73.0063 154.578 73.1687 154.734C73.3344 154.889 73.4173 155.077 73.4173 155.295C73.4173 155.514 73.3344 155.701 73.1687 155.857C73.0063 156.013 72.8108 156.091 72.5821 156.091ZM83.6202 159.362V160.456H79.1657V159.362H83.6202ZM93.679 154.818H94.912V162.097C94.912 162.746 94.7926 163.298 94.554 163.752C94.3154 164.206 93.979 164.551 93.5448 164.786C93.1106 165.022 92.5985 165.139 92.0086 165.139C91.4517 165.139 90.9562 165.038 90.522 164.836C90.0879 164.63 89.7465 164.339 89.4979 163.961C89.2493 163.583 89.125 163.134 89.125 162.614H90.3381C90.3381 162.902 90.4094 163.154 90.5519 163.369C90.6977 163.581 90.8966 163.747 91.1485 163.866C91.4004 163.986 91.6871 164.045 92.0086 164.045C92.3632 164.045 92.6648 163.971 92.9134 163.822C93.162 163.673 93.3509 163.454 93.4801 163.165C93.6127 162.874 93.679 162.518 93.679 162.097V154.818ZM102.036 161.878V157.364H103.209V165H102.036V163.707H101.956C101.777 164.095 101.499 164.425 101.121 164.697C100.743 164.965 100.266 165.099 99.6897 165.099C99.2124 165.099 98.7881 164.995 98.4169 164.786C98.0457 164.574 97.7541 164.256 97.5419 163.832C97.3298 163.404 97.2238 162.866 97.2238 162.216V157.364H98.397V162.136C98.397 162.693 98.5528 163.137 98.8644 163.469C99.1792 163.8 99.5803 163.966 100.067 163.966C100.359 163.966 100.655 163.891 100.957 163.742C101.262 163.593 101.517 163.364 101.723 163.056C101.931 162.748 102.036 162.355 102.036 161.878ZM106.531 160.406V165H105.358V157.364H106.492V158.557H106.591C106.77 158.169 107.042 157.857 107.406 157.622C107.771 157.384 108.242 157.264 108.818 157.264C109.335 157.264 109.788 157.37 110.175 157.582C110.563 157.791 110.865 158.109 111.08 158.537C111.296 158.961 111.403 159.498 111.403 160.148V165H110.23V160.227C110.23 159.627 110.074 159.16 109.763 158.825C109.451 158.487 109.024 158.318 108.48 158.318C108.106 158.318 107.771 158.399 107.476 158.562C107.184 158.724 106.954 158.961 106.785 159.273C106.616 159.584 106.531 159.962 106.531 160.406ZM113.547 165V157.364H114.721V165H113.547ZM114.144 156.091C113.915 156.091 113.718 156.013 113.552 155.857C113.39 155.701 113.309 155.514 113.309 155.295C113.309 155.077 113.39 154.889 113.552 154.734C113.718 154.578 113.915 154.5 114.144 154.5C114.373 154.5 114.568 154.578 114.731 154.734C114.896 154.889 114.979 155.077 114.979 155.295C114.979 155.514 114.896 155.701 114.731 155.857C114.568 156.013 114.373 156.091 114.144 156.091ZM120.787 165V164.105L124.148 160.426C124.543 159.995 124.867 159.621 125.123 159.303C125.378 158.981 125.567 158.679 125.689 158.398C125.815 158.113 125.878 157.814 125.878 157.503C125.878 157.145 125.792 156.835 125.62 156.573C125.451 156.311 125.219 156.109 124.924 155.967C124.629 155.824 124.297 155.753 123.929 155.753C123.538 155.753 123.197 155.834 122.905 155.996C122.617 156.156 122.393 156.379 122.234 156.668C122.078 156.956 122 157.294 122 157.682H120.827C120.827 157.085 120.965 156.562 121.24 156.111C121.515 155.66 121.889 155.309 122.363 155.057C122.841 154.805 123.376 154.679 123.969 154.679C124.566 154.679 125.094 154.805 125.555 155.057C126.016 155.309 126.377 155.648 126.639 156.076C126.901 156.504 127.032 156.979 127.032 157.503C127.032 157.877 126.964 158.244 126.828 158.602C126.695 158.956 126.463 159.352 126.132 159.79C125.804 160.224 125.348 160.754 124.765 161.381L122.478 163.827V163.906H127.211V165H120.787ZM132.585 165.139C131.836 165.139 131.198 164.935 130.671 164.528C130.144 164.117 129.741 163.522 129.463 162.743C129.184 161.961 129.045 161.016 129.045 159.909C129.045 158.809 129.184 157.869 129.463 157.09C129.745 156.308 130.149 155.711 130.676 155.3C131.206 154.886 131.843 154.679 132.585 154.679C133.327 154.679 133.962 154.886 134.489 155.3C135.019 155.711 135.424 156.308 135.702 157.09C135.984 157.869 136.125 158.809 136.125 159.909C136.125 161.016 135.986 161.961 135.707 162.743C135.429 163.522 135.026 164.117 134.499 164.528C133.972 164.935 133.334 165.139 132.585 165.139ZM132.585 164.045C133.327 164.045 133.904 163.687 134.315 162.972C134.726 162.256 134.932 161.235 134.932 159.909C134.932 159.027 134.837 158.277 134.648 157.657C134.463 157.037 134.194 156.565 133.843 156.24C133.495 155.915 133.075 155.753 132.585 155.753C131.849 155.753 131.274 156.116 130.86 156.842C130.445 157.564 130.238 158.587 130.238 159.909C130.238 160.791 130.331 161.54 130.517 162.156C130.702 162.773 130.969 163.242 131.317 163.563C131.669 163.885 132.091 164.045 132.585 164.045ZM138.014 165V164.105L141.375 160.426C141.769 159.995 142.094 159.621 142.349 159.303C142.604 158.981 142.793 158.679 142.916 158.398C143.042 158.113 143.105 157.814 143.105 157.503C143.105 157.145 143.019 156.835 142.846 156.573C142.677 156.311 142.445 156.109 142.15 155.967C141.855 155.824 141.524 155.753 141.156 155.753C140.765 155.753 140.423 155.834 140.132 155.996C139.843 156.156 139.62 156.379 139.461 156.668C139.305 156.956 139.227 157.294 139.227 157.682H138.054C138.054 157.085 138.191 156.562 138.466 156.111C138.741 155.66 139.116 155.309 139.59 155.057C140.067 154.805 140.602 154.679 141.196 154.679C141.792 154.679 142.321 154.805 142.782 155.057C143.242 155.309 143.604 155.648 143.865 156.076C144.127 156.504 144.258 156.979 144.258 157.503C144.258 157.877 144.19 158.244 144.054 158.602C143.922 158.956 143.69 159.352 143.358 159.79C143.03 160.224 142.575 160.754 141.991 161.381L139.704 163.827V163.906H144.437V165H138.014ZM149.811 165.139C149.062 165.139 148.424 164.935 147.897 164.528C147.37 164.117 146.968 163.522 146.689 162.743C146.411 161.961 146.272 161.016 146.272 159.909C146.272 158.809 146.411 157.869 146.689 157.09C146.971 156.308 147.375 155.711 147.902 155.3C148.433 154.886 149.069 154.679 149.811 154.679C150.554 154.679 151.189 154.886 151.716 155.3C152.246 155.711 152.65 156.308 152.929 157.09C153.21 157.869 153.351 158.809 153.351 159.909C153.351 161.016 153.212 161.961 152.934 162.743C152.655 163.522 152.253 164.117 151.726 164.528C151.199 164.935 150.561 165.139 149.811 165.139ZM149.811 164.045C150.554 164.045 151.131 163.687 151.542 162.972C151.953 162.256 152.158 161.235 152.158 159.909C152.158 159.027 152.064 158.277 151.875 157.657C151.689 157.037 151.421 156.565 151.069 156.24C150.721 155.915 150.302 155.753 149.811 155.753C149.076 155.753 148.501 156.116 148.086 156.842C147.672 157.564 147.465 158.587 147.465 159.909C147.465 160.791 147.558 161.54 147.743 162.156C147.929 162.773 148.196 163.242 148.544 163.563C148.895 163.885 149.318 164.045 149.811 164.045Z" fill="#4A5568"/>
</g>
<defs>
<filter id="filter0_d_6170_29138" x="0.2172" y="0.212521" width="253.36" height="227.632" filterUnits="userSpaceOnUse" color-interpolation-filters="sRGB">
<feFlood flood-opacity="0" result="BackgroundImageFix"/>
<feColorMatrix in="SourceAlpha" type="matrix" values="0 0 0 0 0 0 0 0 0 0 0 0 0 0 0 0 0 0 127 0" result="hardAlpha"/>
<feOffset dx="9.39704" dy="10.1199"/>
<feGaussianBlur stdDeviation="7.58992"/>
<feColorMatrix type="matrix" values="0 0 0 0 0.0375 0 0 0 0 0.18975 0 0 0 0 0.3 0 0 0 0.06 0"/>
<feBlend mode="normal" in2="BackgroundImageFix" result="effect1_dropShadow_6170_29138"/>
<feBlend mode="normal" in="SourceGraphic" in2="effect1_dropShadow_6170_29138" result="shape"/>
</filter>
</defs>
</svg>
