<svg width="238" height="228" viewBox="0 0 238 228" fill="none" xmlns="http://www.w3.org/2000/svg">
<g filter="url(#filter0_d_6170_29148)">
<path d="M197 5.27246H22C13.1634 5.27246 6 12.4359 6 21.2725V186.544C6 195.381 13.1634 202.544 22 202.544H197C205.837 202.544 213 195.381 213 186.544V21.2725C213 12.4359 205.837 5.27246 197 5.27246Z" fill="#FFCF54"/>
<path d="M91.2892 39C91.2361 38.3371 90.9876 37.8201 90.5434 37.4489C90.1059 37.0777 89.4397 36.892 88.5449 36.892C87.9748 36.892 87.5074 36.9616 87.1429 37.1009C86.7849 37.2334 86.5198 37.4157 86.3474 37.6477C86.1751 37.8797 86.0856 38.1449 86.0789 38.4432C86.0657 38.6884 86.1088 38.9105 86.2082 39.1094C86.3143 39.3016 86.48 39.4773 86.7054 39.6364C86.9307 39.7888 87.2191 39.928 87.5704 40.054C87.9217 40.1799 88.3394 40.2926 88.8233 40.392L90.4937 40.75C91.6206 40.9886 92.5851 41.3035 93.3872 41.6946C94.1893 42.0857 94.8455 42.5464 95.3559 43.0767C95.8664 43.6004 96.2409 44.1903 96.4795 44.8466C96.7248 45.5028 96.8507 46.2187 96.8574 46.9943C96.8507 48.3333 96.516 49.4669 95.8531 50.3949C95.1902 51.3229 94.2423 52.0289 93.0093 52.5128C91.783 52.9967 90.3081 53.2386 88.5846 53.2386C86.8147 53.2386 85.2702 52.9768 83.9511 52.4531C82.6386 51.9295 81.6178 51.1241 80.8886 50.0369C80.1661 48.9432 79.8015 47.5445 79.7949 45.8409H85.0449C85.078 46.464 85.2338 46.9877 85.5122 47.4119C85.7906 47.8362 86.1817 48.1577 86.6855 48.3764C87.1959 48.5952 87.8024 48.7045 88.5051 48.7045C89.095 48.7045 89.5889 48.6316 89.9866 48.4858C90.3843 48.34 90.686 48.1378 90.8914 47.8793C91.0969 47.6207 91.203 47.3258 91.2096 46.9943C91.203 46.6828 91.1003 46.411 90.9014 46.179C90.7092 45.9403 90.391 45.7282 89.9468 45.5426C89.5027 45.3504 88.9028 45.1714 88.1471 45.0057L86.1187 44.5682C84.3157 44.1771 82.8938 43.5241 81.8531 42.6094C80.819 41.688 80.3053 40.4318 80.3119 38.8409C80.3053 37.5483 80.65 36.4181 81.346 35.4503C82.0486 34.4759 83.0198 33.7169 84.2593 33.1733C85.5056 32.6297 86.9341 32.358 88.5449 32.358C90.1888 32.358 91.6107 32.633 92.8105 33.1832C94.0103 33.7334 94.935 34.509 95.5846 35.5099C96.2409 36.5043 96.5723 37.6676 96.5789 39H91.2892ZM103.971 49.3807L104.011 42.858H104.727L108.426 37.7273H114.591L108.386 45.7216H106.835L103.971 49.3807ZM99.0399 53V32.6364H104.528V53H99.0399ZM108.466 53L104.966 46.9545L108.545 43.0568L114.75 53H108.466ZM116.02 53V37.7273H121.509V53H116.02ZM118.764 36.1364C118.022 36.1364 117.385 35.8911 116.855 35.4006C116.325 34.91 116.06 34.3201 116.06 33.6307C116.06 32.9413 116.325 32.3513 116.855 31.8608C117.385 31.3703 118.022 31.125 118.764 31.125C119.513 31.125 120.15 31.3703 120.673 31.8608C121.204 32.3513 121.469 32.9413 121.469 33.6307C121.469 34.3201 121.204 34.91 120.673 35.4006C120.15 35.8911 119.513 36.1364 118.764 36.1364ZM129.794 32.6364V53H124.305V32.6364H129.794ZM138.079 32.6364V53H132.59V32.6364H138.079Z" fill="#615E4A"/>
<path d="M35.4261 79.9999H34.1932C34.1203 79.6453 33.9927 79.3337 33.8104 79.0652C33.6314 78.7968 33.4126 78.5714 33.1541 78.3891C32.8989 78.2035 32.6155 78.0643 32.304 77.9715C31.9924 77.8787 31.6676 77.8323 31.3295 77.8323C30.7131 77.8323 30.1546 77.9881 29.6541 78.2996C29.157 78.6112 28.7609 79.0702 28.4659 79.6767C28.1742 80.2833 28.0284 81.0274 28.0284 81.909C28.0284 82.7906 28.1742 83.5347 28.4659 84.1412C28.7609 84.7478 29.157 85.2068 29.6541 85.5184C30.1546 85.8299 30.7131 85.9857 31.3295 85.9857C31.6676 85.9857 31.9924 85.9393 32.304 85.8465C32.6155 85.7537 32.8989 85.6161 33.1541 85.4338C33.4126 85.2482 33.6314 85.0212 33.8104 84.7527C33.9927 84.481 34.1203 84.1694 34.1932 83.8181H35.4261C35.3333 84.3384 35.1643 84.8041 34.919 85.2151C34.6738 85.6261 34.3688 85.9758 34.0043 86.2641C33.6397 86.5491 33.2304 86.7662 32.7763 86.9154C32.3255 87.0645 31.8433 87.1391 31.3295 87.1391C30.4612 87.1391 29.6889 86.927 29.0128 86.5027C28.3366 86.0785 27.8047 85.4753 27.4169 84.6931C27.0291 83.9109 26.8352 82.9829 26.8352 81.909C26.8352 80.8351 27.0291 79.9071 27.4169 79.1249C27.8047 78.3427 28.3366 77.7395 29.0128 77.3152C29.6889 76.891 30.4612 76.6789 31.3295 76.6789C31.8433 76.6789 32.3255 76.7535 32.7763 76.9026C33.2304 77.0517 33.6397 77.2705 34.0043 77.5588C34.3688 77.8439 34.6738 78.1919 34.919 78.6029C35.1643 79.0106 35.3333 79.4762 35.4261 79.9999ZM37.2594 86.9999V79.3635H38.4327V86.9999H37.2594ZM37.856 78.0908C37.6273 78.0908 37.4301 78.0129 37.2644 77.8571C37.102 77.7014 37.0208 77.5141 37.0208 77.2954C37.0208 77.0766 37.102 76.8893 37.2644 76.7336C37.4301 76.5778 37.6273 76.4999 37.856 76.4999C38.0847 76.4999 38.2802 76.5778 38.4426 76.7336C38.6084 76.8893 38.6912 77.0766 38.6912 77.2954C38.6912 77.5141 38.6084 77.7014 38.4426 77.8571C38.2802 78.0129 38.0847 78.0908 37.856 78.0908ZM41.755 82.4061V86.9999H40.5817V79.3635H41.7152V80.5567H41.8146C41.9936 80.1689 42.2654 79.8574 42.63 79.6221C42.9946 79.3834 43.4652 79.2641 44.0419 79.2641C44.5589 79.2641 45.0114 79.3702 45.3991 79.5823C45.7869 79.7911 46.0885 80.1093 46.304 80.5368C46.5194 80.9611 46.6271 81.498 46.6271 82.1476V86.9999H45.4538V82.2272C45.4538 81.6273 45.2981 81.1599 44.9865 80.8252C44.675 80.4871 44.2474 80.3181 43.7038 80.3181C43.3293 80.3181 42.9946 80.3993 42.6996 80.5617C42.4079 80.7241 42.1776 80.9611 42.0085 81.2726C41.8395 81.5842 41.755 81.962 41.755 82.4061ZM51.6547 87.159C51.0183 87.159 50.4565 86.9982 49.9693 86.6767C49.4821 86.3519 49.1009 85.8945 48.8258 85.3046C48.5507 84.7113 48.4132 84.0103 48.4132 83.2016C48.4132 82.3995 48.5507 81.7035 48.8258 81.1135C49.1009 80.5236 49.4837 80.0678 49.9743 79.7463C50.4648 79.4249 51.0315 79.2641 51.6745 79.2641C52.1717 79.2641 52.5645 79.347 52.8528 79.5127C53.1445 79.6751 53.3665 79.8607 53.519 80.0695C53.6748 80.275 53.7958 80.444 53.8819 80.5766H53.9814V76.8181H55.1547V86.9999H54.0211V85.8266H53.8819C53.7958 85.9658 53.6731 86.1415 53.514 86.3536C53.3549 86.5624 53.1279 86.7497 52.8329 86.9154C52.5379 87.0778 52.1452 87.159 51.6547 87.159ZM51.8137 86.105C52.2844 86.105 52.6821 85.9824 53.0069 85.7371C53.3317 85.4885 53.5787 85.1455 53.7477 84.708C53.9167 84.2672 54.0012 83.7584 54.0012 83.1817C54.0012 82.6116 53.9184 82.1128 53.7527 81.6853C53.5869 81.2544 53.3417 80.9196 53.0169 80.681C52.6921 80.4391 52.291 80.3181 51.8137 80.3181C51.3166 80.3181 50.9023 80.4457 50.5708 80.7009C50.2427 80.9528 49.9958 81.2958 49.8301 81.73C49.6677 82.1609 49.5865 82.6448 49.5865 83.1817C49.5865 83.7253 49.6693 84.2191 49.835 84.6633C50.0041 85.1041 50.2527 85.4554 50.5808 85.7172C50.9122 85.9758 51.3232 86.105 51.8137 86.105ZM58.2221 89.8635C58.0233 89.8635 57.8459 89.847 57.6902 89.8138C57.5344 89.784 57.4267 89.7542 57.367 89.7243L57.6653 88.6902C57.9503 88.7632 58.2022 88.7897 58.421 88.7698C58.6397 88.7499 58.8336 88.6521 59.0027 88.4765C59.175 88.3041 59.3324 88.024 59.475 87.6363L59.6937 87.0397L56.8699 79.3635H58.1426L60.2505 85.4488H60.3301L62.438 79.3635H63.7108L60.4693 88.1135C60.3234 88.5079 60.1428 88.8344 59.9274 89.0929C59.7119 89.3548 59.4617 89.5487 59.1767 89.6746C58.8949 89.8006 58.5768 89.8635 58.2221 89.8635ZM69.356 86.9999V76.8181H70.5293V80.5766H70.6287C70.7149 80.444 70.8342 80.275 70.9867 80.0695C71.1425 79.8607 71.3645 79.6751 71.6529 79.5127C71.9445 79.347 72.339 79.2641 72.8361 79.2641C73.4791 79.2641 74.0459 79.4249 74.5364 79.7463C75.0269 80.0678 75.4097 80.5236 75.6848 81.1135C75.9599 81.7035 76.0975 82.3995 76.0975 83.2016C76.0975 84.0103 75.9599 84.7113 75.6848 85.3046C75.4097 85.8945 75.0286 86.3519 74.5414 86.6767C74.0542 86.9982 73.4924 87.159 72.856 87.159C72.3655 87.159 71.9727 87.0778 71.6777 86.9154C71.3828 86.7497 71.1557 86.5624 70.9966 86.3536C70.8375 86.1415 70.7149 85.9658 70.6287 85.8266H70.4895V86.9999H69.356ZM70.5094 83.1817C70.5094 83.7584 70.5939 84.2672 70.763 84.708C70.932 85.1455 71.1789 85.4885 71.5037 85.7371C71.8285 85.9824 72.2263 86.105 72.6969 86.105C73.1874 86.105 73.5968 85.9758 73.9249 85.7172C74.2563 85.4554 74.5049 85.1041 74.6706 84.6633C74.8397 84.2191 74.9242 83.7253 74.9242 83.1817C74.9242 82.6448 74.8413 82.1609 74.6756 81.73C74.5132 81.2958 74.2663 80.9528 73.9348 80.7009C73.6067 80.4457 73.1941 80.3181 72.6969 80.3181C72.2196 80.3181 71.8186 80.4391 71.4938 80.681C71.169 80.9196 70.9237 81.2544 70.758 81.6853C70.5923 82.1128 70.5094 82.6116 70.5094 83.1817ZM81.0939 87.159C80.3581 87.159 79.7234 86.9966 79.1898 86.6718C78.6595 86.3437 78.2502 85.8863 77.9618 85.2996C77.6768 84.7097 77.5343 84.0236 77.5343 83.2414C77.5343 82.4592 77.6768 81.7698 77.9618 81.1732C78.2502 80.5733 78.6512 80.106 79.165 79.7712C79.682 79.4331 80.2852 79.2641 80.9746 79.2641C81.3723 79.2641 81.7651 79.3304 82.1529 79.463C82.5407 79.5955 82.8936 79.811 83.2118 80.1093C83.53 80.4043 83.7836 80.7954 83.9725 81.2826C84.1614 81.7698 84.2559 82.3697 84.2559 83.0823V83.5794H78.3695V82.5652H83.0627C83.0627 82.1344 82.9765 81.7499 82.8042 81.4118C82.6351 81.0738 82.3932 80.807 82.0783 80.6114C81.7667 80.4159 81.3989 80.3181 80.9746 80.3181C80.5073 80.3181 80.1029 80.4341 79.7615 80.6661C79.4235 80.8948 79.1633 81.1931 78.981 81.561C78.7987 81.9289 78.7076 82.3233 78.7076 82.7442V83.4204C78.7076 83.9971 78.807 84.4859 79.0059 84.887C79.208 85.2847 79.4881 85.588 79.8461 85.7968C80.204 86.0023 80.62 86.105 81.0939 86.105C81.4022 86.105 81.6806 86.0619 81.9292 85.9758C82.181 85.8863 82.3981 85.7537 82.5804 85.578C82.7627 85.399 82.9036 85.177 83.003 84.9118L84.1365 85.23C84.0172 85.6145 83.8167 85.9526 83.535 86.2442C83.2533 86.5326 82.9052 86.7579 82.4909 86.9204C82.0766 87.0794 81.611 87.159 81.0939 87.159ZM86.0407 86.9999V79.3635H87.1742V80.5169H87.2537C87.3929 80.1391 87.6448 79.8325 88.0094 79.5972C88.374 79.3619 88.785 79.2442 89.2424 79.2442C89.3285 79.2442 89.4363 79.2459 89.5655 79.2492C89.6948 79.2525 89.7926 79.2575 89.8588 79.2641V80.4573C89.8191 80.4473 89.7279 80.4324 89.5854 80.4125C89.4462 80.3893 89.2987 80.3777 89.1429 80.3777C88.7717 80.3777 88.4403 80.4556 88.1486 80.6114C87.8603 80.7639 87.6316 80.976 87.4625 81.2478C87.2968 81.5162 87.214 81.8228 87.214 82.1675V86.9999H86.0407ZM91.2496 89.8635V79.3635H92.3832V80.5766H92.5224C92.6085 80.444 92.7279 80.275 92.8803 80.0695C93.0361 79.8607 93.2582 79.6751 93.5465 79.5127C93.8382 79.347 94.2326 79.2641 94.7298 79.2641C95.3728 79.2641 95.9395 79.4249 96.43 79.7463C96.9206 80.0678 97.3034 80.5236 97.5785 81.1135C97.8536 81.7035 97.9911 82.3995 97.9911 83.2016C97.9911 84.0103 97.8536 84.7113 97.5785 85.3046C97.3034 85.8945 96.9222 86.3519 96.435 86.6767C95.9478 86.9982 95.386 87.159 94.7496 87.159C94.2591 87.159 93.8664 87.0778 93.5714 86.9154C93.2764 86.7497 93.0494 86.5624 92.8903 86.3536C92.7312 86.1415 92.6085 85.9658 92.5224 85.8266H92.4229V89.8635H91.2496ZM92.4031 83.1817C92.4031 83.7584 92.4876 84.2672 92.6566 84.708C92.8256 85.1455 93.0726 85.4885 93.3974 85.7371C93.7222 85.9824 94.1199 86.105 94.5906 86.105C95.0811 86.105 95.4904 85.9758 95.8185 85.7172C96.15 85.4554 96.3986 85.1041 96.5643 84.6633C96.7333 84.2191 96.8178 83.7253 96.8178 83.1817C96.8178 82.6448 96.735 82.1609 96.5692 81.73C96.4068 81.2958 96.1599 80.9528 95.8285 80.7009C95.5004 80.4457 95.0877 80.3181 94.5906 80.3181C94.1133 80.3181 93.7122 80.4391 93.3874 80.681C93.0626 80.9196 92.8174 81.2544 92.6516 81.6853C92.4859 82.1128 92.4031 82.6116 92.4031 83.1817ZM99.7809 86.9999V79.3635H100.954V86.9999H99.7809ZM100.377 78.0908C100.149 78.0908 99.9516 78.0129 99.7859 77.8571C99.6235 77.7014 99.5423 77.5141 99.5423 77.2954C99.5423 77.0766 99.6235 76.8893 99.7859 76.7336C99.9516 76.5778 100.149 76.4999 100.377 76.4999C100.606 76.4999 100.802 76.5778 100.964 76.7336C101.13 76.8893 101.213 77.0766 101.213 77.2954C101.213 77.5141 101.13 77.7014 100.964 77.8571C100.802 78.0129 100.606 78.0908 100.377 78.0908ZM104.197 84.2158L104.177 82.7641H104.416L107.757 79.3635H109.208L105.649 82.963H105.549L104.197 84.2158ZM103.103 86.9999V76.8181H104.276V86.9999H103.103ZM107.955 86.9999L104.972 83.2215L105.808 82.4061L109.447 86.9999H107.955ZM110.718 86.9999V79.3635H111.892V86.9999H110.718ZM111.315 78.0908C111.086 78.0908 110.889 78.0129 110.723 77.8571C110.561 77.7014 110.48 77.5141 110.48 77.2954C110.48 77.0766 110.561 76.8893 110.723 76.7336C110.889 76.5778 111.086 76.4999 111.315 76.4999C111.544 76.4999 111.739 76.5778 111.902 76.7336C112.067 76.8893 112.15 77.0766 112.15 77.2954C112.15 77.5141 112.067 77.7014 111.902 77.8571C111.739 78.0129 111.544 78.0908 111.315 78.0908ZM114.041 86.9999V79.3635H115.174V80.5169H115.254C115.393 80.1391 115.645 79.8325 116.009 79.5972C116.374 79.3619 116.785 79.2442 117.242 79.2442C117.329 79.2442 117.436 79.2459 117.566 79.2492C117.695 79.2525 117.793 79.2575 117.859 79.2641V80.4573C117.819 80.4473 117.728 80.4324 117.585 80.4125C117.446 80.3893 117.299 80.3777 117.143 80.3777C116.772 80.3777 116.44 80.4556 116.149 80.6114C115.86 80.7639 115.632 80.976 115.463 81.2478C115.297 81.5162 115.214 81.8228 115.214 82.1675V86.9999H114.041ZM124.281 84.2158L124.261 82.7641H124.5L127.841 79.3635H129.292L125.733 82.963H125.633L124.281 84.2158ZM123.187 86.9999V76.8181H124.36V86.9999H123.187ZM128.039 86.9999L125.056 83.2215L125.892 82.4061L129.531 86.9999H128.039ZM130.802 86.9999V79.3635H131.936V80.5169H132.015C132.155 80.1391 132.407 79.8325 132.771 79.5972C133.136 79.3619 133.547 79.2442 134.004 79.2442C134.09 79.2442 134.198 79.2459 134.327 79.2492C134.456 79.2525 134.554 79.2575 134.621 79.2641V80.4573C134.581 80.4473 134.49 80.4324 134.347 80.4125C134.208 80.3893 134.06 80.3777 133.905 80.3777C133.533 80.3777 133.202 80.4556 132.91 80.6114C132.622 80.7639 132.393 80.976 132.224 81.2478C132.059 81.5162 131.976 81.8228 131.976 82.1675V86.9999H130.802ZM138.981 87.159C138.245 87.159 137.61 86.9966 137.077 86.6718C136.546 86.3437 136.137 85.8863 135.849 85.2996C135.564 84.7097 135.421 84.0236 135.421 83.2414C135.421 82.4592 135.564 81.7698 135.849 81.1732C136.137 80.5733 136.538 80.106 137.052 79.7712C137.569 79.4331 138.172 79.2641 138.861 79.2641C139.259 79.2641 139.652 79.3304 140.04 79.463C140.427 79.5955 140.78 79.811 141.099 80.1093C141.417 80.4043 141.67 80.7954 141.859 81.2826C142.048 81.7698 142.143 82.3697 142.143 83.0823V83.5794H136.256V82.5652H140.949C140.949 82.1344 140.863 81.7499 140.691 81.4118C140.522 81.0738 140.28 80.807 139.965 80.6114C139.653 80.4159 139.286 80.3181 138.861 80.3181C138.394 80.3181 137.99 80.4341 137.648 80.6661C137.31 80.8948 137.05 81.1931 136.868 81.561C136.685 81.9289 136.594 82.3233 136.594 82.7442V83.4204C136.594 83.9971 136.694 84.4859 136.893 84.887C137.095 85.2847 137.375 85.588 137.733 85.7968C138.091 86.0023 138.507 86.105 138.981 86.105C139.289 86.105 139.567 86.0619 139.816 85.9758C140.068 85.8863 140.285 85.7537 140.467 85.578C140.649 85.399 140.79 85.177 140.89 84.9118L142.023 85.23C141.904 85.6145 141.703 85.9526 141.422 86.2442C141.14 86.5326 140.792 86.7579 140.378 86.9204C139.963 87.0794 139.498 87.159 138.981 87.159ZM146.175 87.1789C145.691 87.1789 145.251 87.0877 144.857 86.9054C144.463 86.7198 144.149 86.453 143.917 86.105C143.685 85.7537 143.569 85.3294 143.569 84.8323C143.569 84.3948 143.656 84.0401 143.828 83.7684C144 83.4933 144.231 83.2778 144.519 83.1221C144.807 82.9663 145.126 82.8503 145.474 82.774C145.825 82.6945 146.178 82.6315 146.532 82.5851C146.997 82.5255 147.373 82.4807 147.661 82.4509C147.953 82.4178 148.165 82.3631 148.297 82.2868C148.433 82.2106 148.501 82.078 148.501 81.8891V81.8493C148.501 81.3588 148.367 80.9776 148.099 80.7059C147.833 80.4341 147.431 80.2982 146.89 80.2982C146.33 80.2982 145.891 80.4208 145.573 80.6661C145.255 80.9114 145.031 81.1732 144.902 81.4516L143.788 81.0539C143.987 80.5899 144.252 80.2286 144.584 79.9701C144.918 79.7082 145.283 79.5259 145.677 79.4232C146.075 79.3171 146.466 79.2641 146.851 79.2641C147.096 79.2641 147.378 79.2939 147.696 79.3536C148.017 79.4099 148.327 79.5276 148.626 79.7066C148.927 79.8856 149.177 80.1557 149.376 80.5169C149.575 80.8782 149.675 81.3621 149.675 81.9687V86.9999H148.501V85.9658H148.442C148.362 86.1315 148.229 86.3088 148.044 86.4978C147.858 86.6867 147.611 86.8474 147.303 86.98C146.995 87.1126 146.619 87.1789 146.175 87.1789ZM146.354 86.1249C146.818 86.1249 147.209 86.0338 147.527 85.8515C147.848 85.6692 148.09 85.4338 148.253 85.1455C148.418 84.8571 148.501 84.5539 148.501 84.2357V83.1618C148.452 83.2215 148.342 83.2762 148.173 83.3259C148.007 83.3723 147.815 83.4137 147.596 83.4502C147.381 83.4833 147.171 83.5132 146.965 83.5397C146.763 83.5629 146.599 83.5828 146.473 83.5993C146.168 83.6391 145.883 83.7037 145.618 83.7932C145.356 83.8794 145.144 84.0103 144.981 84.186C144.822 84.3583 144.743 84.5936 144.743 84.8919C144.743 85.2996 144.894 85.6079 145.195 85.8167C145.5 86.0222 145.886 86.1249 146.354 86.1249ZM155.137 79.3635V80.3579H151.18V79.3635H155.137ZM152.333 77.534H153.506V84.8124C153.506 85.1438 153.554 85.3924 153.651 85.5581C153.75 85.7205 153.876 85.8299 154.028 85.8863C154.184 85.9393 154.348 85.9658 154.521 85.9658C154.65 85.9658 154.756 85.9592 154.839 85.9459C154.922 85.9294 154.988 85.9161 155.038 85.9061L155.276 86.9601C155.197 86.99 155.086 87.0198 154.943 87.0496C154.801 87.0828 154.62 87.0993 154.401 87.0993C154.07 87.0993 153.745 87.0281 153.427 86.8856C153.112 86.743 152.85 86.5259 152.641 86.2343C152.436 85.9426 152.333 85.5747 152.333 85.1306V77.534ZM156.902 86.9999V79.3635H158.075V86.9999H156.902ZM157.499 78.0908C157.27 78.0908 157.073 78.0129 156.907 77.8571C156.745 77.7014 156.663 77.5141 156.663 77.2954C156.663 77.0766 156.745 76.8893 156.907 76.7336C157.073 76.5778 157.27 76.4999 157.499 76.4999C157.727 76.4999 157.923 76.5778 158.085 76.7336C158.251 76.8893 158.334 77.0766 158.334 77.2954C158.334 77.5141 158.251 77.7014 158.085 77.8571C157.923 78.0129 157.727 78.0908 157.499 78.0908ZM163.625 79.3635V80.3579H159.508V79.3635H163.625ZM160.741 86.9999V78.3096C160.741 77.8721 160.844 77.5075 161.05 77.2158C161.255 76.9241 161.522 76.7054 161.85 76.5596C162.178 76.4137 162.524 76.3408 162.889 76.3408C163.177 76.3408 163.413 76.364 163.595 76.4104C163.777 76.4568 163.913 76.4999 164.003 76.5397L163.665 77.5539C163.605 77.534 163.522 77.5091 163.416 77.4793C163.313 77.4495 163.177 77.4346 163.008 77.4346C162.621 77.4346 162.34 77.5323 162.168 77.7279C161.999 77.9234 161.915 78.2101 161.915 78.588V86.9999H160.741ZM31.8864 107.878V103.364H33.0597V111H31.8864V109.707H31.8068C31.6278 110.095 31.3494 110.425 30.9716 110.697C30.5938 110.965 30.1165 111.099 29.5398 111.099C29.0625 111.099 28.6383 110.995 28.267 110.786C27.8958 110.574 27.6042 110.256 27.392 109.832C27.1799 109.404 27.0739 108.866 27.0739 108.216V103.364H28.2472V108.136C28.2472 108.693 28.4029 109.137 28.7145 109.469C29.0294 109.8 29.4304 109.966 29.9176 109.966C30.2093 109.966 30.5059 109.891 30.8075 109.742C31.1125 109.593 31.3677 109.364 31.5732 109.056C31.782 108.748 31.8864 108.355 31.8864 107.878ZM36.3819 106.406V111H35.2086V103.364H36.3422V104.557H36.4416C36.6206 104.169 36.8923 103.857 37.2569 103.622C37.6215 103.384 38.0922 103.264 38.6689 103.264C39.1859 103.264 39.6383 103.37 40.0261 103.582C40.4139 103.791 40.7155 104.109 40.9309 104.537C41.1464 104.961 41.2541 105.498 41.2541 106.148V111H40.0808V106.227C40.0808 105.627 39.925 105.16 39.6135 104.825C39.3019 104.487 38.8743 104.318 38.3308 104.318C37.9563 104.318 37.6215 104.399 37.3265 104.562C37.0349 104.724 36.8045 104.961 36.6355 105.273C36.4664 105.584 36.3819 105.962 36.3819 106.406ZM46.7191 103.364V104.358H42.7617V103.364H46.7191ZM43.9151 101.534H45.0884V108.812C45.0884 109.144 45.1365 109.393 45.2326 109.558C45.332 109.721 45.458 109.83 45.6104 109.886C45.7662 109.939 45.9303 109.966 46.1026 109.966C46.2319 109.966 46.338 109.959 46.4208 109.946C46.5037 109.929 46.57 109.916 46.6197 109.906L46.8583 110.96C46.7788 110.99 46.6677 111.02 46.5252 111.05C46.3827 111.083 46.2021 111.099 45.9833 111.099C45.6519 111.099 45.3271 111.028 45.0089 110.886C44.694 110.743 44.4322 110.526 44.2234 110.234C44.0179 109.943 43.9151 109.575 43.9151 109.131V101.534ZM53.2965 107.878V103.364H54.4698V111H53.2965V109.707H53.217C53.038 110.095 52.7596 110.425 52.3817 110.697C52.0039 110.965 51.5266 111.099 50.9499 111.099C50.4727 111.099 50.0484 110.995 49.6772 110.786C49.306 110.574 49.0143 110.256 48.8022 109.832C48.5901 109.404 48.484 108.866 48.484 108.216V103.364H49.6573V108.136C49.6573 108.693 49.8131 109.137 50.1246 109.469C50.4395 109.8 50.8406 109.966 51.3278 109.966C51.6194 109.966 51.9161 109.891 52.2177 109.742C52.5226 109.593 52.7778 109.364 52.9833 109.056C53.1921 108.748 53.2965 108.355 53.2965 107.878ZM57.7125 108.216L57.6926 106.764H57.9313L61.2722 103.364H62.7239L59.1642 106.963H59.0648L57.7125 108.216ZM56.6188 111V100.818H57.7921V111H56.6188ZM61.4711 111L58.4881 107.222L59.3233 106.406L62.9625 111H61.4711ZM68.1715 111V103.364H69.305V104.557H69.4045C69.5636 104.149 69.8204 103.833 70.1751 103.607C70.5297 103.379 70.9556 103.264 71.4528 103.264C71.9566 103.264 72.3758 103.379 72.7106 103.607C73.0487 103.833 73.3121 104.149 73.5011 104.557H73.5806C73.7762 104.162 74.0695 103.849 74.4606 103.617C74.8517 103.382 75.3207 103.264 75.8675 103.264C76.5503 103.264 77.1088 103.478 77.543 103.906C77.9772 104.33 78.1942 104.991 78.1942 105.889V111H77.021V105.889C77.021 105.326 76.8668 104.923 76.5586 104.681C76.2504 104.439 75.8874 104.318 75.4698 104.318C74.9329 104.318 74.5169 104.481 74.2219 104.805C73.927 105.127 73.7795 105.535 73.7795 106.028V111H72.5863V105.77C72.5863 105.336 72.4454 104.986 72.1637 104.721C71.882 104.452 71.5191 104.318 71.0749 104.318C70.77 104.318 70.485 104.399 70.2198 104.562C69.958 104.724 69.7459 104.95 69.5835 105.238C69.4244 105.523 69.3448 105.853 69.3448 106.227V111H68.1715ZM83.5412 111.159C82.8054 111.159 82.1707 110.997 81.6371 110.672C81.1068 110.344 80.6974 109.886 80.4091 109.3C80.1241 108.71 79.9815 108.024 79.9815 107.241C79.9815 106.459 80.1241 105.77 80.4091 105.173C80.6974 104.573 81.0985 104.106 81.6122 103.771C82.1293 103.433 82.7325 103.264 83.4219 103.264C83.8196 103.264 84.2124 103.33 84.6001 103.463C84.9879 103.596 85.3409 103.811 85.6591 104.109C85.9773 104.404 86.2308 104.795 86.4197 105.283C86.6087 105.77 86.7031 106.37 86.7031 107.082V107.58H80.8168V106.565H85.5099C85.5099 106.134 85.4238 105.75 85.2514 105.412C85.0824 105.074 84.8404 104.807 84.5256 104.612C84.214 104.416 83.8461 104.318 83.4219 104.318C82.9545 104.318 82.5502 104.434 82.2088 104.666C81.8707 104.895 81.6106 105.193 81.4283 105.561C81.246 105.929 81.1548 106.323 81.1548 106.744V107.42C81.1548 107.997 81.2543 108.486 81.4531 108.887C81.6553 109.285 81.9354 109.588 82.2933 109.797C82.6513 110.002 83.0672 110.105 83.5412 110.105C83.8494 110.105 84.1278 110.062 84.3764 109.976C84.6283 109.886 84.8454 109.754 85.0277 109.578C85.21 109.399 85.3509 109.177 85.4503 108.912L86.5838 109.23C86.4645 109.615 86.264 109.953 85.9822 110.244C85.7005 110.533 85.3525 110.758 84.9382 110.92C84.5239 111.08 84.0582 111.159 83.5412 111.159ZM90.218 111L87.8913 103.364H89.1243L90.7749 109.21H90.8544L92.4851 103.364H93.7379L95.3487 109.19H95.4283L97.0788 103.364H98.3118L95.9851 111H94.8317L93.1612 105.134H93.0419L91.3714 111H90.218ZM104.675 107.878V103.364H105.849V111H104.675V109.707H104.596C104.417 110.095 104.138 110.425 103.761 110.697C103.383 110.965 102.906 111.099 102.329 111.099C101.852 111.099 101.427 110.995 101.056 110.786C100.685 110.574 100.393 110.256 100.181 109.832C99.969 109.404 99.8629 108.866 99.8629 108.216V103.364H101.036V108.136C101.036 108.693 101.192 109.137 101.504 109.469C101.818 109.8 102.219 109.966 102.707 109.966C102.998 109.966 103.295 109.891 103.597 109.742C103.902 109.593 104.157 109.364 104.362 109.056C104.571 108.748 104.675 108.355 104.675 107.878ZM107.998 103.364H109.171V111.557C109.171 112.027 109.09 112.435 108.927 112.78C108.768 113.125 108.526 113.391 108.202 113.58C107.88 113.769 107.474 113.864 106.983 113.864C106.944 113.864 106.904 113.864 106.864 113.864C106.824 113.864 106.785 113.864 106.745 113.864V112.77C106.785 112.77 106.821 112.77 106.854 112.77C106.887 112.77 106.924 112.77 106.964 112.77C107.322 112.77 107.583 112.664 107.749 112.452C107.915 112.243 107.998 111.945 107.998 111.557V103.364ZM108.574 102.091C108.346 102.091 108.148 102.013 107.983 101.857C107.82 101.701 107.739 101.514 107.739 101.295C107.739 101.077 107.82 100.889 107.983 100.734C108.148 100.578 108.346 100.5 108.574 100.5C108.803 100.5 108.999 100.578 109.161 100.734C109.327 100.889 109.41 101.077 109.41 101.295C109.41 101.514 109.327 101.701 109.161 101.857C108.999 102.013 108.803 102.091 108.574 102.091ZM116.132 107.878V103.364H117.306V111H116.132V109.707H116.053C115.874 110.095 115.596 110.425 115.218 110.697C114.84 110.965 114.363 111.099 113.786 111.099C113.309 111.099 112.884 110.995 112.513 110.786C112.142 110.574 111.85 110.256 111.638 109.832C111.426 109.404 111.32 108.866 111.32 108.216V103.364H112.493V108.136C112.493 108.693 112.649 109.137 112.961 109.469C113.275 109.8 113.676 109.966 114.164 109.966C114.455 109.966 114.752 109.891 115.054 109.742C115.359 109.593 115.614 109.364 115.819 109.056C116.028 108.748 116.132 108.355 116.132 107.878ZM122.338 111.159C121.702 111.159 121.14 110.998 120.653 110.677C120.166 110.352 119.785 109.895 119.509 109.305C119.234 108.711 119.097 108.01 119.097 107.202C119.097 106.4 119.234 105.704 119.509 105.114C119.785 104.524 120.167 104.068 120.658 103.746C121.148 103.425 121.715 103.264 122.358 103.264C122.855 103.264 123.248 103.347 123.536 103.513C123.828 103.675 124.05 103.861 124.203 104.07C124.358 104.275 124.479 104.444 124.566 104.577H124.665V100.818H125.838V111H124.705V109.827H124.566C124.479 109.966 124.357 110.142 124.198 110.354C124.039 110.562 123.811 110.75 123.517 110.915C123.222 111.078 122.829 111.159 122.338 111.159ZM122.497 110.105C122.968 110.105 123.366 109.982 123.691 109.737C124.015 109.489 124.262 109.146 124.431 108.708C124.6 108.267 124.685 107.759 124.685 107.182C124.685 106.612 124.602 106.113 124.436 105.685C124.271 105.254 124.025 104.92 123.7 104.681C123.376 104.439 122.975 104.318 122.497 104.318C122 104.318 121.586 104.446 121.254 104.701C120.926 104.953 120.679 105.296 120.514 105.73C120.351 106.161 120.27 106.645 120.27 107.182C120.27 107.725 120.353 108.219 120.519 108.663C120.688 109.104 120.936 109.455 121.264 109.717C121.596 109.976 122.007 110.105 122.497 110.105ZM129.244 108.216L129.224 106.764H129.463L132.803 103.364H134.255L130.695 106.963H130.596L129.244 108.216ZM128.15 111V100.818H129.323V111H128.15ZM133.002 111L130.019 107.222L130.855 106.406L134.494 111H133.002ZM138.012 111.179C137.529 111.179 137.089 111.088 136.695 110.906C136.301 110.72 135.987 110.453 135.755 110.105C135.523 109.754 135.407 109.33 135.407 108.832C135.407 108.395 135.493 108.04 135.666 107.768C135.838 107.493 136.069 107.278 136.357 107.122C136.645 106.966 136.963 106.85 137.311 106.774C137.663 106.695 138.016 106.632 138.37 106.585C138.834 106.526 139.211 106.481 139.499 106.451C139.791 106.418 140.003 106.363 140.135 106.287C140.271 106.211 140.339 106.078 140.339 105.889V105.849C140.339 105.359 140.205 104.978 139.936 104.706C139.671 104.434 139.269 104.298 138.728 104.298C138.168 104.298 137.729 104.421 137.411 104.666C137.093 104.911 136.869 105.173 136.74 105.452L135.626 105.054C135.825 104.59 136.09 104.229 136.422 103.97C136.756 103.708 137.121 103.526 137.515 103.423C137.913 103.317 138.304 103.264 138.689 103.264C138.934 103.264 139.216 103.294 139.534 103.354C139.855 103.41 140.165 103.528 140.463 103.707C140.765 103.886 141.015 104.156 141.214 104.517C141.413 104.878 141.512 105.362 141.512 105.969V111H140.339V109.966H140.279C140.2 110.132 140.067 110.309 139.882 110.498C139.696 110.687 139.449 110.848 139.141 110.98C138.833 111.113 138.457 111.179 138.012 111.179ZM138.191 110.125C138.655 110.125 139.047 110.034 139.365 109.852C139.686 109.669 139.928 109.434 140.091 109.146C140.256 108.857 140.339 108.554 140.339 108.236V107.162C140.289 107.222 140.18 107.276 140.011 107.326C139.845 107.372 139.653 107.414 139.434 107.45C139.219 107.483 139.008 107.513 138.803 107.54C138.601 107.563 138.437 107.583 138.311 107.599C138.006 107.639 137.721 107.704 137.456 107.793C137.194 107.879 136.982 108.01 136.819 108.186C136.66 108.358 136.581 108.594 136.581 108.892C136.581 109.3 136.731 109.608 137.033 109.817C137.338 110.022 137.724 110.125 138.191 110.125ZM144.827 106.406V111H143.654V103.364H144.787V104.557H144.887C145.066 104.169 145.338 103.857 145.702 103.622C146.067 103.384 146.537 103.264 147.114 103.264C147.631 103.264 148.084 103.37 148.471 103.582C148.859 103.791 149.161 104.109 149.376 104.537C149.592 104.961 149.699 105.498 149.699 106.148V111H148.526V106.227C148.526 105.627 148.37 105.16 148.059 104.825C147.747 104.487 147.32 104.318 146.776 104.318C146.402 104.318 146.067 104.399 145.772 104.562C145.48 104.724 145.25 104.961 145.081 105.273C144.912 105.584 144.827 105.962 144.827 106.406ZM30.3949 127.364V128.358H26.4375V127.364H30.3949ZM27.5909 125.534H28.7642V132.812C28.7642 133.144 28.8123 133.393 28.9084 133.558C29.0078 133.721 29.1338 133.83 29.2862 133.886C29.442 133.939 29.6061 133.966 29.7784 133.966C29.9077 133.966 30.0137 133.959 30.0966 133.946C30.1795 133.929 30.2457 133.916 30.2955 133.906L30.5341 134.96C30.4545 134.99 30.3435 135.02 30.201 135.05C30.0585 135.083 29.8778 135.099 29.6591 135.099C29.3277 135.099 29.0028 135.028 28.6847 134.886C28.3698 134.743 28.108 134.526 27.8991 134.234C27.6937 133.943 27.5909 133.575 27.5909 133.131V125.534ZM34.407 135.179C33.9231 135.179 33.4839 135.088 33.0895 134.906C32.6951 134.72 32.3819 134.453 32.1499 134.105C31.9179 133.754 31.8018 133.33 31.8018 132.832C31.8018 132.395 31.888 132.04 32.0604 131.768C32.2327 131.493 32.4631 131.278 32.7514 131.122C33.0398 130.966 33.358 130.85 33.706 130.774C34.0573 130.695 34.4103 130.632 34.7649 130.585C35.2289 130.526 35.6051 130.481 35.8935 130.451C36.1851 130.418 36.3973 130.363 36.5298 130.287C36.6657 130.211 36.7337 130.078 36.7337 129.889V129.849C36.7337 129.359 36.5994 128.978 36.331 128.706C36.0658 128.434 35.6631 128.298 35.1229 128.298C34.5627 128.298 34.1236 128.421 33.8054 128.666C33.4872 128.911 33.2635 129.173 33.1342 129.452L32.0206 129.054C32.2195 128.59 32.4846 128.229 32.8161 127.97C33.1508 127.708 33.5154 127.526 33.9098 127.423C34.3075 127.317 34.6986 127.264 35.0831 127.264C35.3284 127.264 35.6101 127.294 35.9283 127.354C36.2498 127.41 36.5597 127.528 36.858 127.707C37.1596 127.886 37.4098 128.156 37.6087 128.517C37.8075 128.878 37.907 129.362 37.907 129.969V135H36.7337V133.966H36.674C36.5945 134.132 36.4619 134.309 36.2763 134.498C36.0907 134.687 35.8438 134.848 35.5355 134.98C35.2273 135.113 34.8511 135.179 34.407 135.179ZM34.5859 134.125C35.05 134.125 35.4411 134.034 35.7592 133.852C36.0807 133.669 36.3227 133.434 36.4851 133.146C36.6508 132.857 36.7337 132.554 36.7337 132.236V131.162C36.6839 131.222 36.5746 131.276 36.4055 131.326C36.2398 131.372 36.0476 131.414 35.8288 131.45C35.6134 131.483 35.4029 131.513 35.1974 131.54C34.9953 131.563 34.8312 131.583 34.7053 131.599C34.4003 131.639 34.1153 131.704 33.8501 131.793C33.5883 131.879 33.3762 132.01 33.2138 132.186C33.0547 132.358 32.9751 132.594 32.9751 132.892C32.9751 133.3 33.1259 133.608 33.4276 133.817C33.7325 134.022 34.1186 134.125 34.5859 134.125ZM40.0485 135V127.364H41.182V128.517H41.2615C41.4007 128.139 41.6526 127.833 42.0172 127.597C42.3818 127.362 42.7928 127.244 43.2502 127.244C43.3364 127.244 43.4441 127.246 43.5733 127.249C43.7026 127.253 43.8004 127.258 43.8667 127.264V128.457C43.8269 128.447 43.7357 128.433 43.5932 128.413C43.454 128.389 43.3065 128.378 43.1507 128.378C42.7795 128.378 42.4481 128.456 42.1564 128.612C41.8681 128.764 41.6394 128.976 41.4703 129.248C41.3046 129.516 41.2218 129.823 41.2218 130.168V135H40.0485ZM48.1074 138.023C47.5407 138.023 47.0534 137.95 46.6458 137.804C46.2381 137.661 45.8984 137.473 45.6266 137.237C45.3581 137.005 45.1444 136.757 44.9853 136.491L45.9199 135.835C46.026 135.974 46.1602 136.134 46.3226 136.312C46.485 136.495 46.7071 136.652 46.9888 136.785C47.2739 136.921 47.6467 136.989 48.1074 136.989C48.7239 136.989 49.2327 136.839 49.6337 136.541C50.0347 136.243 50.2353 135.776 50.2353 135.139V133.588H50.1358C50.0497 133.727 49.927 133.9 49.7679 134.105C49.6122 134.307 49.3868 134.488 49.0918 134.647C48.8001 134.803 48.4057 134.881 47.9086 134.881C47.2921 134.881 46.7386 134.735 46.248 134.443C45.7608 134.152 45.3747 133.727 45.0897 133.17C44.8079 132.614 44.6671 131.937 44.6671 131.142C44.6671 130.36 44.8046 129.679 45.0797 129.099C45.3548 128.515 45.7376 128.065 46.2282 127.746C46.7187 127.425 47.2855 127.264 47.9284 127.264C48.4256 127.264 48.82 127.347 49.1117 127.513C49.4067 127.675 49.632 127.861 49.7878 128.07C49.9469 128.275 50.0695 128.444 50.1557 128.577H50.275V127.364H51.4086V135.219C51.4086 135.875 51.2594 136.409 50.9611 136.82C50.6661 137.234 50.2684 137.537 49.7679 137.729C49.2708 137.925 48.7173 138.023 48.1074 138.023ZM48.0676 133.827C48.5383 133.827 48.936 133.719 49.2608 133.504C49.5856 133.288 49.8326 132.978 50.0016 132.574C50.1706 132.17 50.2551 131.686 50.2551 131.122C50.2551 130.572 50.1723 130.086 50.0066 129.665C49.8409 129.245 49.5956 128.915 49.2708 128.676C48.946 128.437 48.5449 128.318 48.0676 128.318C47.5705 128.318 47.1562 128.444 46.8248 128.696C46.4966 128.948 46.2497 129.286 46.084 129.71C45.9216 130.134 45.8404 130.605 45.8404 131.122C45.8404 131.652 45.9232 132.121 46.089 132.529C46.258 132.933 46.5066 133.252 46.8347 133.484C47.1661 133.712 47.5771 133.827 48.0676 133.827ZM56.758 135.159C56.0222 135.159 55.3875 134.997 54.8539 134.672C54.3236 134.344 53.9142 133.886 53.6259 133.3C53.3408 132.71 53.1983 132.024 53.1983 131.241C53.1983 130.459 53.3408 129.77 53.6259 129.173C53.9142 128.573 54.3153 128.106 54.829 127.771C55.3461 127.433 55.9493 127.264 56.6387 127.264C57.0364 127.264 57.4292 127.33 57.8169 127.463C58.2047 127.596 58.5577 127.811 58.8759 128.109C59.1941 128.404 59.4476 128.795 59.6365 129.283C59.8255 129.77 59.9199 130.37 59.9199 131.082V131.58H54.0336V130.565H58.7267C58.7267 130.134 58.6406 129.75 58.4682 129.412C58.2992 129.074 58.0572 128.807 57.7424 128.612C57.4308 128.416 57.0629 128.318 56.6387 128.318C56.1713 128.318 55.767 128.434 55.4256 128.666C55.0875 128.895 54.8274 129.193 54.6451 129.561C54.4628 129.929 54.3716 130.323 54.3716 130.744V131.42C54.3716 131.997 54.4711 132.486 54.6699 132.887C54.8721 133.285 55.1522 133.588 55.5101 133.797C55.8681 134.002 56.284 134.105 56.758 134.105C57.0662 134.105 57.3446 134.062 57.5932 133.976C57.8451 133.886 58.0622 133.754 58.2445 133.578C58.4268 133.399 58.5676 133.177 58.6671 132.912L59.8006 133.23C59.6813 133.615 59.4808 133.953 59.199 134.244C58.9173 134.533 58.5693 134.758 58.155 134.92C57.7407 135.08 57.275 135.159 56.758 135.159ZM65.0257 127.364V128.358H61.0684V127.364H65.0257ZM62.2218 125.534H63.3951V132.812C63.3951 133.144 63.4431 133.393 63.5392 133.558C63.6387 133.721 63.7646 133.83 63.9171 133.886C64.0729 133.939 64.2369 133.966 64.4093 133.966C64.5385 133.966 64.6446 133.959 64.7275 133.946C64.8103 133.929 64.8766 133.916 64.9263 133.906L65.165 134.96C65.0854 134.99 64.9744 135.02 64.8319 135.05C64.6893 135.083 64.5087 135.099 64.29 135.099C63.9585 135.099 63.6337 135.028 63.3155 134.886C63.0007 134.743 62.7388 134.526 62.53 134.234C62.3245 133.943 62.2218 133.575 62.2218 133.131V125.534ZM70.7282 137.864V127.364H71.8617V128.577H72.0009C72.0871 128.444 72.2064 128.275 72.3588 128.07C72.5146 127.861 72.7367 127.675 73.025 127.513C73.3167 127.347 73.7111 127.264 74.2083 127.264C74.8513 127.264 75.418 127.425 75.9086 127.746C76.3991 128.068 76.7819 128.524 77.057 129.114C77.3321 129.704 77.4696 130.4 77.4696 131.202C77.4696 132.01 77.3321 132.711 77.057 133.305C76.7819 133.895 76.4007 134.352 75.9135 134.677C75.4263 134.998 74.8645 135.159 74.2282 135.159C73.7376 135.159 73.3449 135.078 73.0499 134.915C72.7549 134.75 72.5279 134.562 72.3688 134.354C72.2097 134.142 72.0871 133.966 72.0009 133.827H71.9015V137.864H70.7282ZM71.8816 131.182C71.8816 131.759 71.9661 132.267 72.1351 132.708C72.3042 133.146 72.5511 133.489 72.8759 133.737C73.2007 133.982 73.5984 134.105 74.0691 134.105C74.5596 134.105 74.9689 133.976 75.2971 133.717C75.6285 133.455 75.8771 133.104 76.0428 132.663C76.2118 132.219 76.2963 131.725 76.2963 131.182C76.2963 130.645 76.2135 130.161 76.0478 129.73C75.8854 129.296 75.6384 128.953 75.307 128.701C74.9789 128.446 74.5662 128.318 74.0691 128.318C73.5918 128.318 73.1908 128.439 72.8659 128.681C72.5411 128.92 72.2959 129.254 72.1301 129.685C71.9644 130.113 71.8816 130.612 71.8816 131.182ZM82.4611 135.159C81.7253 135.159 81.0906 134.997 80.557 134.672C80.0267 134.344 79.6174 133.886 79.329 133.3C79.044 132.71 78.9015 132.024 78.9015 131.241C78.9015 130.459 79.044 129.77 79.329 129.173C79.6174 128.573 80.0184 128.106 80.5321 127.771C81.0492 127.433 81.6524 127.264 82.3418 127.264C82.7395 127.264 83.1323 127.33 83.5201 127.463C83.9078 127.596 84.2608 127.811 84.579 128.109C84.8972 128.404 85.1507 128.795 85.3397 129.283C85.5286 129.77 85.623 130.37 85.623 131.082V131.58H79.7367V130.565H84.4299C84.4299 130.134 84.3437 129.75 84.1713 129.412C84.0023 129.074 83.7604 128.807 83.4455 128.612C83.1339 128.416 82.766 128.318 82.3418 128.318C81.8745 128.318 81.4701 128.434 81.1287 128.666C80.7907 128.895 80.5305 129.193 80.3482 129.561C80.1659 129.929 80.0748 130.323 80.0748 130.744V131.42C80.0748 131.997 80.1742 132.486 80.373 132.887C80.5752 133.285 80.8553 133.588 81.2132 133.797C81.5712 134.002 81.9872 134.105 82.4611 134.105C82.7694 134.105 83.0478 134.062 83.2963 133.976C83.5482 133.886 83.7653 133.754 83.9476 133.578C84.1299 133.399 84.2708 133.177 84.3702 132.912L85.5037 133.23C85.3844 133.615 85.1839 133.953 84.9022 134.244C84.6204 134.533 84.2724 134.758 83.8581 134.92C83.4438 135.08 82.9782 135.159 82.4611 135.159ZM87.4078 135V127.364H88.5414V128.557H88.6408C88.7999 128.149 89.0568 127.833 89.4114 127.607C89.766 127.379 90.1919 127.264 90.6891 127.264C91.1929 127.264 91.6122 127.379 91.9469 127.607C92.285 127.833 92.5485 128.149 92.7374 128.557H92.8169C93.0125 128.162 93.3058 127.849 93.6969 127.617C94.088 127.382 94.557 127.264 95.1039 127.264C95.7866 127.264 96.3451 127.478 96.7793 127.906C97.2135 128.33 97.4306 128.991 97.4306 129.889V135H96.2573V129.889C96.2573 129.326 96.1032 128.923 95.7949 128.681C95.4867 128.439 95.1238 128.318 94.7061 128.318C94.1692 128.318 93.7533 128.481 93.4583 128.805C93.1633 129.127 93.0158 129.535 93.0158 130.028V135H91.8226V129.77C91.8226 129.336 91.6818 128.986 91.4 128.721C91.1183 128.452 90.7554 128.318 90.3113 128.318C90.0063 128.318 89.7213 128.399 89.4561 128.562C89.1943 128.724 88.9822 128.95 88.8198 129.238C88.6607 129.523 88.5811 129.853 88.5811 130.227V135H87.4078ZM101.823 135.179C101.339 135.179 100.9 135.088 100.506 134.906C100.111 134.72 99.7979 134.453 99.5659 134.105C99.3339 133.754 99.2179 133.33 99.2179 132.832C99.2179 132.395 99.304 132.04 99.4764 131.768C99.6487 131.493 99.8791 131.278 100.167 131.122C100.456 130.966 100.774 130.85 101.122 130.774C101.473 130.695 101.826 130.632 102.181 130.585C102.645 130.526 103.021 130.481 103.309 130.451C103.601 130.418 103.813 130.363 103.946 130.287C104.082 130.211 104.15 130.078 104.15 129.889V129.849C104.15 129.359 104.015 128.978 103.747 128.706C103.482 128.434 103.079 128.298 102.539 128.298C101.979 128.298 101.54 128.421 101.221 128.666C100.903 128.911 100.68 129.173 100.55 129.452L99.4366 129.054C99.6355 128.59 99.9006 128.229 100.232 127.97C100.567 127.708 100.931 127.526 101.326 127.423C101.724 127.317 102.115 127.264 102.499 127.264C102.744 127.264 103.026 127.294 103.344 127.354C103.666 127.41 103.976 127.528 104.274 127.707C104.576 127.886 104.826 128.156 105.025 128.517C105.224 128.878 105.323 129.362 105.323 129.969V135H104.15V133.966H104.09C104.01 134.132 103.878 134.309 103.692 134.498C103.507 134.687 103.26 134.848 102.952 134.98C102.643 135.113 102.267 135.179 101.823 135.179ZM102.002 134.125C102.466 134.125 102.857 134.034 103.175 133.852C103.497 133.669 103.739 133.434 103.901 133.146C104.067 132.857 104.15 132.554 104.15 132.236V131.162C104.1 131.222 103.991 131.276 103.822 131.326C103.656 131.372 103.464 131.414 103.245 131.45C103.029 131.483 102.819 131.513 102.613 131.54C102.411 131.563 102.247 131.583 102.121 131.599C101.816 131.639 101.531 131.704 101.266 131.793C101.004 131.879 100.792 132.01 100.63 132.186C100.471 132.358 100.391 132.594 100.391 132.892C100.391 133.3 100.542 133.608 100.844 133.817C101.148 134.022 101.535 134.125 102.002 134.125ZM112.874 129.074L111.82 129.372C111.753 129.196 111.656 129.026 111.526 128.86C111.4 128.691 111.228 128.552 111.009 128.442C110.79 128.333 110.51 128.278 110.169 128.278C109.702 128.278 109.312 128.386 109.001 128.602C108.692 128.814 108.538 129.084 108.538 129.412C108.538 129.704 108.644 129.934 108.857 130.103C109.069 130.272 109.4 130.413 109.851 130.526L110.984 130.804C111.667 130.97 112.176 131.223 112.511 131.565C112.845 131.903 113.013 132.339 113.013 132.872C113.013 133.31 112.887 133.701 112.635 134.045C112.386 134.39 112.038 134.662 111.591 134.861C111.143 135.06 110.623 135.159 110.03 135.159C109.251 135.159 108.606 134.99 108.096 134.652C107.585 134.314 107.262 133.82 107.126 133.17L108.24 132.892C108.346 133.303 108.547 133.611 108.842 133.817C109.14 134.022 109.529 134.125 110.01 134.125C110.557 134.125 110.991 134.009 111.312 133.777C111.637 133.542 111.8 133.26 111.8 132.932C111.8 132.667 111.707 132.445 111.521 132.266C111.336 132.083 111.051 131.947 110.666 131.858L109.393 131.56C108.694 131.394 108.18 131.137 107.852 130.789C107.527 130.438 107.365 129.999 107.365 129.472C107.365 129.041 107.486 128.66 107.728 128.328C107.973 127.997 108.306 127.737 108.727 127.548C109.152 127.359 109.632 127.264 110.169 127.264C110.925 127.264 111.518 127.43 111.949 127.761C112.383 128.093 112.691 128.53 112.874 129.074ZM117.026 135.179C116.542 135.179 116.103 135.088 115.709 134.906C115.314 134.72 115.001 134.453 114.769 134.105C114.537 133.754 114.421 133.33 114.421 132.832C114.421 132.395 114.507 132.04 114.68 131.768C114.852 131.493 115.082 131.278 115.371 131.122C115.659 130.966 115.977 130.85 116.325 130.774C116.676 130.695 117.029 130.632 117.384 130.585C117.848 130.526 118.224 130.481 118.513 130.451C118.804 130.418 119.016 130.363 119.149 130.287C119.285 130.211 119.353 130.078 119.353 129.889V129.849C119.353 129.359 119.219 128.978 118.95 128.706C118.685 128.434 118.282 128.298 117.742 128.298C117.182 128.298 116.743 128.421 116.425 128.666C116.106 128.911 115.883 129.173 115.753 129.452L114.64 129.054C114.839 128.59 115.104 128.229 115.435 127.97C115.77 127.708 116.135 127.526 116.529 127.423C116.927 127.317 117.318 127.264 117.702 127.264C117.948 127.264 118.229 127.294 118.547 127.354C118.869 127.41 119.179 127.528 119.477 127.707C119.779 127.886 120.029 128.156 120.228 128.517C120.427 128.878 120.526 129.362 120.526 129.969V135H119.353V133.966H119.293C119.214 134.132 119.081 134.309 118.895 134.498C118.71 134.687 118.463 134.848 118.155 134.98C117.846 135.113 117.47 135.179 117.026 135.179ZM117.205 134.125C117.669 134.125 118.06 134.034 118.378 133.852C118.7 133.669 118.942 133.434 119.104 133.146C119.27 132.857 119.353 132.554 119.353 132.236V131.162C119.303 131.222 119.194 131.276 119.025 131.326C118.859 131.372 118.667 131.414 118.448 131.45C118.233 131.483 118.022 131.513 117.817 131.54C117.614 131.563 117.45 131.583 117.324 131.599C117.019 131.639 116.734 131.704 116.469 131.793C116.207 131.879 115.995 132.01 115.833 132.186C115.674 132.358 115.594 132.594 115.594 132.892C115.594 133.3 115.745 133.608 116.047 133.817C116.352 134.022 116.738 134.125 117.205 134.125ZM122.668 135V127.364H123.801V128.517H123.881C124.02 128.139 124.272 127.833 124.636 127.597C125.001 127.362 125.412 127.244 125.869 127.244C125.955 127.244 126.063 127.246 126.192 127.249C126.322 127.253 126.42 127.258 126.486 127.264V128.457C126.446 128.447 126.355 128.433 126.212 128.413C126.073 128.389 125.926 128.378 125.77 128.378C125.399 128.378 125.067 128.456 124.776 128.612C124.487 128.764 124.259 128.976 124.089 129.248C123.924 129.516 123.841 129.823 123.841 130.168V135H122.668ZM130.124 135.179C129.64 135.179 129.201 135.088 128.806 134.906C128.412 134.72 128.099 134.453 127.867 134.105C127.635 133.754 127.519 133.33 127.519 132.832C127.519 132.395 127.605 132.04 127.777 131.768C127.95 131.493 128.18 131.278 128.468 131.122C128.757 130.966 129.075 130.85 129.423 130.774C129.774 130.695 130.127 130.632 130.482 130.585C130.946 130.526 131.322 130.481 131.61 130.451C131.902 130.418 132.114 130.363 132.247 130.287C132.383 130.211 132.45 130.078 132.45 129.889V129.849C132.45 129.359 132.316 128.978 132.048 128.706C131.783 128.434 131.38 128.298 130.84 128.298C130.28 128.298 129.84 128.421 129.522 128.666C129.204 128.911 128.98 129.173 128.851 129.452L127.737 129.054C127.936 128.59 128.201 128.229 128.533 127.97C128.868 127.708 129.232 127.526 129.627 127.423C130.024 127.317 130.415 127.264 130.8 127.264C131.045 127.264 131.327 127.294 131.645 127.354C131.967 127.41 132.276 127.528 132.575 127.707C132.876 127.886 133.127 128.156 133.325 128.517C133.524 128.878 133.624 129.362 133.624 129.969V135H132.45V133.966H132.391C132.311 134.132 132.179 134.309 131.993 134.498C131.807 134.687 131.561 134.848 131.252 134.98C130.944 135.113 130.568 135.179 130.124 135.179ZM130.303 134.125C130.767 134.125 131.158 134.034 131.476 133.852C131.798 133.669 132.039 133.434 132.202 133.146C132.368 132.857 132.45 132.554 132.45 132.236V131.162C132.401 131.222 132.291 131.276 132.122 131.326C131.957 131.372 131.764 131.414 131.546 131.45C131.33 131.483 131.12 131.513 130.914 131.54C130.712 131.563 130.548 131.583 130.422 131.599C130.117 131.639 129.832 131.704 129.567 131.793C129.305 131.879 129.093 132.01 128.931 132.186C128.771 132.358 128.692 132.594 128.692 132.892C128.692 133.3 128.843 133.608 129.144 133.817C129.449 134.022 129.835 134.125 130.303 134.125ZM136.939 130.406V135H135.765V127.364H136.899V128.557H136.998C137.177 128.169 137.449 127.857 137.814 127.622C138.178 127.384 138.649 127.264 139.225 127.264C139.743 127.264 140.195 127.37 140.583 127.582C140.971 127.791 141.272 128.109 141.488 128.537C141.703 128.961 141.811 129.498 141.811 130.148V135H140.637V130.227C140.637 129.627 140.482 129.16 140.17 128.825C139.859 128.487 139.431 128.318 138.887 128.318C138.513 128.318 138.178 128.399 137.883 128.562C137.592 128.724 137.361 128.961 137.192 129.273C137.023 129.584 136.939 129.962 136.939 130.406ZM148.648 137.864C148.449 137.864 148.272 137.847 148.116 137.814C147.96 137.784 147.852 137.754 147.793 137.724L148.091 136.69C148.376 136.763 148.628 136.79 148.847 136.77C149.066 136.75 149.259 136.652 149.428 136.477C149.601 136.304 149.758 136.024 149.901 135.636L150.119 135.04L147.296 127.364H148.568L150.676 133.449H150.756L152.864 127.364H154.137L150.895 136.114C150.749 136.508 150.569 136.835 150.353 137.093C150.138 137.355 149.887 137.549 149.602 137.675C149.321 137.801 149.003 137.864 148.648 137.864ZM157.7 135.179C157.216 135.179 156.777 135.088 156.382 134.906C155.988 134.72 155.675 134.453 155.443 134.105C155.211 133.754 155.095 133.33 155.095 132.832C155.095 132.395 155.181 132.04 155.353 131.768C155.526 131.493 155.756 131.278 156.044 131.122C156.333 130.966 156.651 130.85 156.999 130.774C157.35 130.695 157.703 130.632 158.058 130.585C158.522 130.526 158.898 130.481 159.186 130.451C159.478 130.418 159.69 130.363 159.823 130.287C159.959 130.211 160.027 130.078 160.027 129.889V129.849C160.027 129.359 159.892 128.978 159.624 128.706C159.359 128.434 158.956 128.298 158.416 128.298C157.856 128.298 157.417 128.421 157.098 128.666C156.78 128.911 156.556 129.173 156.427 129.452L155.314 129.054C155.512 128.59 155.778 128.229 156.109 127.97C156.444 127.708 156.808 127.526 157.203 127.423C157.6 127.317 157.992 127.264 158.376 127.264C158.621 127.264 158.903 127.294 159.221 127.354C159.543 127.41 159.853 127.528 160.151 127.707C160.453 127.886 160.703 128.156 160.902 128.517C161.1 128.878 161.2 129.362 161.2 129.969V135H160.027V133.966H159.967C159.887 134.132 159.755 134.309 159.569 134.498C159.384 134.687 159.137 134.848 158.828 134.98C158.52 135.113 158.144 135.179 157.7 135.179ZM157.879 134.125C158.343 134.125 158.734 134.034 159.052 133.852C159.374 133.669 159.616 133.434 159.778 133.146C159.944 132.857 160.027 132.554 160.027 132.236V131.162C159.977 131.222 159.868 131.276 159.699 131.326C159.533 131.372 159.341 131.414 159.122 131.45C158.906 131.483 158.696 131.513 158.49 131.54C158.288 131.563 158.124 131.583 157.998 131.599C157.693 131.639 157.408 131.704 157.143 131.793C156.881 131.879 156.669 132.01 156.507 132.186C156.348 132.358 156.268 132.594 156.268 132.892C156.268 133.3 156.419 133.608 156.721 133.817C157.025 134.022 157.412 134.125 157.879 134.125ZM164.515 130.406V135H163.341V127.364H164.475V128.557H164.574C164.753 128.169 165.025 127.857 165.39 127.622C165.754 127.384 166.225 127.264 166.802 127.264C167.319 127.264 167.771 127.37 168.159 127.582C168.547 127.791 168.848 128.109 169.064 128.537C169.279 128.961 169.387 129.498 169.387 130.148V135H168.214V130.227C168.214 129.627 168.058 129.16 167.746 128.825C167.435 128.487 167.007 128.318 166.464 128.318C166.089 128.318 165.754 128.399 165.459 128.562C165.168 128.724 164.937 128.961 164.768 129.273C164.599 129.584 164.515 129.962 164.515 130.406ZM174.613 138.023C174.047 138.023 173.559 137.95 173.152 137.804C172.744 137.661 172.404 137.473 172.132 137.237C171.864 137.005 171.65 136.757 171.491 136.491L172.426 135.835C172.532 135.974 172.666 136.134 172.828 136.312C172.991 136.495 173.213 136.652 173.495 136.785C173.78 136.921 174.153 136.989 174.613 136.989C175.23 136.989 175.739 136.839 176.14 136.541C176.541 136.243 176.741 135.776 176.741 135.139V133.588H176.642C176.556 133.727 176.433 133.9 176.274 134.105C176.118 134.307 175.893 134.488 175.598 134.647C175.306 134.803 174.912 134.881 174.414 134.881C173.798 134.881 173.244 134.735 172.754 134.443C172.267 134.152 171.881 133.727 171.596 133.17C171.314 132.614 171.173 131.937 171.173 131.142C171.173 130.36 171.31 129.679 171.586 129.099C171.861 128.515 172.243 128.065 172.734 127.746C173.225 127.425 173.791 127.264 174.434 127.264C174.931 127.264 175.326 127.347 175.618 127.513C175.913 127.675 176.138 127.861 176.294 128.07C176.453 128.275 176.575 128.444 176.662 128.577H176.781V127.364H177.914V135.219C177.914 135.875 177.765 136.409 177.467 136.82C177.172 137.234 176.774 137.537 176.274 137.729C175.777 137.925 175.223 138.023 174.613 138.023ZM174.574 133.827C175.044 133.827 175.442 133.719 175.767 133.504C176.092 133.288 176.338 132.978 176.507 132.574C176.676 132.17 176.761 131.686 176.761 131.122C176.761 130.572 176.678 130.086 176.512 129.665C176.347 129.245 176.101 128.915 175.777 128.676C175.452 128.437 175.051 128.318 174.574 128.318C174.076 128.318 173.662 128.444 173.331 128.696C173.002 128.948 172.756 129.286 172.59 129.71C172.427 130.134 172.346 130.605 172.346 131.122C172.346 131.652 172.429 132.121 172.595 132.529C172.764 132.933 173.012 133.252 173.341 133.484C173.672 133.712 174.083 133.827 174.574 133.827ZM29.9574 159.159C29.321 159.159 28.7592 158.998 28.272 158.677C27.7848 158.352 27.4036 157.895 27.1286 157.305C26.8535 156.711 26.7159 156.01 26.7159 155.202C26.7159 154.4 26.8535 153.704 27.1286 153.114C27.4036 152.524 27.7865 152.068 28.277 151.746C28.7675 151.425 29.3343 151.264 29.9773 151.264C30.4744 151.264 30.8672 151.347 31.1555 151.513C31.4472 151.675 31.6693 151.861 31.8217 152.07C31.9775 152.275 32.0985 152.444 32.1847 152.577H32.2841V148.818H33.4574V159H32.3239V157.827H32.1847C32.0985 157.966 31.9759 158.142 31.8168 158.354C31.6577 158.562 31.4306 158.75 31.1357 158.915C30.8407 159.078 30.4479 159.159 29.9574 159.159ZM30.1165 158.105C30.5871 158.105 30.9848 157.982 31.3097 157.737C31.6345 157.489 31.8814 157.146 32.0504 156.708C32.2195 156.267 32.304 155.759 32.304 155.182C32.304 154.612 32.2211 154.113 32.0554 153.685C31.8897 153.254 31.6444 152.92 31.3196 152.681C30.9948 152.439 30.5938 152.318 30.1165 152.318C29.6193 152.318 29.205 152.446 28.8736 152.701C28.5455 152.953 28.2985 153.296 28.1328 153.73C27.9704 154.161 27.8892 154.645 27.8892 155.182C27.8892 155.725 27.9721 156.219 28.1378 156.663C28.3068 157.104 28.5554 157.455 28.8835 157.717C29.215 157.976 29.6259 158.105 30.1165 158.105ZM35.7692 159V151.364H36.9425V159H35.7692ZM36.3658 150.091C36.1371 150.091 35.9399 150.013 35.7741 149.857C35.6117 149.701 35.5305 149.514 35.5305 149.295C35.5305 149.077 35.6117 148.889 35.7741 148.734C35.9399 148.578 36.1371 148.5 36.3658 148.5C36.5945 148.5 36.79 148.578 36.9524 148.734C37.1181 148.889 37.201 149.077 37.201 149.295C37.201 149.514 37.1181 149.701 36.9524 149.857C36.79 150.013 36.5945 150.091 36.3658 150.091ZM39.2505 159V148.818H40.4238V152.577H40.5233C40.6094 152.444 40.7288 152.275 40.8812 152.07C41.037 151.861 41.2591 151.675 41.5474 151.513C41.8391 151.347 42.2335 151.264 42.7306 151.264C43.3736 151.264 43.9404 151.425 44.4309 151.746C44.9215 152.068 45.3043 152.524 45.5794 153.114C45.8545 153.704 45.992 154.4 45.992 155.202C45.992 156.01 45.8545 156.711 45.5794 157.305C45.3043 157.895 44.9231 158.352 44.4359 158.677C43.9487 158.998 43.3869 159.159 42.7505 159.159C42.26 159.159 41.8672 159.078 41.5723 158.915C41.2773 158.75 41.0502 158.562 40.8912 158.354C40.7321 158.142 40.6094 157.966 40.5233 157.827H40.3841V159H39.2505ZM40.4039 155.182C40.4039 155.759 40.4885 156.267 40.6575 156.708C40.8265 157.146 41.0734 157.489 41.3983 157.737C41.7231 157.982 42.1208 158.105 42.5914 158.105C43.082 158.105 43.4913 157.976 43.8194 157.717C44.1509 157.455 44.3994 157.104 44.5652 156.663C44.7342 156.219 44.8187 155.725 44.8187 155.182C44.8187 154.645 44.7359 154.161 44.5701 153.73C44.4077 153.296 44.1608 152.953 43.8294 152.701C43.5012 152.446 43.0886 152.318 42.5914 152.318C42.1142 152.318 41.7131 152.439 41.3883 152.681C41.0635 152.92 40.8182 153.254 40.6525 153.685C40.4868 154.113 40.4039 154.612 40.4039 155.182ZM50.9885 159.159C50.2527 159.159 49.618 158.997 49.0843 158.672C48.554 158.344 48.1447 157.886 47.8564 157.3C47.5713 156.71 47.4288 156.024 47.4288 155.241C47.4288 154.459 47.5713 153.77 47.8564 153.173C48.1447 152.573 48.5458 152.106 49.0595 151.771C49.5765 151.433 50.1797 151.264 50.8691 151.264C51.2669 151.264 51.6596 151.33 52.0474 151.463C52.4352 151.596 52.7882 151.811 53.1064 152.109C53.4245 152.404 53.6781 152.795 53.867 153.283C54.0559 153.77 54.1504 154.37 54.1504 155.082V155.58H48.264V154.565H52.9572C52.9572 154.134 52.871 153.75 52.6987 153.412C52.5297 153.074 52.2877 152.807 51.9728 152.612C51.6613 152.416 51.2934 152.318 50.8691 152.318C50.4018 152.318 49.9975 152.434 49.6561 152.666C49.318 152.895 49.0578 153.193 48.8755 153.561C48.6932 153.929 48.6021 154.323 48.6021 154.744V155.42C48.6021 155.997 48.7015 156.486 48.9004 156.887C49.1026 157.285 49.3826 157.588 49.7406 157.797C50.0985 158.002 50.5145 158.105 50.9885 158.105C51.2967 158.105 51.5751 158.062 51.8237 157.976C52.0756 157.886 52.2927 157.754 52.475 157.578C52.6573 157.399 52.7981 157.177 52.8975 156.912L54.0311 157.23C53.9118 157.615 53.7112 157.953 53.4295 158.244C53.1478 158.533 52.7998 158.758 52.3855 158.92C51.9712 159.08 51.5055 159.159 50.9885 159.159ZM55.9352 159V151.364H57.0687V152.517H57.1483C57.2875 152.139 57.5394 151.833 57.9039 151.597C58.2685 151.362 58.6795 151.244 59.1369 151.244C59.2231 151.244 59.3308 151.246 59.46 151.249C59.5893 151.253 59.6871 151.258 59.7534 151.264V152.457C59.7136 152.447 59.6225 152.433 59.4799 152.413C59.3407 152.389 59.1932 152.378 59.0375 152.378C58.6663 152.378 58.3348 152.456 58.0431 152.612C57.7548 152.764 57.5261 152.976 57.3571 153.248C57.1913 153.516 57.1085 153.823 57.1085 154.168V159H55.9352ZM61.1442 159V151.364H62.3175V159H61.1442ZM61.7408 150.091C61.5121 150.091 61.3149 150.013 61.1491 149.857C60.9867 149.701 60.9055 149.514 60.9055 149.295C60.9055 149.077 60.9867 148.889 61.1491 148.734C61.3149 148.578 61.5121 148.5 61.7408 148.5C61.9695 148.5 62.165 148.578 62.3274 148.734C62.4931 148.889 62.576 149.077 62.576 149.295C62.576 149.514 62.4931 149.701 62.3274 149.857C62.165 150.013 61.9695 150.091 61.7408 150.091ZM65.5602 156.216L65.5403 154.764H65.7789L69.1199 151.364H70.5716L67.0119 154.963H66.9125L65.5602 156.216ZM64.4664 159V148.818H65.6397V159H64.4664ZM69.3187 159L66.3358 155.222L67.171 154.406L70.8102 159H69.3187ZM74.3288 159.179C73.8449 159.179 73.4058 159.088 73.0114 158.906C72.617 158.72 72.3037 158.453 72.0717 158.105C71.8397 157.754 71.7237 157.33 71.7237 156.832C71.7237 156.395 71.8099 156.04 71.9822 155.768C72.1546 155.493 72.3849 155.278 72.6733 155.122C72.9616 154.966 73.2798 154.85 73.6278 154.774C73.9792 154.695 74.3321 154.632 74.6868 154.585C75.1508 154.526 75.527 154.481 75.8153 154.451C76.107 154.418 76.3191 154.363 76.4517 154.287C76.5876 154.211 76.6555 154.078 76.6555 153.889V153.849C76.6555 153.359 76.5213 152.978 76.2528 152.706C75.9877 152.434 75.585 152.298 75.0447 152.298C74.4846 152.298 74.0455 152.421 73.7273 152.666C73.4091 152.911 73.1854 153.173 73.0561 153.452L71.9425 153.054C72.1413 152.59 72.4065 152.229 72.7379 151.97C73.0727 151.708 73.4373 151.526 73.8317 151.423C74.2294 151.317 74.6205 151.264 75.005 151.264C75.2502 151.264 75.532 151.294 75.8501 151.354C76.1716 151.41 76.4815 151.528 76.7798 151.707C77.0814 151.886 77.3317 152.156 77.5305 152.517C77.7294 152.878 77.8288 153.362 77.8288 153.969V159H76.6555V157.966H76.5959C76.5163 158.132 76.3838 158.309 76.1982 158.498C76.0125 158.687 75.7656 158.848 75.4574 158.98C75.1491 159.113 74.773 159.179 74.3288 159.179ZM74.5078 158.125C74.9718 158.125 75.3629 158.034 75.6811 157.852C76.0026 157.669 76.2446 157.434 76.407 157.146C76.5727 156.857 76.6555 156.554 76.6555 156.236V155.162C76.6058 155.222 76.4964 155.276 76.3274 155.326C76.1617 155.372 75.9695 155.414 75.7507 155.45C75.5353 155.483 75.3248 155.513 75.1193 155.54C74.9171 155.563 74.7531 155.583 74.6271 155.599C74.3222 155.639 74.0372 155.704 73.772 155.793C73.5102 155.879 73.2981 156.01 73.1357 156.186C72.9766 156.358 72.897 156.594 72.897 156.892C72.897 157.3 73.0478 157.608 73.3494 157.817C73.6544 158.022 74.0405 158.125 74.5078 158.125ZM81.1436 154.406V159H79.9703V151.364H81.1039V152.557H81.2033C81.3823 152.169 81.6541 151.857 82.0186 151.622C82.3832 151.384 82.8539 151.264 83.4306 151.264C83.9476 151.264 84.4 151.37 84.7878 151.582C85.1756 151.791 85.4772 152.109 85.6926 152.537C85.9081 152.961 86.0158 153.498 86.0158 154.148V159H84.8425V154.227C84.8425 153.627 84.6867 153.16 84.3752 152.825C84.0636 152.487 83.6361 152.318 83.0925 152.318C82.718 152.318 82.3832 152.399 82.0882 152.562C81.7966 152.724 81.5662 152.961 81.3972 153.273C81.2282 153.584 81.1436 153.962 81.1436 154.406Z" fill="#4A5568"/>
</g>
<defs>
<filter id="filter0_d_6170_29148" x="0.2172" y="0.212521" width="237.36" height="227.632" filterUnits="userSpaceOnUse" color-interpolation-filters="sRGB">
<feFlood flood-opacity="0" result="BackgroundImageFix"/>
<feColorMatrix in="SourceAlpha" type="matrix" values="0 0 0 0 0 0 0 0 0 0 0 0 0 0 0 0 0 0 127 0" result="hardAlpha"/>
<feOffset dx="9.39704" dy="10.1199"/>
<feGaussianBlur stdDeviation="7.58992"/>
<feColorMatrix type="matrix" values="0 0 0 0 0.0375 0 0 0 0 0.18975 0 0 0 0 0.3 0 0 0 0.06 0"/>
<feBlend mode="normal" in2="BackgroundImageFix" result="effect1_dropShadow_6170_29148"/>
<feBlend mode="normal" in="SourceGraphic" in2="effect1_dropShadow_6170_29148" result="shape"/>
</filter>
</defs>
</svg>
