<svg width="275" height="229" viewBox="0 0 275 229" fill="none" xmlns="http://www.w3.org/2000/svg">
<g filter="url(#filter0_d_6170_29153)">
<path d="M234 6H22C13.1634 6 6 13.1634 6 22V187.272C6 196.109 13.1634 203.272 22 203.272H234C242.837 203.272 250 196.109 250 187.272V22C250 13.1634 242.837 6 234 6Z" fill="#FFCF54"/>
<path d="M58.3233 43.2727H52.7153C52.6755 42.8087 52.5695 42.3878 52.3971 42.0099C52.2314 41.6321 51.9994 41.3073 51.7011 41.0355C51.4094 40.7571 51.0548 40.545 50.6372 40.3991C50.2196 40.2467 49.7456 40.1705 49.2153 40.1705C48.2873 40.1705 47.5018 40.3958 46.8588 40.8466C46.2224 41.2973 45.7385 41.9437 45.4071 42.7855C45.0823 43.6274 44.9199 44.6383 44.9199 45.8182C44.9199 47.0644 45.0856 48.1084 45.417 48.9503C45.7551 49.7855 46.2423 50.4152 46.8787 50.8395C47.515 51.2571 48.2807 51.4659 49.1755 51.4659C49.686 51.4659 50.1433 51.4029 50.5477 51.277C50.9521 51.1444 51.3034 50.9555 51.6017 50.7102C51.9 50.465 52.1419 50.17 52.3275 49.8253C52.5198 49.474 52.649 49.0795 52.7153 48.642L58.3233 48.6818C58.257 49.5436 58.015 50.4219 57.5974 51.3168C57.1798 52.205 56.5865 53.027 55.8176 53.7827C55.0553 54.5317 54.1107 55.1349 52.9838 55.5923C51.8569 56.0497 50.5477 56.2784 49.0562 56.2784C47.1869 56.2784 45.5098 55.8774 44.025 55.0753C42.5467 54.2732 41.3768 53.0933 40.515 51.5355C39.6599 49.9777 39.2324 48.072 39.2324 45.8182C39.2324 43.5511 39.6699 41.642 40.5449 40.0909C41.4199 38.5331 42.5998 37.3565 44.0846 36.5611C45.5695 35.759 47.2267 35.358 49.0562 35.358C50.3422 35.358 51.5254 35.5336 52.6059 35.8849C53.6864 36.2363 54.6343 36.75 55.4497 37.4261C56.265 38.0956 56.9213 38.9209 57.4184 39.902C57.9156 40.883 58.2172 42.0066 58.3233 43.2727ZM68.2292 56.2784C66.5985 56.2784 65.1932 55.9669 64.0132 55.3438C62.84 54.714 61.9351 53.8125 61.2988 52.6392C60.669 51.4593 60.3542 50.0473 60.3542 48.4034C60.3542 46.8258 60.6723 45.447 61.3087 44.267C61.9451 43.0871 62.8433 42.169 64.0033 41.5128C65.1633 40.8565 66.5322 40.5284 68.1098 40.5284C69.2632 40.5284 70.3073 40.7074 71.2419 41.0653C72.1766 41.4233 72.9754 41.9437 73.6382 42.6264C74.3011 43.3026 74.8115 44.1245 75.1695 45.0923C75.5275 46.0601 75.7064 47.1506 75.7064 48.3636V49.6364H62.0644V46.6136H70.6553C70.6487 46.1761 70.536 45.7917 70.3172 45.4602C70.1051 45.1222 69.8168 44.8603 69.4522 44.6747C69.0942 44.4825 68.6865 44.3864 68.2292 44.3864C67.785 44.3864 67.3774 44.4825 67.0061 44.6747C66.6349 44.8603 66.3366 45.1188 66.1113 45.4503C65.8925 45.7817 65.7765 46.1695 65.7632 46.6136V49.875C65.7632 50.3655 65.866 50.803 66.0715 51.1875C66.277 51.572 66.572 51.8736 66.9564 52.0923C67.3409 52.3111 67.8049 52.4205 68.3485 52.4205C68.7263 52.4205 69.071 52.3674 69.3826 52.2614C69.7007 52.1553 69.9725 52.0028 70.1979 51.804C70.4233 51.5985 70.589 51.3532 70.6951 51.0682H75.7064C75.5341 52.1288 75.1264 53.0502 74.4834 53.8324C73.8404 54.608 72.9886 55.2112 71.928 55.642C70.874 56.0663 69.6411 56.2784 68.2292 56.2784ZM77.9461 56V40.7273H83.2757V43.6307H83.4348C83.7132 42.5568 84.154 41.7713 84.7572 41.2741C85.3671 40.777 86.0797 40.5284 86.895 40.5284C87.1336 40.5284 87.369 40.5483 87.601 40.5881C87.8396 40.6212 88.0683 40.6709 88.287 40.7372V45.4205C88.0153 45.3277 87.6805 45.258 87.2828 45.2116C86.8851 45.1652 86.5437 45.142 86.2586 45.142C85.7217 45.142 85.2378 45.2647 84.8069 45.5099C84.3827 45.7486 84.0479 46.0866 83.8027 46.5241C83.5574 46.955 83.4348 47.4621 83.4348 48.0455V56H77.9461ZM99.8236 40.7273V44.7045H89.7611V40.7273H99.8236ZM91.71 37.0682H97.1986V51.0881C97.1986 51.3002 97.2351 51.4792 97.308 51.625C97.3809 51.7642 97.4936 51.8703 97.6461 51.9432C97.7985 52.0095 97.9941 52.0426 98.2327 52.0426C98.3984 52.0426 98.5907 52.0227 98.8094 51.983C99.0348 51.9432 99.2005 51.91 99.3066 51.8835L100.102 55.7415C99.8568 55.8144 99.5054 55.9039 99.0481 56.0099C98.5973 56.116 98.0604 56.1856 97.4373 56.2188C96.1778 56.285 95.1205 56.1558 94.2654 55.831C93.4103 55.4995 92.7673 54.9792 92.3364 54.2699C91.9055 53.5606 91.6967 52.6723 91.71 51.6051V37.0682ZM102.063 56V40.7273H107.552V56H102.063ZM104.807 39.1364C104.065 39.1364 103.428 38.8911 102.898 38.4006C102.368 37.91 102.103 37.3201 102.103 36.6307C102.103 35.9413 102.368 35.3513 102.898 34.8608C103.428 34.3703 104.065 34.125 104.807 34.125C105.556 34.125 106.193 34.3703 106.716 34.8608C107.247 35.3513 107.512 35.9413 107.512 36.6307C107.512 37.3201 107.247 37.91 106.716 38.4006C106.193 38.8911 105.556 39.1364 104.807 39.1364ZM119.496 40.7273V44.7045H109.274V40.7273H119.496ZM111.223 56V40.2898C111.223 39.0303 111.448 37.9863 111.899 37.1577C112.35 36.3291 112.986 35.7093 113.808 35.2983C114.63 34.8873 115.598 34.6818 116.712 34.6818C117.408 34.6818 118.084 34.7348 118.74 34.8409C119.403 34.947 119.894 35.0398 120.212 35.1193L119.416 39.0568C119.217 38.9972 118.985 38.9508 118.72 38.9176C118.455 38.8778 118.223 38.858 118.024 38.858C117.507 38.858 117.159 38.9673 116.98 39.1861C116.801 39.4048 116.712 39.6932 116.712 40.0511V56H111.223ZM121.614 56V40.7273H127.102V56H121.614ZM124.358 39.1364C123.616 39.1364 122.979 38.8911 122.449 38.4006C121.919 37.91 121.653 37.3201 121.653 36.6307C121.653 35.9413 121.919 35.3513 122.449 34.8608C122.979 34.3703 123.616 34.125 124.358 34.125C125.107 34.125 125.743 34.3703 126.267 34.8608C126.797 35.3513 127.063 35.9413 127.063 36.6307C127.063 37.3201 126.797 37.91 126.267 38.4006C125.743 38.8911 125.107 39.1364 124.358 39.1364ZM137.257 56.2784C135.6 56.2784 134.181 55.9503 133.001 55.294C131.821 54.6312 130.916 53.7098 130.287 52.5298C129.657 51.3433 129.342 49.9678 129.342 48.4034C129.342 46.839 129.657 45.4669 130.287 44.2869C130.916 43.1004 131.821 42.179 133.001 41.5227C134.181 40.8598 135.6 40.5284 137.257 40.5284C138.755 40.5284 140.051 40.8002 141.145 41.3438C142.245 41.8807 143.097 42.643 143.7 43.6307C144.303 44.6117 144.608 45.7652 144.615 47.0909H139.524C139.451 46.2888 139.219 45.679 138.828 45.2614C138.443 44.8371 137.946 44.625 137.336 44.625C136.859 44.625 136.441 44.7642 136.084 45.0426C135.726 45.3144 135.447 45.7287 135.248 46.2855C135.049 46.8357 134.95 47.5284 134.95 48.3636C134.95 49.1989 135.049 49.8949 135.248 50.4517C135.447 51.0019 135.726 51.4162 136.084 51.6946C136.441 51.9664 136.859 52.1023 137.336 52.1023C137.741 52.1023 138.099 52.0095 138.41 51.8239C138.722 51.6316 138.974 51.3532 139.166 50.9886C139.365 50.6174 139.484 50.1667 139.524 49.6364H144.615C144.595 50.982 144.287 52.1553 143.69 53.1562C143.093 54.1506 142.248 54.9195 141.155 55.4631C140.067 56.0066 138.768 56.2784 137.257 56.2784ZM151.135 56.2386C150.161 56.2386 149.299 56.0795 148.55 55.7614C147.807 55.4366 147.224 54.946 146.8 54.2898C146.376 53.6335 146.163 52.7983 146.163 51.7841C146.163 50.9489 146.306 50.2363 146.591 49.6463C146.876 49.0497 147.274 48.5625 147.784 48.1847C148.295 47.8068 148.888 47.5185 149.564 47.3196C150.247 47.1207 150.983 46.9915 151.771 46.9318C152.626 46.8655 153.313 46.786 153.83 46.6932C154.353 46.5937 154.731 46.4579 154.963 46.2855C155.195 46.1065 155.311 45.8712 155.311 45.5795V45.5398C155.311 45.142 155.159 44.8371 154.854 44.625C154.549 44.4129 154.158 44.3068 153.68 44.3068C153.157 44.3068 152.729 44.4228 152.398 44.6548C152.073 44.8802 151.877 45.2282 151.811 45.6989H146.76C146.826 44.7708 147.121 43.9157 147.645 43.1335C148.175 42.3447 148.948 41.715 149.962 41.2443C150.976 40.767 152.242 40.5284 153.76 40.5284C154.854 40.5284 155.835 40.6577 156.703 40.9162C157.572 41.1681 158.311 41.5227 158.921 41.9801C159.53 42.4309 159.994 42.9612 160.313 43.571C160.637 44.1742 160.8 44.8305 160.8 45.5398V56H155.669V53.8523H155.55C155.245 54.4223 154.874 54.883 154.436 55.2344C154.005 55.5857 153.511 55.8409 152.955 56C152.404 56.1591 151.798 56.2386 151.135 56.2386ZM152.925 52.7784C153.342 52.7784 153.733 52.6922 154.098 52.5199C154.469 52.3475 154.771 52.099 155.003 51.7741C155.235 51.4493 155.351 51.0549 155.351 50.5909V49.3182C155.205 49.3778 155.049 49.4342 154.884 49.4872C154.724 49.5402 154.552 49.59 154.367 49.6364C154.188 49.6828 153.995 49.7259 153.79 49.7656C153.591 49.8054 153.382 49.8419 153.163 49.875C152.739 49.9413 152.391 50.0507 152.119 50.2031C151.854 50.349 151.655 50.5312 151.523 50.75C151.397 50.9621 151.334 51.2008 151.334 51.4659C151.334 51.8902 151.483 52.215 151.781 52.4403C152.08 52.6657 152.461 52.7784 152.925 52.7784ZM172.53 40.7273V44.7045H162.468V40.7273H172.53ZM164.417 37.0682H169.905V51.0881C169.905 51.3002 169.942 51.4792 170.015 51.625C170.088 51.7642 170.2 51.8703 170.353 51.9432C170.505 52.0095 170.701 52.0426 170.939 52.0426C171.105 52.0426 171.297 52.0227 171.516 51.983C171.741 51.9432 171.907 51.91 172.013 51.8835L172.809 55.7415C172.563 55.8144 172.212 55.9039 171.755 56.0099C171.304 56.116 170.767 56.1856 170.144 56.2188C168.884 56.285 167.827 56.1558 166.972 55.831C166.117 55.4995 165.474 54.9792 165.043 54.2699C164.612 53.5606 164.403 52.6723 164.417 51.6051V37.0682ZM174.77 56V40.7273H180.259V56H174.77ZM177.514 39.1364C176.772 39.1364 176.135 38.8911 175.605 38.4006C175.075 37.91 174.81 37.3201 174.81 36.6307C174.81 35.9413 175.075 35.3513 175.605 34.8608C176.135 34.3703 176.772 34.125 177.514 34.125C178.263 34.125 178.9 34.3703 179.423 34.8608C179.954 35.3513 180.219 35.9413 180.219 36.6307C180.219 37.3201 179.954 37.91 179.423 38.4006C178.9 38.8911 178.263 39.1364 177.514 39.1364ZM190.413 56.2784C188.756 56.2784 187.337 55.9503 186.157 55.294C184.977 54.6312 184.073 53.7098 183.443 52.5298C182.813 51.3433 182.498 49.9678 182.498 48.4034C182.498 46.839 182.813 45.4669 183.443 44.2869C184.073 43.1004 184.977 42.179 186.157 41.5227C187.337 40.8598 188.756 40.5284 190.413 40.5284C192.07 40.5284 193.489 40.8598 194.669 41.5227C195.849 42.179 196.753 43.1004 197.383 44.2869C198.013 45.4669 198.328 46.839 198.328 48.4034C198.328 49.9678 198.013 51.3433 197.383 52.5298C196.753 53.7098 195.849 54.6312 194.669 55.294C193.489 55.9503 192.07 56.2784 190.413 56.2784ZM190.453 52.2216C190.917 52.2216 191.318 52.0658 191.656 51.7543C191.994 51.4427 192.256 50.9986 192.441 50.4219C192.627 49.8452 192.72 49.1591 192.72 48.3636C192.72 47.5616 192.627 46.8755 192.441 46.3054C192.256 45.7287 191.994 45.2846 191.656 44.973C191.318 44.6615 190.917 44.5057 190.453 44.5057C189.962 44.5057 189.541 44.6615 189.19 44.973C188.839 45.2846 188.57 45.7287 188.385 46.3054C188.199 46.8755 188.106 47.5616 188.106 48.3636C188.106 49.1591 188.199 49.8452 188.385 50.4219C188.57 50.9986 188.839 51.4427 189.19 51.7543C189.541 52.0658 189.962 52.2216 190.453 52.2216ZM206.044 47.4091V56H200.555V40.7273H205.765V43.6307H205.924C206.256 42.6629 206.839 41.9039 207.674 41.3537C208.516 40.8035 209.497 40.5284 210.618 40.5284C211.698 40.5284 212.636 40.777 213.432 41.2741C214.234 41.7647 214.853 42.4408 215.291 43.3026C215.735 44.1643 215.954 45.1487 215.947 46.2557V56H210.459V47.4091C210.465 46.6534 210.273 46.0601 209.882 45.6293C209.497 45.1984 208.96 44.983 208.271 44.983C207.82 44.983 207.426 45.0824 207.088 45.2812C206.756 45.4735 206.501 45.7519 206.322 46.1165C206.143 46.4744 206.05 46.9053 206.044 47.4091Z" fill="#615E4A"/>
<path d="M29.9375 91.0966C29.5365 91.0966 29.1702 90.9988 28.8388 90.8033C28.5073 90.6044 28.2422 90.3393 28.0433 90.0078C27.8478 89.6764 27.75 89.3101 27.75 88.9091C27.75 88.5047 27.8478 88.1385 28.0433 87.8104C28.2422 87.4789 28.5073 87.2154 28.8388 87.0199C29.1702 86.821 29.5365 86.7216 29.9375 86.7216C30.3419 86.7216 30.7081 86.821 31.0362 87.0199C31.3677 87.2154 31.6312 87.4789 31.8267 87.8104C32.0256 88.1385 32.125 88.5047 32.125 88.9091C32.125 89.3101 32.0256 89.6764 31.8267 90.0078C31.6312 90.3393 31.3677 90.6044 31.0362 90.8033C30.7081 90.9988 30.3419 91.0966 29.9375 91.0966ZM39.4631 94H38.1705L41.9091 83.8182H43.1818L46.9205 94H45.6278L42.5852 85.429H42.5057L39.4631 94ZM39.9403 90.0227H45.1506V91.1165H39.9403V90.0227ZM51.2308 94.1591C50.5945 94.1591 50.0327 93.9983 49.5455 93.6768C49.0582 93.352 48.6771 92.8946 48.402 92.3047C48.1269 91.7114 47.9893 91.0104 47.9893 90.2017C47.9893 89.3996 48.1269 88.7036 48.402 88.1136C48.6771 87.5237 49.0599 87.0679 49.5504 86.7464C50.041 86.425 50.6077 86.2642 51.2507 86.2642C51.7479 86.2642 52.1406 86.3471 52.429 86.5128C52.7206 86.6752 52.9427 86.8608 53.0952 87.0696C53.2509 87.2751 53.3719 87.4441 53.4581 87.5767H53.5575V83.8182H54.7308V94H53.5973V92.8267H53.4581C53.3719 92.9659 53.2493 93.1416 53.0902 93.3537C52.9311 93.5625 52.7041 93.7498 52.4091 93.9155C52.1141 94.0779 51.7214 94.1591 51.2308 94.1591ZM51.3899 93.1051C51.8606 93.1051 52.2583 92.9825 52.5831 92.7372C52.9079 92.4886 53.1548 92.1456 53.3239 91.7081C53.4929 91.2673 53.5774 90.7585 53.5774 90.1818C53.5774 89.6117 53.4946 89.1129 53.3288 88.6854C53.1631 88.2545 52.9179 87.9197 52.593 87.6811C52.2682 87.4392 51.8672 87.3182 51.3899 87.3182C50.8928 87.3182 50.4785 87.4458 50.147 87.701C49.8189 87.9529 49.572 88.2959 49.4062 88.7301C49.2438 89.161 49.1626 89.6449 49.1626 90.1818C49.1626 90.7254 49.2455 91.2192 49.4112 91.6634C49.5803 92.1042 49.8288 92.4555 50.157 92.7173C50.4884 92.9759 50.8994 93.1051 51.3899 93.1051ZM63.2869 86.3636L60.4631 94H59.2699L56.446 86.3636H57.7188L59.8267 92.4489H59.9062L62.0142 86.3636H63.2869ZM66.8503 94.179C66.3664 94.179 65.9273 94.0878 65.5328 93.9055C65.1384 93.7199 64.8252 93.4531 64.5932 93.1051C64.3612 92.7538 64.2452 92.3295 64.2452 91.8324C64.2452 91.3949 64.3314 91.0402 64.5037 90.7685C64.6761 90.4934 64.9064 90.2779 65.1948 90.1222C65.4831 89.9664 65.8013 89.8504 66.1493 89.7741C66.5007 89.6946 66.8536 89.6316 67.2083 89.5852C67.6723 89.5256 68.0485 89.4808 68.3368 89.451C68.6285 89.4179 68.8406 89.3632 68.9732 89.2869C69.1091 89.2107 69.177 89.0781 69.177 88.8892V88.8494C69.177 88.3589 69.0428 87.9777 68.7743 87.706C68.5092 87.4342 68.1065 87.2983 67.5662 87.2983C67.0061 87.2983 66.5669 87.4209 66.2488 87.6662C65.9306 87.9115 65.7069 88.1733 65.5776 88.4517L64.464 88.054C64.6628 87.59 64.928 87.2287 65.2594 86.9702C65.5942 86.7083 65.9587 86.526 66.3532 86.4233C66.7509 86.3172 67.142 86.2642 67.5265 86.2642C67.7717 86.2642 68.0534 86.294 68.3716 86.3537C68.6931 86.41 69.003 86.5277 69.3013 86.7067C69.6029 86.8857 69.8532 87.1558 70.052 87.517C70.2509 87.8783 70.3503 88.3622 70.3503 88.9688V94H69.177V92.9659H69.1174C69.0378 93.1316 68.9052 93.3089 68.7196 93.4979C68.534 93.6868 68.2871 93.8475 67.9789 93.9801C67.6706 94.1127 67.2944 94.179 66.8503 94.179ZM67.0293 93.125C67.4933 93.125 67.8844 93.0339 68.2026 92.8516C68.5241 92.6693 68.766 92.4339 68.9284 92.1456C69.0942 91.8572 69.177 91.554 69.177 91.2358V90.1619C69.1273 90.2216 69.0179 90.2763 68.8489 90.326C68.6832 90.3724 68.4909 90.4138 68.2722 90.4503C68.0568 90.4834 67.8463 90.5133 67.6408 90.5398C67.4386 90.563 67.2746 90.5829 67.1486 90.5994C66.8437 90.6392 66.5587 90.7038 66.2935 90.7933C66.0317 90.8795 65.8195 91.0104 65.6571 91.1861C65.498 91.3584 65.4185 91.5937 65.4185 91.892C65.4185 92.2997 65.5693 92.608 65.8709 92.8168C66.1758 93.0223 66.562 93.125 67.0293 93.125ZM73.6651 89.4062V94H72.4918V86.3636H73.6254V87.5568H73.7248C73.9038 87.169 74.1755 86.8575 74.5401 86.6222C74.9047 86.3835 75.3754 86.2642 75.9521 86.2642C76.4691 86.2642 76.9215 86.3703 77.3093 86.5824C77.6971 86.7912 77.9987 87.1094 78.2141 87.5369C78.4296 87.9612 78.5373 88.4981 78.5373 89.1477V94H77.364V89.2273C77.364 88.6274 77.2082 88.16 76.8967 87.8253C76.5851 87.4872 76.1576 87.3182 75.614 87.3182C75.2395 87.3182 74.9047 87.3994 74.6097 87.5618C74.3181 87.7242 74.0877 87.9612 73.9187 88.2727C73.7496 88.5843 73.6651 88.9621 73.6651 89.4062ZM83.7836 94.1591C83.0676 94.1591 82.4512 93.9901 81.9341 93.652C81.4171 93.3139 81.0194 92.8482 80.7409 92.255C80.4625 91.6617 80.3233 90.9839 80.3233 90.2216C80.3233 89.446 80.4658 88.7616 80.7509 88.1683C81.0392 87.5717 81.4403 87.1061 81.954 86.7713C82.4711 86.4332 83.0743 86.2642 83.7637 86.2642C84.3006 86.2642 84.7845 86.3636 85.2154 86.5625C85.6462 86.7614 85.9992 87.0398 86.2743 87.3977C86.5494 87.7557 86.7201 88.1733 86.7864 88.6506H85.6131C85.5236 88.3026 85.3248 87.9943 85.0165 87.7259C84.7116 87.4541 84.3006 87.3182 83.7836 87.3182C83.3262 87.3182 82.9251 87.4375 82.5804 87.6761C82.2391 87.9115 81.9722 88.2446 81.78 88.6754C81.5911 89.103 81.4966 89.6051 81.4966 90.1818C81.4966 90.7718 81.5894 91.2855 81.775 91.723C81.964 92.1605 82.2291 92.5002 82.5705 92.7422C82.9152 92.9841 83.3195 93.1051 83.7836 93.1051C84.0885 93.1051 84.3652 93.0521 84.6138 92.946C84.8624 92.84 85.0729 92.6875 85.2452 92.4886C85.4176 92.2898 85.5402 92.0511 85.6131 91.7727H86.7864C86.7201 92.2235 86.556 92.6295 86.2942 92.9908C86.0357 93.3487 85.6926 93.6338 85.2651 93.8459C84.8409 94.0547 84.347 94.1591 83.7836 94.1591ZM91.7033 94.1591C90.9675 94.1591 90.3328 93.9967 89.7992 93.6719C89.2689 93.3438 88.8596 92.8864 88.5712 92.2997C88.2862 91.7098 88.1436 91.0237 88.1436 90.2415C88.1436 89.4593 88.2862 88.7699 88.5712 88.1733C88.8596 87.5734 89.2606 87.1061 89.7743 86.7713C90.2914 86.4332 90.8946 86.2642 91.584 86.2642C91.9817 86.2642 92.3745 86.3305 92.7623 86.4631C93.15 86.5956 93.503 86.8111 93.8212 87.1094C94.1394 87.4044 94.3929 87.7955 94.5819 88.2827C94.7708 88.7699 94.8652 89.3698 94.8652 90.0824V90.5795H88.9789V89.5653H93.6721C93.6721 89.1345 93.5859 88.75 93.4135 88.4119C93.2445 88.0739 93.0025 87.8071 92.6877 87.6115C92.3761 87.416 92.0082 87.3182 91.584 87.3182C91.1167 87.3182 90.7123 87.4342 90.3709 87.6662C90.0328 87.8949 89.7727 88.1932 89.5904 88.5611C89.4081 88.929 89.3169 89.3234 89.3169 89.7443V90.4205C89.3169 90.9972 89.4164 91.486 89.6152 91.8871C89.8174 92.2848 90.0975 92.5881 90.4554 92.7969C90.8134 93.0024 91.2293 93.1051 91.7033 93.1051C92.0115 93.1051 92.29 93.062 92.5385 92.9759C92.7904 92.8864 93.0075 92.7538 93.1898 92.5781C93.3721 92.3991 93.513 92.1771 93.6124 91.9119L94.7459 92.2301C94.6266 92.6146 94.4261 92.9527 94.1444 93.2443C93.8626 93.5327 93.5146 93.758 93.1003 93.9205C92.686 94.0795 92.2203 94.1591 91.7033 94.1591ZM99.5336 94.1591C98.8972 94.1591 98.3354 93.9983 97.8482 93.6768C97.361 93.352 96.9798 92.8946 96.7047 92.3047C96.4296 91.7114 96.2921 91.0104 96.2921 90.2017C96.2921 89.3996 96.4296 88.7036 96.7047 88.1136C96.9798 87.5237 97.3626 87.0679 97.8532 86.7464C98.3437 86.425 98.9105 86.2642 99.5534 86.2642C100.051 86.2642 100.443 86.3471 100.732 86.5128C101.023 86.6752 101.245 86.8608 101.398 87.0696C101.554 87.2751 101.675 87.4441 101.761 87.5767H101.86V83.8182H103.034V94H101.9V92.8267H101.761C101.675 92.9659 101.552 93.1416 101.393 93.3537C101.234 93.5625 101.007 93.7498 100.712 93.9155C100.417 94.0779 100.024 94.1591 99.5336 94.1591ZM99.6926 93.1051C100.163 93.1051 100.561 92.9825 100.886 92.7372C101.211 92.4886 101.458 92.1456 101.627 91.7081C101.796 91.2673 101.88 90.7585 101.88 90.1818C101.88 89.6117 101.797 89.1129 101.632 88.6854C101.466 88.2545 101.221 87.9197 100.896 87.6811C100.571 87.4392 100.17 87.3182 99.6926 87.3182C99.1955 87.3182 98.7812 87.4458 98.4498 87.701C98.1216 87.9529 97.8747 88.2959 97.709 88.7301C97.5466 89.161 97.4654 89.6449 97.4654 90.1818C97.4654 90.7254 97.5482 91.2192 97.714 91.6634C97.883 92.1042 98.1316 92.4555 98.4597 92.7173C98.7911 92.9759 99.2021 93.1051 99.6926 93.1051ZM116.402 87C116.293 86.6652 116.149 86.3653 115.97 86.1001C115.794 85.8317 115.584 85.603 115.338 85.4141C115.096 85.2251 114.821 85.081 114.513 84.9815C114.205 84.8821 113.867 84.8324 113.499 84.8324C112.896 84.8324 112.347 84.9882 111.853 85.2997C111.359 85.6113 110.967 86.0703 110.675 86.6768C110.383 87.2834 110.237 88.0275 110.237 88.9091C110.237 89.7907 110.385 90.5348 110.68 91.1413C110.975 91.7479 111.374 92.2069 111.878 92.5185C112.382 92.83 112.949 92.9858 113.578 92.9858C114.162 92.9858 114.675 92.8615 115.119 92.6129C115.567 92.361 115.915 92.0064 116.164 91.549C116.415 91.0883 116.541 90.5464 116.541 89.9233L116.919 90.0028H113.857V88.9091H117.735V90.0028C117.735 90.8414 117.556 91.5705 117.198 92.1903C116.843 92.8101 116.352 93.2907 115.726 93.6321C115.103 93.9702 114.387 94.1392 113.578 94.1392C112.677 94.1392 111.885 93.9271 111.202 93.5028C110.522 93.0786 109.992 92.4754 109.611 91.6932C109.233 90.911 109.044 89.983 109.044 88.9091C109.044 88.1037 109.152 87.3795 109.367 86.7365C109.586 86.0902 109.894 85.54 110.292 85.0859C110.69 84.6319 111.16 84.2839 111.704 84.0419C112.248 83.8 112.846 83.679 113.499 83.679C114.036 83.679 114.536 83.7602 115 83.9226C115.468 84.0817 115.883 84.3087 116.248 84.6037C116.616 84.8954 116.923 85.245 117.168 85.6527C117.413 86.0571 117.582 86.5062 117.675 87H116.402ZM122.789 94.1591C122.1 94.1591 121.495 93.995 120.975 93.6669C120.458 93.3388 120.053 92.8797 119.762 92.2898C119.473 91.6998 119.329 91.0104 119.329 90.2216C119.329 89.4261 119.473 88.7318 119.762 88.1385C120.053 87.5452 120.458 87.0845 120.975 86.7564C121.495 86.4283 122.1 86.2642 122.789 86.2642C123.479 86.2642 124.082 86.4283 124.599 86.7564C125.119 87.0845 125.524 87.5452 125.812 88.1385C126.104 88.7318 126.25 89.4261 126.25 90.2216C126.25 91.0104 126.104 91.6998 125.812 92.2898C125.524 92.8797 125.119 93.3388 124.599 93.6669C124.082 93.995 123.479 94.1591 122.789 94.1591ZM122.789 93.1051C123.313 93.1051 123.744 92.9709 124.082 92.7024C124.42 92.4339 124.67 92.081 124.833 91.6435C124.995 91.206 125.076 90.732 125.076 90.2216C125.076 89.7112 124.995 89.2356 124.833 88.7947C124.67 88.3539 124.42 87.9976 124.082 87.7259C123.744 87.4541 123.313 87.3182 122.789 87.3182C122.266 87.3182 121.835 87.4541 121.497 87.7259C121.159 87.9976 120.908 88.3539 120.746 88.7947C120.584 89.2356 120.502 89.7112 120.502 90.2216C120.502 90.732 120.584 91.206 120.746 91.6435C120.908 92.081 121.159 92.4339 121.497 92.7024C121.835 92.9709 122.266 93.1051 122.789 93.1051ZM131.143 94.1591C130.454 94.1591 129.849 93.995 129.328 93.6669C128.811 93.3388 128.407 92.8797 128.115 92.2898C127.827 91.6998 127.683 91.0104 127.683 90.2216C127.683 89.4261 127.827 88.7318 128.115 88.1385C128.407 87.5452 128.811 87.0845 129.328 86.7564C129.849 86.4283 130.454 86.2642 131.143 86.2642C131.832 86.2642 132.436 86.4283 132.953 86.7564C133.473 87.0845 133.877 87.5452 134.166 88.1385C134.457 88.7318 134.603 89.4261 134.603 90.2216C134.603 91.0104 134.457 91.6998 134.166 92.2898C133.877 92.8797 133.473 93.3388 132.953 93.6669C132.436 93.995 131.832 94.1591 131.143 94.1591ZM131.143 93.1051C131.667 93.1051 132.097 92.9709 132.436 92.7024C132.774 92.4339 133.024 92.081 133.186 91.6435C133.349 91.206 133.43 90.732 133.43 90.2216C133.43 89.7112 133.349 89.2356 133.186 88.7947C133.024 88.3539 132.774 87.9976 132.436 87.7259C132.097 87.4541 131.667 87.3182 131.143 87.3182C130.619 87.3182 130.188 87.4541 129.85 87.7259C129.512 87.9976 129.262 88.3539 129.1 88.7947C128.937 89.2356 128.856 89.7112 128.856 90.2216C128.856 90.732 128.937 91.206 129.1 91.6435C129.262 92.081 129.512 92.4339 129.85 92.7024C130.188 92.9709 130.619 93.1051 131.143 93.1051ZM139.477 97.0227C138.91 97.0227 138.423 96.9498 138.015 96.804C137.607 96.6615 137.268 96.4725 136.996 96.2372C136.727 96.0052 136.513 95.7566 136.354 95.4915L137.289 94.8352C137.395 94.9744 137.529 95.1335 137.692 95.3125C137.854 95.4948 138.076 95.6522 138.358 95.7848C138.643 95.9207 139.016 95.9886 139.477 95.9886C140.093 95.9886 140.602 95.8395 141.003 95.5412C141.404 95.2429 141.604 94.7756 141.604 94.1392V92.5881H141.505C141.419 92.7273 141.296 92.8996 141.137 93.1051C140.981 93.3073 140.756 93.4879 140.461 93.647C140.169 93.8028 139.775 93.8807 139.278 93.8807C138.661 93.8807 138.108 93.7348 137.617 93.4432C137.13 93.1515 136.744 92.7273 136.459 92.1705C136.177 91.6136 136.036 90.9375 136.036 90.142C136.036 89.3598 136.174 88.6787 136.449 88.0987C136.724 87.5154 137.107 87.0646 137.597 86.7464C138.088 86.425 138.655 86.2642 139.298 86.2642C139.795 86.2642 140.189 86.3471 140.481 86.5128C140.776 86.6752 141.001 86.8608 141.157 87.0696C141.316 87.2751 141.439 87.4441 141.525 87.5767H141.644V86.3636H142.778V94.2188C142.778 94.875 142.629 95.4086 142.33 95.8196C142.035 96.2339 141.638 96.5372 141.137 96.7294C140.64 96.925 140.086 97.0227 139.477 97.0227ZM139.437 92.8267C139.907 92.8267 140.305 92.719 140.63 92.5036C140.955 92.2881 141.202 91.9782 141.371 91.5739C141.54 91.1695 141.624 90.6856 141.624 90.1222C141.624 89.572 141.541 89.0864 141.376 88.6655C141.21 88.2446 140.965 87.9148 140.64 87.6761C140.315 87.4375 139.914 87.3182 139.437 87.3182C138.94 87.3182 138.525 87.4441 138.194 87.696C137.866 87.9479 137.619 88.286 137.453 88.7102C137.291 89.1345 137.21 89.6051 137.21 90.1222C137.21 90.6525 137.292 91.1214 137.458 91.5291C137.627 91.9335 137.876 92.2517 138.204 92.4837C138.535 92.7124 138.946 92.8267 139.437 92.8267ZM146.099 83.8182V94H144.925V83.8182H146.099ZM151.449 94.1591C150.714 94.1591 150.079 93.9967 149.545 93.6719C149.015 93.3438 148.606 92.8864 148.317 92.2997C148.032 91.7098 147.89 91.0237 147.89 90.2415C147.89 89.4593 148.032 88.7699 148.317 88.1733C148.606 87.5734 149.007 87.1061 149.52 86.7713C150.037 86.4332 150.641 86.2642 151.33 86.2642C151.728 86.2642 152.121 86.3305 152.508 86.4631C152.896 86.5956 153.249 86.8111 153.567 87.1094C153.885 87.4044 154.139 87.7955 154.328 88.2827C154.517 88.7699 154.611 89.3698 154.611 90.0824V90.5795H148.725V89.5653H153.418C153.418 89.1345 153.332 88.75 153.16 88.4119C152.991 88.0739 152.749 87.8071 152.434 87.6115C152.122 87.416 151.754 87.3182 151.33 87.3182C150.863 87.3182 150.458 87.4342 150.117 87.6662C149.779 87.8949 149.519 88.1932 149.336 88.5611C149.154 88.929 149.063 89.3234 149.063 89.7443V90.4205C149.063 90.9972 149.162 91.486 149.361 91.8871C149.564 92.2848 149.844 92.5881 150.202 92.7969C150.559 93.0024 150.975 93.1051 151.449 93.1051C151.758 93.1051 152.036 93.062 152.285 92.9759C152.537 92.8864 152.754 92.7538 152.936 92.5781C153.118 92.3991 153.259 92.1771 153.358 91.9119L154.492 92.2301C154.373 92.6146 154.172 92.9527 153.89 93.2443C153.609 93.5327 153.261 93.758 152.846 93.9205C152.432 94.0795 151.966 94.1591 151.449 94.1591ZM160.91 94H159.618L163.356 83.8182H164.629L168.368 94H167.075L164.032 85.429H163.953L160.91 94ZM161.388 90.0227H166.598V91.1165H161.388V90.0227ZM170.968 89.4062V94H169.795V86.3636H170.928V87.5568H171.028C171.206 87.169 171.478 86.8575 171.843 86.6222C172.207 86.3835 172.678 86.2642 173.255 86.2642C173.772 86.2642 174.224 86.3703 174.612 86.5824C175 86.7912 175.301 87.1094 175.517 87.5369C175.732 87.9612 175.84 88.4981 175.84 89.1477V94H174.667V89.2273C174.667 88.6274 174.511 88.16 174.199 87.8253C173.888 87.4872 173.46 87.3182 172.917 87.3182C172.542 87.3182 172.207 87.3994 171.912 87.5618C171.621 87.7242 171.39 87.9612 171.221 88.2727C171.052 88.5843 170.968 88.9621 170.968 89.4062ZM180.231 94.179C179.747 94.179 179.308 94.0878 178.914 93.9055C178.519 93.7199 178.206 93.4531 177.974 93.1051C177.742 92.7538 177.626 92.3295 177.626 91.8324C177.626 91.3949 177.712 91.0402 177.885 90.7685C178.057 90.4934 178.287 90.2779 178.576 90.1222C178.864 89.9664 179.182 89.8504 179.53 89.7741C179.882 89.6946 180.234 89.6316 180.589 89.5852C181.053 89.5256 181.429 89.4808 181.718 89.451C182.009 89.4179 182.221 89.3632 182.354 89.2869C182.49 89.2107 182.558 89.0781 182.558 88.8892V88.8494C182.558 88.3589 182.424 87.9777 182.155 87.706C181.89 87.4342 181.487 87.2983 180.947 87.2983C180.387 87.2983 179.948 87.4209 179.63 87.6662C179.311 87.9115 179.088 88.1733 178.958 88.4517L177.845 88.054C178.044 87.59 178.309 87.2287 178.64 86.9702C178.975 86.7083 179.34 86.526 179.734 86.4233C180.132 86.3172 180.523 86.2642 180.907 86.2642C181.153 86.2642 181.434 86.294 181.752 86.3537C182.074 86.41 182.384 86.5277 182.682 86.7067C182.984 86.8857 183.234 87.1558 183.433 87.517C183.632 87.8783 183.731 88.3622 183.731 88.9688V94H182.558V92.9659H182.498C182.419 93.1316 182.286 93.3089 182.1 93.4979C181.915 93.6868 181.668 93.8475 181.36 93.9801C181.051 94.1127 180.675 94.179 180.231 94.179ZM180.41 93.125C180.874 93.125 181.265 93.0339 181.583 92.8516C181.905 92.6693 182.147 92.4339 182.309 92.1456C182.475 91.8572 182.558 91.554 182.558 91.2358V90.1619C182.508 90.2216 182.399 90.2763 182.23 90.326C182.064 90.3724 181.872 90.4138 181.653 90.4503C181.438 90.4834 181.227 90.5133 181.022 90.5398C180.819 90.563 180.655 90.5829 180.529 90.5994C180.225 90.6392 179.94 90.7038 179.674 90.7933C179.413 90.8795 179.2 91.0104 179.038 91.1861C178.879 91.3584 178.799 91.5937 178.799 91.892C178.799 92.2997 178.95 92.608 179.252 92.8168C179.557 93.0223 179.943 93.125 180.41 93.125ZM187.046 83.8182V94H185.873V83.8182H187.046ZM189.951 96.8636C189.752 96.8636 189.574 96.8471 189.419 96.8139C189.263 96.7841 189.155 96.7543 189.096 96.7244L189.394 95.6903C189.679 95.7633 189.931 95.7898 190.15 95.7699C190.368 95.75 190.562 95.6522 190.731 95.4766C190.904 95.3042 191.061 95.0241 191.203 94.6364L191.422 94.0398L188.598 86.3636H189.871L191.979 92.4489H192.059L194.167 86.3636H195.439L192.198 95.1136C192.052 95.508 191.871 95.8345 191.656 96.093C191.44 96.3549 191.19 96.5488 190.905 96.6747C190.623 96.8007 190.305 96.8636 189.951 96.8636ZM200.309 86.3636V87.358H196.352V86.3636H200.309ZM197.505 84.5341H198.678V91.8125C198.678 92.1439 198.726 92.3925 198.822 92.5582C198.922 92.7206 199.048 92.83 199.2 92.8864C199.356 92.9394 199.52 92.9659 199.692 92.9659C199.822 92.9659 199.928 92.9593 200.011 92.946C200.094 92.9295 200.16 92.9162 200.21 92.9062L200.448 93.9602C200.369 93.9901 200.258 94.0199 200.115 94.0497C199.973 94.0829 199.792 94.0994 199.573 94.0994C199.242 94.0994 198.917 94.0282 198.599 93.8857C198.284 93.7431 198.022 93.526 197.813 93.2344C197.608 92.9427 197.505 92.5748 197.505 92.1307V84.5341ZM202.074 94V86.3636H203.247V94H202.074ZM202.67 85.0909C202.442 85.0909 202.245 85.013 202.079 84.8572C201.916 84.7015 201.835 84.5142 201.835 84.2955C201.835 84.0767 201.916 83.8894 202.079 83.7337C202.245 83.5779 202.442 83.5 202.67 83.5C202.899 83.5 203.095 83.5779 203.257 83.7337C203.423 83.8894 203.506 84.0767 203.506 84.2955C203.506 84.5142 203.423 84.7015 203.257 84.8572C203.095 85.013 202.899 85.0909 202.67 85.0909ZM208.498 94.1591C207.782 94.1591 207.166 93.9901 206.649 93.652C206.132 93.3139 205.734 92.8482 205.456 92.255C205.177 91.6617 205.038 90.9839 205.038 90.2216C205.038 89.446 205.181 88.7616 205.466 88.1683C205.754 87.5717 206.155 87.1061 206.669 86.7713C207.186 86.4332 207.789 86.2642 208.479 86.2642C209.015 86.2642 209.499 86.3636 209.93 86.5625C210.361 86.7614 210.714 87.0398 210.989 87.3977C211.264 87.7557 211.435 88.1733 211.501 88.6506H210.328C210.238 88.3026 210.04 87.9943 209.731 87.7259C209.426 87.4541 209.015 87.3182 208.498 87.3182C208.041 87.3182 207.64 87.4375 207.295 87.6761C206.954 87.9115 206.687 88.2446 206.495 88.6754C206.306 89.103 206.211 89.6051 206.211 90.1818C206.211 90.7718 206.304 91.2855 206.49 91.723C206.679 92.1605 206.944 92.5002 207.285 92.7422C207.63 92.9841 208.034 93.1051 208.498 93.1051C208.803 93.1051 209.08 93.0521 209.329 92.946C209.577 92.84 209.788 92.6875 209.96 92.4886C210.132 92.2898 210.255 92.0511 210.328 91.7727H211.501C211.435 92.2235 211.271 92.6295 211.009 92.9908C210.751 93.3487 210.407 93.6338 209.98 93.8459C209.556 94.0547 209.062 94.1591 208.498 94.1591ZM218.626 88.0739L217.572 88.3722C217.505 88.1965 217.407 88.0258 217.278 87.8601C217.152 87.6911 216.98 87.5518 216.761 87.4425C216.542 87.3331 216.262 87.2784 215.921 87.2784C215.454 87.2784 215.064 87.3861 214.753 87.6016C214.444 87.8137 214.29 88.0838 214.29 88.4119C214.29 88.7036 214.396 88.9339 214.608 89.103C214.821 89.272 215.152 89.4129 215.603 89.5256L216.736 89.804C217.419 89.9697 217.928 90.2232 218.263 90.5646C218.597 90.9027 218.765 91.3385 218.765 91.8722C218.765 92.3097 218.639 92.7008 218.387 93.0455C218.138 93.3902 217.79 93.6619 217.343 93.8608C216.895 94.0597 216.375 94.1591 215.782 94.1591C215.003 94.1591 214.358 93.9901 213.848 93.652C213.337 93.3139 213.014 92.8201 212.878 92.1705L213.992 91.892C214.098 92.303 214.299 92.6113 214.594 92.8168C214.892 93.0223 215.281 93.125 215.762 93.125C216.309 93.125 216.743 93.009 217.064 92.777C217.389 92.5417 217.552 92.2599 217.552 91.9318C217.552 91.6667 217.459 91.4446 217.273 91.2656C217.088 91.0833 216.803 90.9474 216.418 90.858L215.145 90.5597C214.446 90.3939 213.932 90.1371 213.604 89.7891C213.279 89.4377 213.117 88.9986 213.117 88.4716C213.117 88.0407 213.238 87.6596 213.48 87.3281C213.725 86.9967 214.058 86.7365 214.479 86.5476C214.903 86.3587 215.384 86.2642 215.921 86.2642C216.677 86.2642 217.27 86.4299 217.701 86.7614C218.135 87.0928 218.443 87.5303 218.626 88.0739ZM29.9375 115.097C29.5365 115.097 29.1702 114.999 28.8388 114.803C28.5073 114.604 28.2422 114.339 28.0433 114.008C27.8478 113.676 27.75 113.31 27.75 112.909C27.75 112.505 27.8478 112.138 28.0433 111.81C28.2422 111.479 28.5073 111.215 28.8388 111.02C29.1702 110.821 29.5365 110.722 29.9375 110.722C30.3419 110.722 30.7081 110.821 31.0362 111.02C31.3677 111.215 31.6312 111.479 31.8267 111.81C32.0256 112.138 32.125 112.505 32.125 112.909C32.125 113.31 32.0256 113.676 31.8267 114.008C31.6312 114.339 31.3677 114.604 31.0362 114.803C30.7081 114.999 30.3419 115.097 29.9375 115.097ZM39.4631 118H38.1705L41.9091 107.818H43.1818L46.9205 118H45.6278L42.5852 109.429H42.5057L39.4631 118ZM39.9403 114.023H45.1506V115.116H39.9403V114.023ZM51.2308 118.159C50.5945 118.159 50.0327 117.998 49.5455 117.677C49.0582 117.352 48.6771 116.895 48.402 116.305C48.1269 115.711 47.9893 115.01 47.9893 114.202C47.9893 113.4 48.1269 112.704 48.402 112.114C48.6771 111.524 49.0599 111.068 49.5504 110.746C50.041 110.425 50.6077 110.264 51.2507 110.264C51.7479 110.264 52.1406 110.347 52.429 110.513C52.7206 110.675 52.9427 110.861 53.0952 111.07C53.2509 111.275 53.3719 111.444 53.4581 111.577H53.5575V107.818H54.7308V118H53.5973V116.827H53.4581C53.3719 116.966 53.2493 117.142 53.0902 117.354C52.9311 117.562 52.7041 117.75 52.4091 117.915C52.1141 118.078 51.7214 118.159 51.2308 118.159ZM51.3899 117.105C51.8606 117.105 52.2583 116.982 52.5831 116.737C52.9079 116.489 53.1548 116.146 53.3239 115.708C53.4929 115.267 53.5774 114.759 53.5774 114.182C53.5774 113.612 53.4946 113.113 53.3288 112.685C53.1631 112.254 52.9179 111.92 52.593 111.681C52.2682 111.439 51.8672 111.318 51.3899 111.318C50.8928 111.318 50.4785 111.446 50.147 111.701C49.8189 111.953 49.572 112.296 49.4062 112.73C49.2438 113.161 49.1626 113.645 49.1626 114.182C49.1626 114.725 49.2455 115.219 49.4112 115.663C49.5803 116.104 49.8288 116.455 50.157 116.717C50.4884 116.976 50.8994 117.105 51.3899 117.105ZM63.2869 110.364L60.4631 118H59.2699L56.446 110.364H57.7188L59.8267 116.449H59.9062L62.0142 110.364H63.2869ZM66.8503 118.179C66.3664 118.179 65.9273 118.088 65.5328 117.906C65.1384 117.72 64.8252 117.453 64.5932 117.105C64.3612 116.754 64.2452 116.33 64.2452 115.832C64.2452 115.395 64.3314 115.04 64.5037 114.768C64.6761 114.493 64.9064 114.278 65.1948 114.122C65.4831 113.966 65.8013 113.85 66.1493 113.774C66.5007 113.695 66.8536 113.632 67.2083 113.585C67.6723 113.526 68.0485 113.481 68.3368 113.451C68.6285 113.418 68.8406 113.363 68.9732 113.287C69.1091 113.211 69.177 113.078 69.177 112.889V112.849C69.177 112.359 69.0428 111.978 68.7743 111.706C68.5092 111.434 68.1065 111.298 67.5662 111.298C67.0061 111.298 66.5669 111.421 66.2488 111.666C65.9306 111.911 65.7069 112.173 65.5776 112.452L64.464 112.054C64.6628 111.59 64.928 111.229 65.2594 110.97C65.5942 110.708 65.9587 110.526 66.3532 110.423C66.7509 110.317 67.142 110.264 67.5265 110.264C67.7717 110.264 68.0534 110.294 68.3716 110.354C68.6931 110.41 69.003 110.528 69.3013 110.707C69.6029 110.886 69.8532 111.156 70.052 111.517C70.2509 111.878 70.3503 112.362 70.3503 112.969V118H69.177V116.966H69.1174C69.0378 117.132 68.9052 117.309 68.7196 117.498C68.534 117.687 68.2871 117.848 67.9789 117.98C67.6706 118.113 67.2944 118.179 66.8503 118.179ZM67.0293 117.125C67.4933 117.125 67.8844 117.034 68.2026 116.852C68.5241 116.669 68.766 116.434 68.9284 116.146C69.0942 115.857 69.177 115.554 69.177 115.236V114.162C69.1273 114.222 69.0179 114.276 68.8489 114.326C68.6832 114.372 68.4909 114.414 68.2722 114.45C68.0568 114.483 67.8463 114.513 67.6408 114.54C67.4386 114.563 67.2746 114.583 67.1486 114.599C66.8437 114.639 66.5587 114.704 66.2935 114.793C66.0317 114.879 65.8195 115.01 65.6571 115.186C65.498 115.358 65.4185 115.594 65.4185 115.892C65.4185 116.3 65.5693 116.608 65.8709 116.817C66.1758 117.022 66.562 117.125 67.0293 117.125ZM73.6651 113.406V118H72.4918V110.364H73.6254V111.557H73.7248C73.9038 111.169 74.1755 110.857 74.5401 110.622C74.9047 110.384 75.3754 110.264 75.9521 110.264C76.4691 110.264 76.9215 110.37 77.3093 110.582C77.6971 110.791 77.9987 111.109 78.2141 111.537C78.4296 111.961 78.5373 112.498 78.5373 113.148V118H77.364V113.227C77.364 112.627 77.2082 112.16 76.8967 111.825C76.5851 111.487 76.1576 111.318 75.614 111.318C75.2395 111.318 74.9047 111.399 74.6097 111.562C74.3181 111.724 74.0877 111.961 73.9187 112.273C73.7496 112.584 73.6651 112.962 73.6651 113.406ZM83.7836 118.159C83.0676 118.159 82.4512 117.99 81.9341 117.652C81.4171 117.314 81.0194 116.848 80.7409 116.255C80.4625 115.662 80.3233 114.984 80.3233 114.222C80.3233 113.446 80.4658 112.762 80.7509 112.168C81.0392 111.572 81.4403 111.106 81.954 110.771C82.4711 110.433 83.0743 110.264 83.7637 110.264C84.3006 110.264 84.7845 110.364 85.2154 110.562C85.6462 110.761 85.9992 111.04 86.2743 111.398C86.5494 111.756 86.7201 112.173 86.7864 112.651H85.6131C85.5236 112.303 85.3248 111.994 85.0165 111.726C84.7116 111.454 84.3006 111.318 83.7836 111.318C83.3262 111.318 82.9251 111.437 82.5804 111.676C82.2391 111.911 81.9722 112.245 81.78 112.675C81.5911 113.103 81.4966 113.605 81.4966 114.182C81.4966 114.772 81.5894 115.286 81.775 115.723C81.964 116.161 82.2291 116.5 82.5705 116.742C82.9152 116.984 83.3195 117.105 83.7836 117.105C84.0885 117.105 84.3652 117.052 84.6138 116.946C84.8624 116.84 85.0729 116.688 85.2452 116.489C85.4176 116.29 85.5402 116.051 85.6131 115.773H86.7864C86.7201 116.223 86.556 116.629 86.2942 116.991C86.0357 117.349 85.6926 117.634 85.2651 117.846C84.8409 118.055 84.347 118.159 83.7836 118.159ZM91.7033 118.159C90.9675 118.159 90.3328 117.997 89.7992 117.672C89.2689 117.344 88.8596 116.886 88.5712 116.3C88.2862 115.71 88.1436 115.024 88.1436 114.241C88.1436 113.459 88.2862 112.77 88.5712 112.173C88.8596 111.573 89.2606 111.106 89.7743 110.771C90.2914 110.433 90.8946 110.264 91.584 110.264C91.9817 110.264 92.3745 110.33 92.7623 110.463C93.15 110.596 93.503 110.811 93.8212 111.109C94.1394 111.404 94.3929 111.795 94.5819 112.283C94.7708 112.77 94.8652 113.37 94.8652 114.082V114.58H88.9789V113.565H93.6721C93.6721 113.134 93.5859 112.75 93.4135 112.412C93.2445 112.074 93.0025 111.807 92.6877 111.612C92.3761 111.416 92.0082 111.318 91.584 111.318C91.1167 111.318 90.7123 111.434 90.3709 111.666C90.0328 111.895 89.7727 112.193 89.5904 112.561C89.4081 112.929 89.3169 113.323 89.3169 113.744V114.42C89.3169 114.997 89.4164 115.486 89.6152 115.887C89.8174 116.285 90.0975 116.588 90.4554 116.797C90.8134 117.002 91.2293 117.105 91.7033 117.105C92.0115 117.105 92.29 117.062 92.5385 116.976C92.7904 116.886 93.0075 116.754 93.1898 116.578C93.3721 116.399 93.513 116.177 93.6124 115.912L94.7459 116.23C94.6266 116.615 94.4261 116.953 94.1444 117.244C93.8626 117.533 93.5146 117.758 93.1003 117.92C92.686 118.08 92.2203 118.159 91.7033 118.159ZM99.5336 118.159C98.8972 118.159 98.3354 117.998 97.8482 117.677C97.361 117.352 96.9798 116.895 96.7047 116.305C96.4296 115.711 96.2921 115.01 96.2921 114.202C96.2921 113.4 96.4296 112.704 96.7047 112.114C96.9798 111.524 97.3626 111.068 97.8532 110.746C98.3437 110.425 98.9105 110.264 99.5534 110.264C100.051 110.264 100.443 110.347 100.732 110.513C101.023 110.675 101.245 110.861 101.398 111.07C101.554 111.275 101.675 111.444 101.761 111.577H101.86V107.818H103.034V118H101.9V116.827H101.761C101.675 116.966 101.552 117.142 101.393 117.354C101.234 117.562 101.007 117.75 100.712 117.915C100.417 118.078 100.024 118.159 99.5336 118.159ZM99.6926 117.105C100.163 117.105 100.561 116.982 100.886 116.737C101.211 116.489 101.458 116.146 101.627 115.708C101.796 115.267 101.88 114.759 101.88 114.182C101.88 113.612 101.797 113.113 101.632 112.685C101.466 112.254 101.221 111.92 100.896 111.681C100.571 111.439 100.17 111.318 99.6926 111.318C99.1955 111.318 98.7812 111.446 98.4498 111.701C98.1216 111.953 97.8747 112.296 97.709 112.73C97.5466 113.161 97.4654 113.645 97.4654 114.182C97.4654 114.725 97.5482 115.219 97.714 115.663C97.883 116.104 98.1316 116.455 98.4597 116.717C98.7911 116.976 99.2021 117.105 99.6926 117.105ZM116.402 111C116.293 110.665 116.149 110.365 115.97 110.1C115.794 109.832 115.584 109.603 115.338 109.414C115.096 109.225 114.821 109.081 114.513 108.982C114.205 108.882 113.867 108.832 113.499 108.832C112.896 108.832 112.347 108.988 111.853 109.3C111.359 109.611 110.967 110.07 110.675 110.677C110.383 111.283 110.237 112.027 110.237 112.909C110.237 113.791 110.385 114.535 110.68 115.141C110.975 115.748 111.374 116.207 111.878 116.518C112.382 116.83 112.949 116.986 113.578 116.986C114.162 116.986 114.675 116.862 115.119 116.613C115.567 116.361 115.915 116.006 116.164 115.549C116.415 115.088 116.541 114.546 116.541 113.923L116.919 114.003H113.857V112.909H117.735V114.003C117.735 114.841 117.556 115.571 117.198 116.19C116.843 116.81 116.352 117.291 115.726 117.632C115.103 117.97 114.387 118.139 113.578 118.139C112.677 118.139 111.885 117.927 111.202 117.503C110.522 117.079 109.992 116.475 109.611 115.693C109.233 114.911 109.044 113.983 109.044 112.909C109.044 112.104 109.152 111.379 109.367 110.737C109.586 110.09 109.894 109.54 110.292 109.086C110.69 108.632 111.16 108.284 111.704 108.042C112.248 107.8 112.846 107.679 113.499 107.679C114.036 107.679 114.536 107.76 115 107.923C115.468 108.082 115.883 108.309 116.248 108.604C116.616 108.895 116.923 109.245 117.168 109.653C117.413 110.057 117.582 110.506 117.675 111H116.402ZM122.789 118.159C122.1 118.159 121.495 117.995 120.975 117.667C120.458 117.339 120.053 116.88 119.762 116.29C119.473 115.7 119.329 115.01 119.329 114.222C119.329 113.426 119.473 112.732 119.762 112.138C120.053 111.545 120.458 111.085 120.975 110.756C121.495 110.428 122.1 110.264 122.789 110.264C123.479 110.264 124.082 110.428 124.599 110.756C125.119 111.085 125.524 111.545 125.812 112.138C126.104 112.732 126.25 113.426 126.25 114.222C126.25 115.01 126.104 115.7 125.812 116.29C125.524 116.88 125.119 117.339 124.599 117.667C124.082 117.995 123.479 118.159 122.789 118.159ZM122.789 117.105C123.313 117.105 123.744 116.971 124.082 116.702C124.42 116.434 124.67 116.081 124.833 115.643C124.995 115.206 125.076 114.732 125.076 114.222C125.076 113.711 124.995 113.236 124.833 112.795C124.67 112.354 124.42 111.998 124.082 111.726C123.744 111.454 123.313 111.318 122.789 111.318C122.266 111.318 121.835 111.454 121.497 111.726C121.159 111.998 120.908 112.354 120.746 112.795C120.584 113.236 120.502 113.711 120.502 114.222C120.502 114.732 120.584 115.206 120.746 115.643C120.908 116.081 121.159 116.434 121.497 116.702C121.835 116.971 122.266 117.105 122.789 117.105ZM131.143 118.159C130.454 118.159 129.849 117.995 129.328 117.667C128.811 117.339 128.407 116.88 128.115 116.29C127.827 115.7 127.683 115.01 127.683 114.222C127.683 113.426 127.827 112.732 128.115 112.138C128.407 111.545 128.811 111.085 129.328 110.756C129.849 110.428 130.454 110.264 131.143 110.264C131.832 110.264 132.436 110.428 132.953 110.756C133.473 111.085 133.877 111.545 134.166 112.138C134.457 112.732 134.603 113.426 134.603 114.222C134.603 115.01 134.457 115.7 134.166 116.29C133.877 116.88 133.473 117.339 132.953 117.667C132.436 117.995 131.832 118.159 131.143 118.159ZM131.143 117.105C131.667 117.105 132.097 116.971 132.436 116.702C132.774 116.434 133.024 116.081 133.186 115.643C133.349 115.206 133.43 114.732 133.43 114.222C133.43 113.711 133.349 113.236 133.186 112.795C133.024 112.354 132.774 111.998 132.436 111.726C132.097 111.454 131.667 111.318 131.143 111.318C130.619 111.318 130.188 111.454 129.85 111.726C129.512 111.998 129.262 112.354 129.1 112.795C128.937 113.236 128.856 113.711 128.856 114.222C128.856 114.732 128.937 115.206 129.1 115.643C129.262 116.081 129.512 116.434 129.85 116.702C130.188 116.971 130.619 117.105 131.143 117.105ZM139.477 121.023C138.91 121.023 138.423 120.95 138.015 120.804C137.607 120.661 137.268 120.473 136.996 120.237C136.727 120.005 136.513 119.757 136.354 119.491L137.289 118.835C137.395 118.974 137.529 119.134 137.692 119.312C137.854 119.495 138.076 119.652 138.358 119.785C138.643 119.921 139.016 119.989 139.477 119.989C140.093 119.989 140.602 119.839 141.003 119.541C141.404 119.243 141.604 118.776 141.604 118.139V116.588H141.505C141.419 116.727 141.296 116.9 141.137 117.105C140.981 117.307 140.756 117.488 140.461 117.647C140.169 117.803 139.775 117.881 139.278 117.881C138.661 117.881 138.108 117.735 137.617 117.443C137.13 117.152 136.744 116.727 136.459 116.17C136.177 115.614 136.036 114.937 136.036 114.142C136.036 113.36 136.174 112.679 136.449 112.099C136.724 111.515 137.107 111.065 137.597 110.746C138.088 110.425 138.655 110.264 139.298 110.264C139.795 110.264 140.189 110.347 140.481 110.513C140.776 110.675 141.001 110.861 141.157 111.07C141.316 111.275 141.439 111.444 141.525 111.577H141.644V110.364H142.778V118.219C142.778 118.875 142.629 119.409 142.33 119.82C142.035 120.234 141.638 120.537 141.137 120.729C140.64 120.925 140.086 121.023 139.477 121.023ZM139.437 116.827C139.907 116.827 140.305 116.719 140.63 116.504C140.955 116.288 141.202 115.978 141.371 115.574C141.54 115.17 141.624 114.686 141.624 114.122C141.624 113.572 141.541 113.086 141.376 112.665C141.21 112.245 140.965 111.915 140.64 111.676C140.315 111.437 139.914 111.318 139.437 111.318C138.94 111.318 138.525 111.444 138.194 111.696C137.866 111.948 137.619 112.286 137.453 112.71C137.291 113.134 137.21 113.605 137.21 114.122C137.21 114.652 137.292 115.121 137.458 115.529C137.627 115.933 137.876 116.252 138.204 116.484C138.535 116.712 138.946 116.827 139.437 116.827ZM146.099 107.818V118H144.925V107.818H146.099ZM151.449 118.159C150.714 118.159 150.079 117.997 149.545 117.672C149.015 117.344 148.606 116.886 148.317 116.3C148.032 115.71 147.89 115.024 147.89 114.241C147.89 113.459 148.032 112.77 148.317 112.173C148.606 111.573 149.007 111.106 149.52 110.771C150.037 110.433 150.641 110.264 151.33 110.264C151.728 110.264 152.121 110.33 152.508 110.463C152.896 110.596 153.249 110.811 153.567 111.109C153.885 111.404 154.139 111.795 154.328 112.283C154.517 112.77 154.611 113.37 154.611 114.082V114.58H148.725V113.565H153.418C153.418 113.134 153.332 112.75 153.16 112.412C152.991 112.074 152.749 111.807 152.434 111.612C152.122 111.416 151.754 111.318 151.33 111.318C150.863 111.318 150.458 111.434 150.117 111.666C149.779 111.895 149.519 112.193 149.336 112.561C149.154 112.929 149.063 113.323 149.063 113.744V114.42C149.063 114.997 149.162 115.486 149.361 115.887C149.564 116.285 149.844 116.588 150.202 116.797C150.559 117.002 150.975 117.105 151.449 117.105C151.758 117.105 152.036 117.062 152.285 116.976C152.537 116.886 152.754 116.754 152.936 116.578C153.118 116.399 153.259 116.177 153.358 115.912L154.492 116.23C154.373 116.615 154.172 116.953 153.89 117.244C153.609 117.533 153.261 117.758 152.846 117.92C152.432 118.08 151.966 118.159 151.449 118.159ZM160.91 118H159.618L163.356 107.818H164.629L168.368 118H167.075L164.032 109.429H163.953L160.91 118ZM161.388 114.023H166.598V115.116H161.388V114.023ZM172.678 118.159C172.042 118.159 171.48 117.998 170.993 117.677C170.506 117.352 170.124 116.895 169.849 116.305C169.574 115.711 169.437 115.01 169.437 114.202C169.437 113.4 169.574 112.704 169.849 112.114C170.124 111.524 170.507 111.068 170.998 110.746C171.488 110.425 172.055 110.264 172.698 110.264C173.195 110.264 173.588 110.347 173.876 110.513C174.168 110.675 174.39 110.861 174.542 111.07C174.698 111.275 174.819 111.444 174.905 111.577H175.005V107.818H176.178V118H175.045V116.827H174.905C174.819 116.966 174.697 117.142 174.537 117.354C174.378 117.562 174.151 117.75 173.856 117.915C173.561 118.078 173.169 118.159 172.678 118.159ZM172.837 117.105C173.308 117.105 173.706 116.982 174.03 116.737C174.355 116.489 174.602 116.146 174.771 115.708C174.94 115.267 175.025 114.759 175.025 114.182C175.025 113.612 174.942 113.113 174.776 112.685C174.61 112.254 174.365 111.92 174.04 111.681C173.715 111.439 173.314 111.318 172.837 111.318C172.34 111.318 171.926 111.446 171.594 111.701C171.266 111.953 171.019 112.296 170.854 112.73C170.691 113.161 170.61 113.645 170.61 114.182C170.61 114.725 170.693 115.219 170.858 115.663C171.028 116.104 171.276 116.455 171.604 116.717C171.936 116.976 172.347 117.105 172.837 117.105ZM183.899 112.074L182.845 112.372C182.779 112.196 182.681 112.026 182.552 111.86C182.426 111.691 182.253 111.552 182.035 111.442C181.816 111.333 181.536 111.278 181.194 111.278C180.727 111.278 180.338 111.386 180.026 111.602C179.718 111.814 179.564 112.084 179.564 112.412C179.564 112.704 179.67 112.934 179.882 113.103C180.094 113.272 180.425 113.413 180.876 113.526L182.01 113.804C182.693 113.97 183.201 114.223 183.536 114.565C183.871 114.903 184.038 115.339 184.038 115.872C184.038 116.31 183.912 116.701 183.66 117.045C183.412 117.39 183.064 117.662 182.616 117.861C182.169 118.06 181.648 118.159 181.055 118.159C180.276 118.159 179.632 117.99 179.121 117.652C178.611 117.314 178.288 116.82 178.152 116.17L179.265 115.892C179.372 116.303 179.572 116.611 179.867 116.817C180.165 117.022 180.555 117.125 181.035 117.125C181.582 117.125 182.016 117.009 182.338 116.777C182.663 116.542 182.825 116.26 182.825 115.932C182.825 115.667 182.732 115.445 182.547 115.266C182.361 115.083 182.076 114.947 181.692 114.858L180.419 114.56C179.72 114.394 179.206 114.137 178.878 113.789C178.553 113.438 178.39 112.999 178.39 112.472C178.39 112.041 178.511 111.66 178.753 111.328C178.999 110.997 179.332 110.737 179.753 110.548C180.177 110.359 180.657 110.264 181.194 110.264C181.95 110.264 182.543 110.43 182.974 110.761C183.408 111.093 183.717 111.53 183.899 112.074ZM29.9375 139.097C29.5365 139.097 29.1702 138.999 28.8388 138.803C28.5073 138.604 28.2422 138.339 28.0433 138.008C27.8478 137.676 27.75 137.31 27.75 136.909C27.75 136.505 27.8478 136.138 28.0433 135.81C28.2422 135.479 28.5073 135.215 28.8388 135.02C29.1702 134.821 29.5365 134.722 29.9375 134.722C30.3419 134.722 30.7081 134.821 31.0362 135.02C31.3677 135.215 31.6312 135.479 31.8267 135.81C32.0256 136.138 32.125 136.505 32.125 136.909C32.125 137.31 32.0256 137.676 31.8267 138.008C31.6312 138.339 31.3677 138.604 31.0362 138.803C30.7081 138.999 30.3419 139.097 29.9375 139.097ZM47.2386 135H46.0057C45.9328 134.645 45.8052 134.334 45.6229 134.065C45.4439 133.797 45.2251 133.571 44.9666 133.389C44.7114 133.204 44.428 133.064 44.1165 132.972C43.8049 132.879 43.4801 132.832 43.142 132.832C42.5256 132.832 41.9671 132.988 41.4666 133.3C40.9695 133.611 40.5734 134.07 40.2784 134.677C39.9867 135.283 39.8409 136.027 39.8409 136.909C39.8409 137.791 39.9867 138.535 40.2784 139.141C40.5734 139.748 40.9695 140.207 41.4666 140.518C41.9671 140.83 42.5256 140.986 43.142 140.986C43.4801 140.986 43.8049 140.939 44.1165 140.847C44.428 140.754 44.7114 140.616 44.9666 140.434C45.2251 140.248 45.4439 140.021 45.6229 139.753C45.8052 139.481 45.9328 139.17 46.0057 138.818H47.2386C47.1458 139.339 46.9768 139.804 46.7315 140.215C46.4863 140.626 46.1813 140.976 45.8168 141.264C45.4522 141.549 45.0429 141.766 44.5888 141.915C44.138 142.065 43.6558 142.139 43.142 142.139C42.2737 142.139 41.5014 141.927 40.8253 141.503C40.1491 141.079 39.6172 140.475 39.2294 139.693C38.8416 138.911 38.6477 137.983 38.6477 136.909C38.6477 135.835 38.8416 134.907 39.2294 134.125C39.6172 133.343 40.1491 132.74 40.8253 132.315C41.5014 131.891 42.2737 131.679 43.142 131.679C43.6558 131.679 44.138 131.754 44.5888 131.903C45.0429 132.052 45.4522 132.271 45.8168 132.559C46.1813 132.844 46.4863 133.192 46.7315 133.603C46.9768 134.011 47.1458 134.476 47.2386 135ZM52.1742 142.159C51.4848 142.159 50.8799 141.995 50.3596 141.667C49.8425 141.339 49.4382 140.88 49.1465 140.29C48.8581 139.7 48.714 139.01 48.714 138.222C48.714 137.426 48.8581 136.732 49.1465 136.138C49.4382 135.545 49.8425 135.085 50.3596 134.756C50.8799 134.428 51.4848 134.264 52.1742 134.264C52.8636 134.264 53.4668 134.428 53.9838 134.756C54.5042 135.085 54.9086 135.545 55.1969 136.138C55.4886 136.732 55.6344 137.426 55.6344 138.222C55.6344 139.01 55.4886 139.7 55.1969 140.29C54.9086 140.88 54.5042 141.339 53.9838 141.667C53.4668 141.995 52.8636 142.159 52.1742 142.159ZM52.1742 141.105C52.6979 141.105 53.1287 140.971 53.4668 140.702C53.8049 140.434 54.0551 140.081 54.2175 139.643C54.3799 139.206 54.4611 138.732 54.4611 138.222C54.4611 137.711 54.3799 137.236 54.2175 136.795C54.0551 136.354 53.8049 135.998 53.4668 135.726C53.1287 135.454 52.6979 135.318 52.1742 135.318C51.6505 135.318 51.2196 135.454 50.8816 135.726C50.5435 135.998 50.2933 136.354 50.1309 136.795C49.9685 137.236 49.8873 137.711 49.8873 138.222C49.8873 138.732 49.9685 139.206 50.1309 139.643C50.2933 140.081 50.5435 140.434 50.8816 140.702C51.2196 140.971 51.6505 141.105 52.1742 141.105ZM58.5987 137.406V142H57.4254V134.364H58.5589V135.557H58.6584C58.8374 135.169 59.1091 134.857 59.4737 134.622C59.8383 134.384 60.3089 134.264 60.8857 134.264C61.4027 134.264 61.8551 134.37 62.2429 134.582C62.6307 134.791 62.9323 135.109 63.1477 135.537C63.3632 135.961 63.4709 136.498 63.4709 137.148V142H62.2976V137.227C62.2976 136.627 62.1418 136.16 61.8303 135.825C61.5187 135.487 61.0911 135.318 60.5476 135.318C60.1731 135.318 59.8383 135.399 59.5433 135.562C59.2517 135.724 59.0213 135.961 58.8523 136.273C58.6832 136.584 58.5987 136.962 58.5987 137.406ZM68.9359 134.364V135.358H64.9785V134.364H68.9359ZM66.1319 132.534H67.3052V139.812C67.3052 140.144 67.3533 140.393 67.4494 140.558C67.5488 140.721 67.6748 140.83 67.8272 140.886C67.983 140.939 68.1471 140.966 68.3194 140.966C68.4487 140.966 68.5547 140.959 68.6376 140.946C68.7205 140.929 68.7868 140.916 68.8365 140.906L69.0751 141.96C68.9956 141.99 68.8845 142.02 68.742 142.05C68.5995 142.083 68.4189 142.099 68.2001 142.099C67.8687 142.099 67.5439 142.028 67.2257 141.886C66.9108 141.743 66.649 141.526 66.4402 141.234C66.2347 140.943 66.1319 140.575 66.1319 140.131V132.534ZM73.8205 142.159C73.0847 142.159 72.45 141.997 71.9164 141.672C71.3861 141.344 70.9767 140.886 70.6884 140.3C70.4033 139.71 70.2608 139.024 70.2608 138.241C70.2608 137.459 70.4033 136.77 70.6884 136.173C70.9767 135.573 71.3778 135.106 71.8915 134.771C72.4086 134.433 73.0118 134.264 73.7012 134.264C74.0989 134.264 74.4917 134.33 74.8794 134.463C75.2672 134.596 75.6202 134.811 75.9384 135.109C76.2566 135.404 76.5101 135.795 76.699 136.283C76.888 136.77 76.9824 137.37 76.9824 138.082V138.58H71.0961V137.565H75.7892C75.7892 137.134 75.7031 136.75 75.5307 136.412C75.3617 136.074 75.1197 135.807 74.8049 135.612C74.4933 135.416 74.1254 135.318 73.7012 135.318C73.2338 135.318 72.8295 135.434 72.4881 135.666C72.15 135.895 71.8899 136.193 71.7076 136.561C71.5253 136.929 71.4341 137.323 71.4341 137.744V138.42C71.4341 138.997 71.5336 139.486 71.7324 139.887C71.9346 140.285 72.2147 140.588 72.5726 140.797C72.9306 141.002 73.3465 141.105 73.8205 141.105C74.1287 141.105 74.4071 141.062 74.6557 140.976C74.9076 140.886 75.1247 140.754 75.307 140.578C75.4893 140.399 75.6301 140.177 75.7296 139.912L76.8631 140.23C76.7438 140.615 76.5433 140.953 76.2615 141.244C75.9798 141.533 75.6318 141.758 75.2175 141.92C74.8032 142.08 74.3375 142.159 73.8205 142.159ZM79.9405 137.406V142H78.7672V134.364H79.9007V135.557H80.0002C80.1792 135.169 80.4509 134.857 80.8155 134.622C81.1801 134.384 81.6507 134.264 82.2275 134.264C82.7445 134.264 83.1969 134.37 83.5847 134.582C83.9725 134.791 84.2741 135.109 84.4895 135.537C84.705 135.961 84.8127 136.498 84.8127 137.148V142H83.6394V137.227C83.6394 136.627 83.4836 136.16 83.1721 135.825C82.8605 135.487 82.4329 135.318 81.8894 135.318C81.5149 135.318 81.1801 135.399 80.8851 135.562C80.5935 135.724 80.3631 135.961 80.1941 136.273C80.025 136.584 79.9405 136.962 79.9405 137.406ZM90.2777 134.364V135.358H86.3203V134.364H90.2777ZM87.4737 132.534H88.647V139.812C88.647 140.144 88.6951 140.393 88.7912 140.558C88.8906 140.721 89.0166 140.83 89.169 140.886C89.3248 140.939 89.4889 140.966 89.6612 140.966C89.7905 140.966 89.8965 140.959 89.9794 140.946C90.0623 140.929 90.1286 140.916 90.1783 140.906L90.4169 141.96C90.3374 141.99 90.2263 142.02 90.0838 142.05C89.9413 142.083 89.7607 142.099 89.5419 142.099C89.2105 142.099 88.8857 142.028 88.5675 141.886C88.2526 141.743 87.9908 141.526 87.782 141.234C87.5765 140.943 87.4737 140.575 87.4737 140.131V132.534ZM96.1392 131.818H97.6108L101.071 140.27H101.19L104.651 131.818H106.122V142H104.969V134.264H104.869L101.688 142H100.574L97.392 134.264H97.2926V142H96.1392V131.818ZM110.682 142.179C110.198 142.179 109.759 142.088 109.365 141.906C108.97 141.72 108.657 141.453 108.425 141.105C108.193 140.754 108.077 140.33 108.077 139.832C108.077 139.395 108.163 139.04 108.336 138.768C108.508 138.493 108.738 138.278 109.027 138.122C109.315 137.966 109.633 137.85 109.981 137.774C110.333 137.695 110.686 137.632 111.04 137.585C111.504 137.526 111.881 137.481 112.169 137.451C112.461 137.418 112.673 137.363 112.805 137.287C112.941 137.211 113.009 137.078 113.009 136.889V136.849C113.009 136.359 112.875 135.978 112.606 135.706C112.341 135.434 111.939 135.298 111.398 135.298C110.838 135.298 110.399 135.421 110.081 135.666C109.763 135.911 109.539 136.173 109.41 136.452L108.296 136.054C108.495 135.59 108.76 135.229 109.091 134.97C109.426 134.708 109.791 134.526 110.185 134.423C110.583 134.317 110.974 134.264 111.358 134.264C111.604 134.264 111.885 134.294 112.204 134.354C112.525 134.41 112.835 134.528 113.133 134.707C113.435 134.886 113.685 135.156 113.884 135.517C114.083 135.878 114.182 136.362 114.182 136.969V142H113.009V140.966H112.949C112.87 141.132 112.737 141.309 112.552 141.498C112.366 141.687 112.119 141.848 111.811 141.98C111.503 142.113 111.126 142.179 110.682 142.179ZM110.861 141.125C111.325 141.125 111.716 141.034 112.035 140.852C112.356 140.669 112.598 140.434 112.76 140.146C112.926 139.857 113.009 139.554 113.009 139.236V138.162C112.959 138.222 112.85 138.276 112.681 138.326C112.515 138.372 112.323 138.414 112.104 138.45C111.889 138.483 111.678 138.513 111.473 138.54C111.271 138.563 111.107 138.583 110.981 138.599C110.676 138.639 110.391 138.704 110.126 138.793C109.864 138.879 109.652 139.01 109.489 139.186C109.33 139.358 109.251 139.594 109.251 139.892C109.251 140.3 109.401 140.608 109.703 140.817C110.008 141.022 110.394 141.125 110.861 141.125ZM116.324 142V134.364H117.457V135.517H117.537C117.676 135.139 117.928 134.833 118.293 134.597C118.657 134.362 119.068 134.244 119.526 134.244C119.612 134.244 119.719 134.246 119.849 134.249C119.978 134.253 120.076 134.258 120.142 134.264V135.457C120.102 135.447 120.011 135.433 119.869 135.413C119.729 135.389 119.582 135.378 119.426 135.378C119.055 135.378 118.723 135.456 118.432 135.612C118.143 135.764 117.915 135.976 117.746 136.248C117.58 136.516 117.497 136.823 117.497 137.168V142H116.324ZM122.627 139.216L122.607 137.764H122.845L126.186 134.364H127.638L124.078 137.963H123.979L122.627 139.216ZM121.533 142V131.818H122.706V142H121.533ZM126.385 142L123.402 138.222L124.237 137.406L127.877 142H126.385ZM132.035 142.159C131.3 142.159 130.665 141.997 130.131 141.672C129.601 141.344 129.192 140.886 128.903 140.3C128.618 139.71 128.476 139.024 128.476 138.241C128.476 137.459 128.618 136.77 128.903 136.173C129.192 135.573 129.593 135.106 130.106 134.771C130.623 134.433 131.227 134.264 131.916 134.264C132.314 134.264 132.706 134.33 133.094 134.463C133.482 134.596 133.835 134.811 134.153 135.109C134.471 135.404 134.725 135.795 134.914 136.283C135.103 136.77 135.197 137.37 135.197 138.082V138.58H129.311V137.565H134.004C134.004 137.134 133.918 136.75 133.746 136.412C133.577 136.074 133.335 135.807 133.02 135.612C132.708 135.416 132.34 135.318 131.916 135.318C131.449 135.318 131.044 135.434 130.703 135.666C130.365 135.895 130.105 136.193 129.922 136.561C129.74 136.929 129.649 137.323 129.649 137.744V138.42C129.649 138.997 129.748 139.486 129.947 139.887C130.149 140.285 130.43 140.588 130.787 140.797C131.145 141.002 131.561 141.105 132.035 141.105C132.344 141.105 132.622 141.062 132.871 140.976C133.122 140.886 133.34 140.754 133.522 140.578C133.704 140.399 133.845 140.177 133.944 139.912L135.078 140.23C134.959 140.615 134.758 140.953 134.476 141.244C134.195 141.533 133.847 141.758 133.432 141.92C133.018 142.08 132.552 142.159 132.035 142.159ZM140.303 134.364V135.358H136.346V134.364H140.303ZM137.499 132.534H138.672V139.812C138.672 140.144 138.72 140.393 138.817 140.558C138.916 140.721 139.042 140.83 139.194 140.886C139.35 140.939 139.514 140.966 139.687 140.966C139.816 140.966 139.922 140.959 140.005 140.946C140.088 140.929 140.154 140.916 140.204 140.906L140.442 141.96C140.363 141.99 140.252 142.02 140.109 142.05C139.967 142.083 139.786 142.099 139.567 142.099C139.236 142.099 138.911 142.028 138.593 141.886C138.278 141.743 138.016 141.526 137.807 141.234C137.602 140.943 137.499 140.575 137.499 140.131V132.534ZM142.068 142V134.364H143.241V142H142.068ZM142.665 133.091C142.436 133.091 142.239 133.013 142.073 132.857C141.911 132.701 141.829 132.514 141.829 132.295C141.829 132.077 141.911 131.889 142.073 131.734C142.239 131.578 142.436 131.5 142.665 131.5C142.893 131.5 143.089 131.578 143.251 131.734C143.417 131.889 143.5 132.077 143.5 132.295C143.5 132.514 143.417 132.701 143.251 132.857C143.089 133.013 142.893 133.091 142.665 133.091ZM146.564 137.406V142H145.39V134.364H146.524V135.557H146.623C146.802 135.169 147.074 134.857 147.439 134.622C147.803 134.384 148.274 134.264 148.85 134.264C149.368 134.264 149.82 134.37 150.208 134.582C150.596 134.791 150.897 135.109 151.113 135.537C151.328 135.961 151.436 136.498 151.436 137.148V142H150.262V137.227C150.262 136.627 150.107 136.16 149.795 135.825C149.484 135.487 149.056 135.318 148.512 135.318C148.138 135.318 147.803 135.399 147.508 135.562C147.217 135.724 146.986 135.961 146.817 136.273C146.648 136.584 146.564 136.962 146.564 137.406ZM156.662 145.023C156.095 145.023 155.608 144.95 155.2 144.804C154.793 144.661 154.453 144.473 154.181 144.237C153.913 144.005 153.699 143.757 153.54 143.491L154.475 142.835C154.581 142.974 154.715 143.134 154.877 143.312C155.04 143.495 155.262 143.652 155.544 143.785C155.829 143.921 156.201 143.989 156.662 143.989C157.279 143.989 157.787 143.839 158.188 143.541C158.589 143.243 158.79 142.776 158.79 142.139V140.588H158.691C158.604 140.727 158.482 140.9 158.323 141.105C158.167 141.307 157.941 141.488 157.646 141.647C157.355 141.803 156.96 141.881 156.463 141.881C155.847 141.881 155.293 141.735 154.803 141.443C154.316 141.152 153.929 140.727 153.644 140.17C153.363 139.614 153.222 138.937 153.222 138.142C153.222 137.36 153.359 136.679 153.634 136.099C153.91 135.515 154.292 135.065 154.783 134.746C155.273 134.425 155.84 134.264 156.483 134.264C156.98 134.264 157.375 134.347 157.666 134.513C157.961 134.675 158.187 134.861 158.343 135.07C158.502 135.275 158.624 135.444 158.71 135.577H158.83V134.364H159.963V142.219C159.963 142.875 159.814 143.409 159.516 143.82C159.221 144.234 158.823 144.537 158.323 144.729C157.825 144.925 157.272 145.023 156.662 145.023ZM156.622 140.827C157.093 140.827 157.491 140.719 157.816 140.504C158.14 140.288 158.387 139.978 158.556 139.574C158.725 139.17 158.81 138.686 158.81 138.122C158.81 137.572 158.727 137.086 158.561 136.665C158.396 136.245 158.15 135.915 157.825 135.676C157.501 135.437 157.1 135.318 156.622 135.318C156.125 135.318 155.711 135.444 155.379 135.696C155.051 135.948 154.804 136.286 154.639 136.71C154.476 137.134 154.395 137.605 154.395 138.122C154.395 138.652 154.478 139.121 154.644 139.529C154.813 139.933 155.061 140.252 155.389 140.484C155.721 140.712 156.132 140.827 156.622 140.827ZM174.401 135H173.168C173.095 134.645 172.967 134.334 172.785 134.065C172.606 133.797 172.387 133.571 172.129 133.389C171.874 133.204 171.59 133.064 171.279 132.972C170.967 132.879 170.642 132.832 170.304 132.832C169.688 132.832 169.129 132.988 168.629 133.3C168.132 133.611 167.735 134.07 167.441 134.677C167.149 135.283 167.003 136.027 167.003 136.909C167.003 137.791 167.149 138.535 167.441 139.141C167.735 139.748 168.132 140.207 168.629 140.518C169.129 140.83 169.688 140.986 170.304 140.986C170.642 140.986 170.967 140.939 171.279 140.847C171.59 140.754 171.874 140.616 172.129 140.434C172.387 140.248 172.606 140.021 172.785 139.753C172.967 139.481 173.095 139.17 173.168 138.818H174.401C174.308 139.339 174.139 139.804 173.894 140.215C173.648 140.626 173.343 140.976 172.979 141.264C172.614 141.549 172.205 141.766 171.751 141.915C171.3 142.065 170.818 142.139 170.304 142.139C169.436 142.139 168.664 141.927 167.987 141.503C167.311 141.079 166.779 140.475 166.392 139.693C166.004 138.911 165.81 137.983 165.81 136.909C165.81 135.835 166.004 134.907 166.392 134.125C166.779 133.343 167.311 132.74 167.987 132.315C168.664 131.891 169.436 131.679 170.304 131.679C170.818 131.679 171.3 131.754 171.751 131.903C172.205 132.052 172.614 132.271 172.979 132.559C173.343 132.844 173.648 133.192 173.894 133.603C174.139 134.011 174.308 134.476 174.401 135ZM179.436 142.159C178.7 142.159 178.065 141.997 177.532 141.672C177.001 141.344 176.592 140.886 176.304 140.3C176.019 139.71 175.876 139.024 175.876 138.241C175.876 137.459 176.019 136.77 176.304 136.173C176.592 135.573 176.993 135.106 177.507 134.771C178.024 134.433 178.627 134.264 179.316 134.264C179.714 134.264 180.107 134.33 180.495 134.463C180.882 134.596 181.235 134.811 181.554 135.109C181.872 135.404 182.125 135.795 182.314 136.283C182.503 136.77 182.598 137.37 182.598 138.082V138.58H176.711V137.565H181.404C181.404 137.134 181.318 136.75 181.146 136.412C180.977 136.074 180.735 135.807 180.42 135.612C180.109 135.416 179.741 135.318 179.316 135.318C178.849 135.318 178.445 135.434 178.103 135.666C177.765 135.895 177.505 136.193 177.323 136.561C177.141 136.929 177.049 137.323 177.049 137.744V138.42C177.049 138.997 177.149 139.486 177.348 139.887C177.55 140.285 177.83 140.588 178.188 140.797C178.546 141.002 178.962 141.105 179.436 141.105C179.744 141.105 180.022 141.062 180.271 140.976C180.523 140.886 180.74 140.754 180.922 140.578C181.105 140.399 181.245 140.177 181.345 139.912L182.478 140.23C182.359 140.615 182.158 140.953 181.877 141.244C181.595 141.533 181.247 141.758 180.833 141.92C180.418 142.08 179.953 142.159 179.436 142.159ZM184.382 142V134.364H185.516V135.517H185.596C185.735 135.139 185.987 134.833 186.351 134.597C186.716 134.362 187.127 134.244 187.584 134.244C187.67 134.244 187.778 134.246 187.907 134.249C188.037 134.253 188.134 134.258 188.201 134.264V135.457C188.161 135.447 188.07 135.433 187.927 135.413C187.788 135.389 187.641 135.378 187.485 135.378C187.114 135.378 186.782 135.456 186.49 135.612C186.202 135.764 185.973 135.976 185.804 136.248C185.639 136.516 185.556 136.823 185.556 137.168V142H184.382ZM193.391 134.364V135.358H189.434V134.364H193.391ZM190.587 132.534H191.76V139.812C191.76 140.144 191.808 140.393 191.904 140.558C192.004 140.721 192.13 140.83 192.282 140.886C192.438 140.939 192.602 140.966 192.775 140.966C192.904 140.966 193.01 140.959 193.093 140.946C193.176 140.929 193.242 140.916 193.292 140.906L193.53 141.96C193.451 141.99 193.34 142.02 193.197 142.05C193.055 142.083 192.874 142.099 192.655 142.099C192.324 142.099 191.999 142.028 191.681 141.886C191.366 141.743 191.104 141.526 190.895 141.234C190.69 140.943 190.587 140.575 190.587 140.131V132.534ZM195.156 142V134.364H196.329V142H195.156ZM195.752 133.091C195.524 133.091 195.327 133.013 195.161 132.857C194.998 132.701 194.917 132.514 194.917 132.295C194.917 132.077 194.998 131.889 195.161 131.734C195.327 131.578 195.524 131.5 195.752 131.5C195.981 131.5 196.177 131.578 196.339 131.734C196.505 131.889 196.588 132.077 196.588 132.295C196.588 132.514 196.505 132.701 196.339 132.857C196.177 133.013 195.981 133.091 195.752 133.091ZM201.879 134.364V135.358H197.762V134.364H201.879ZM198.995 142V133.31C198.995 132.872 199.098 132.508 199.303 132.216C199.509 131.924 199.776 131.705 200.104 131.56C200.432 131.414 200.778 131.341 201.143 131.341C201.431 131.341 201.667 131.364 201.849 131.411C202.031 131.457 202.167 131.5 202.257 131.54L201.919 132.554C201.859 132.534 201.776 132.509 201.67 132.479C201.567 132.45 201.431 132.435 201.262 132.435C200.874 132.435 200.594 132.532 200.422 132.728C200.253 132.924 200.169 133.21 200.169 133.588V142H198.995ZM203.523 142V134.364H204.696V142H203.523ZM204.12 133.091C203.891 133.091 203.694 133.013 203.528 132.857C203.366 132.701 203.284 132.514 203.284 132.295C203.284 132.077 203.366 131.889 203.528 131.734C203.694 131.578 203.891 131.5 204.12 131.5C204.348 131.5 204.544 131.578 204.706 131.734C204.872 131.889 204.955 132.077 204.955 132.295C204.955 132.514 204.872 132.701 204.706 132.857C204.544 133.013 204.348 133.091 204.12 133.091ZM210.047 142.159C209.311 142.159 208.677 141.997 208.143 141.672C207.613 141.344 207.203 140.886 206.915 140.3C206.63 139.71 206.487 139.024 206.487 138.241C206.487 137.459 206.63 136.77 206.915 136.173C207.203 135.573 207.604 135.106 208.118 134.771C208.635 134.433 209.238 134.264 209.928 134.264C210.325 134.264 210.718 134.33 211.106 134.463C211.494 134.596 211.847 134.811 212.165 135.109C212.483 135.404 212.737 135.795 212.926 136.283C213.115 136.77 213.209 137.37 213.209 138.082V138.58H207.323V137.565H212.016C212.016 137.134 211.93 136.75 211.757 136.412C211.588 136.074 211.346 135.807 211.031 135.612C210.72 135.416 210.352 135.318 209.928 135.318C209.46 135.318 209.056 135.434 208.715 135.666C208.377 135.895 208.116 136.193 207.934 136.561C207.752 136.929 207.661 137.323 207.661 137.744V138.42C207.661 138.997 207.76 139.486 207.959 139.887C208.161 140.285 208.441 140.588 208.799 140.797C209.157 141.002 209.573 141.105 210.047 141.105C210.355 141.105 210.634 141.062 210.882 140.976C211.134 140.886 211.351 140.754 211.534 140.578C211.716 140.399 211.857 140.177 211.956 139.912L213.09 140.23C212.97 140.615 212.77 140.953 212.488 141.244C212.206 141.533 211.858 141.758 211.444 141.92C211.03 142.08 210.564 142.159 210.047 142.159ZM217.877 142.159C217.241 142.159 216.679 141.998 216.192 141.677C215.705 141.352 215.324 140.895 215.048 140.305C214.773 139.711 214.636 139.01 214.636 138.202C214.636 137.4 214.773 136.704 215.048 136.114C215.324 135.524 215.706 135.068 216.197 134.746C216.687 134.425 217.254 134.264 217.897 134.264C218.394 134.264 218.787 134.347 219.075 134.513C219.367 134.675 219.589 134.861 219.742 135.07C219.897 135.275 220.018 135.444 220.105 135.577H220.204V131.818H221.377V142H220.244V140.827H220.105C220.018 140.966 219.896 141.142 219.737 141.354C219.578 141.562 219.351 141.75 219.056 141.915C218.761 142.078 218.368 142.159 217.877 142.159ZM218.036 141.105C218.507 141.105 218.905 140.982 219.23 140.737C219.554 140.489 219.801 140.146 219.97 139.708C220.139 139.267 220.224 138.759 220.224 138.182C220.224 137.612 220.141 137.113 219.975 136.685C219.81 136.254 219.564 135.92 219.24 135.681C218.915 135.439 218.514 135.318 218.036 135.318C217.539 135.318 217.125 135.446 216.794 135.701C216.465 135.953 216.218 136.296 216.053 136.73C215.89 137.161 215.809 137.645 215.809 138.182C215.809 138.725 215.892 139.219 216.058 139.663C216.227 140.104 216.475 140.455 216.803 140.717C217.135 140.976 217.546 141.105 218.036 141.105ZM29.9375 163.097C29.5365 163.097 29.1702 162.999 28.8388 162.803C28.5073 162.604 28.2422 162.339 28.0433 162.008C27.8478 161.676 27.75 161.31 27.75 160.909C27.75 160.505 27.8478 160.138 28.0433 159.81C28.2422 159.479 28.5073 159.215 28.8388 159.02C29.1702 158.821 29.5365 158.722 29.9375 158.722C30.3419 158.722 30.7081 158.821 31.0362 159.02C31.3677 159.215 31.6312 159.479 31.8267 159.81C32.0256 160.138 32.125 160.505 32.125 160.909C32.125 161.31 32.0256 161.676 31.8267 162.008C31.6312 162.339 31.3677 162.604 31.0362 162.803C30.7081 162.999 30.3419 163.097 29.9375 163.097ZM40.2784 155.818V166H39.0455V155.818H40.2784ZM43.7647 161.406V166H42.5914V158.364H43.725V159.557H43.8244C44.0034 159.169 44.2752 158.857 44.6397 158.622C45.0043 158.384 45.475 158.264 46.0517 158.264C46.5687 158.264 47.0211 158.37 47.4089 158.582C47.7967 158.791 48.0983 159.109 48.3137 159.537C48.5292 159.961 48.6369 160.498 48.6369 161.148V166H47.4636V161.227C47.4636 160.627 47.3078 160.16 46.9963 159.825C46.6847 159.487 46.2572 159.318 45.7136 159.318C45.3391 159.318 45.0043 159.399 44.7093 159.562C44.4177 159.724 44.1873 159.961 44.0183 160.273C43.8493 160.584 43.7647 160.962 43.7647 161.406ZM50.94 166V155.818H52.1133V159.577H52.2127C52.2989 159.444 52.4182 159.275 52.5707 159.07C52.7264 158.861 52.9485 158.675 53.2369 158.513C53.5285 158.347 53.9229 158.264 54.4201 158.264C55.0631 158.264 55.6299 158.425 56.1204 158.746C56.6109 159.068 56.9937 159.524 57.2688 160.114C57.5439 160.704 57.6815 161.4 57.6815 162.202C57.6815 163.01 57.5439 163.711 57.2688 164.305C56.9937 164.895 56.6126 165.352 56.1254 165.677C55.6381 165.998 55.0763 166.159 54.44 166.159C53.9495 166.159 53.5567 166.078 53.2617 165.915C52.9667 165.75 52.7397 165.562 52.5806 165.354C52.4215 165.142 52.2989 164.966 52.2127 164.827H52.0735V166H50.94ZM52.0934 162.182C52.0934 162.759 52.1779 163.267 52.3469 163.708C52.516 164.146 52.7629 164.489 53.0877 164.737C53.4125 164.982 53.8103 165.105 54.2809 165.105C54.7714 165.105 55.1808 164.976 55.5089 164.717C55.8403 164.455 56.0889 164.104 56.2546 163.663C56.4237 163.219 56.5082 162.725 56.5082 162.182C56.5082 161.645 56.4253 161.161 56.2596 160.73C56.0972 160.296 55.8503 159.953 55.5188 159.701C55.1907 159.446 54.7781 159.318 54.2809 159.318C53.8036 159.318 53.4026 159.439 53.0778 159.681C52.753 159.92 52.5077 160.254 52.342 160.685C52.1763 161.113 52.0934 161.612 52.0934 162.182ZM62.5785 166.159C61.8891 166.159 61.2842 165.995 60.7638 165.667C60.2468 165.339 59.8424 164.88 59.5508 164.29C59.2624 163.7 59.1183 163.01 59.1183 162.222C59.1183 161.426 59.2624 160.732 59.5508 160.138C59.8424 159.545 60.2468 159.085 60.7638 158.756C61.2842 158.428 61.8891 158.264 62.5785 158.264C63.2679 158.264 63.8711 158.428 64.3881 158.756C64.9085 159.085 65.3129 159.545 65.6012 160.138C65.8929 160.732 66.0387 161.426 66.0387 162.222C66.0387 163.01 65.8929 163.7 65.6012 164.29C65.3129 164.88 64.9085 165.339 64.3881 165.667C63.8711 165.995 63.2679 166.159 62.5785 166.159ZM62.5785 165.105C63.1022 165.105 63.533 164.971 63.8711 164.702C64.2092 164.434 64.4594 164.081 64.6218 163.643C64.7842 163.206 64.8654 162.732 64.8654 162.222C64.8654 161.711 64.7842 161.236 64.6218 160.795C64.4594 160.354 64.2092 159.998 63.8711 159.726C63.533 159.454 63.1022 159.318 62.5785 159.318C62.0548 159.318 61.6239 159.454 61.2859 159.726C60.9478 159.998 60.6976 160.354 60.5352 160.795C60.3728 161.236 60.2915 161.711 60.2915 162.222C60.2915 162.732 60.3728 163.206 60.5352 163.643C60.6976 164.081 60.9478 164.434 61.2859 164.702C61.6239 164.971 62.0548 165.105 62.5785 165.105ZM72.6422 162.878V158.364H73.8155V166H72.6422V164.707H72.5627C72.3837 165.095 72.1053 165.425 71.7275 165.697C71.3496 165.965 70.8723 166.099 70.2956 166.099C69.8184 166.099 69.3941 165.995 69.0229 165.786C68.6517 165.574 68.36 165.256 68.1479 164.832C67.9358 164.404 67.8297 163.866 67.8297 163.216V158.364H69.003V163.136C69.003 163.693 69.1588 164.137 69.4703 164.469C69.7852 164.8 70.1863 164.966 70.6735 164.966C70.9651 164.966 71.2618 164.891 71.5634 164.742C71.8683 164.593 72.1235 164.364 72.329 164.056C72.5378 163.748 72.6422 163.355 72.6422 162.878ZM77.1378 161.406V166H75.9645V158.364H77.098V159.557H77.1974C77.3764 159.169 77.6482 158.857 78.0128 158.622C78.3774 158.384 78.848 158.264 79.4247 158.264C79.9418 158.264 80.3942 158.37 80.782 158.582C81.1697 158.791 81.4714 159.109 81.6868 159.537C81.9022 159.961 82.0099 160.498 82.0099 161.148V166H80.8366V161.227C80.8366 160.627 80.6809 160.16 80.3693 159.825C80.0578 159.487 79.6302 159.318 79.0866 159.318C78.7121 159.318 78.3774 159.399 78.0824 159.562C77.7907 159.724 77.5604 159.961 77.3913 160.273C77.2223 160.584 77.1378 160.962 77.1378 161.406ZM87.0375 166.159C86.4011 166.159 85.8393 165.998 85.3521 165.677C84.8649 165.352 84.4837 164.895 84.2086 164.305C83.9335 163.711 83.796 163.01 83.796 162.202C83.796 161.4 83.9335 160.704 84.2086 160.114C84.4837 159.524 84.8665 159.068 85.3571 158.746C85.8476 158.425 86.4144 158.264 87.0574 158.264C87.5545 158.264 87.9473 158.347 88.2356 158.513C88.5273 158.675 88.7493 158.861 88.9018 159.07C89.0576 159.275 89.1786 159.444 89.2647 159.577H89.3642V155.818H90.5375V166H89.4039V164.827H89.2647C89.1786 164.966 89.0559 165.142 88.8968 165.354C88.7377 165.562 88.5107 165.75 88.2157 165.915C87.9208 166.078 87.528 166.159 87.0375 166.159ZM87.1966 165.105C87.6672 165.105 88.0649 164.982 88.3897 164.737C88.7145 164.489 88.9615 164.146 89.1305 163.708C89.2995 163.267 89.3841 162.759 89.3841 162.182C89.3841 161.612 89.3012 161.113 89.1355 160.685C88.9698 160.254 88.7245 159.92 88.3997 159.681C88.0749 159.439 87.6738 159.318 87.1966 159.318C86.6994 159.318 86.2851 159.446 85.9537 159.701C85.6255 159.953 85.3786 160.296 85.2129 160.73C85.0505 161.161 84.9693 161.645 84.9693 162.182C84.9693 162.725 85.0521 163.219 85.2179 163.663C85.3869 164.104 85.6355 164.455 85.9636 164.717C86.295 164.976 86.706 165.105 87.1966 165.105ZM96.9458 155.818H98.4174L101.878 164.27H101.997L105.457 155.818H106.929V166H105.775V158.264H105.676L102.494 166H101.381L98.1987 158.264H98.0993V166H96.9458V155.818ZM111.489 166.179C111.005 166.179 110.566 166.088 110.172 165.906C109.777 165.72 109.464 165.453 109.232 165.105C109 164.754 108.884 164.33 108.884 163.832C108.884 163.395 108.97 163.04 109.142 162.768C109.315 162.493 109.545 162.278 109.833 162.122C110.122 161.966 110.44 161.85 110.788 161.774C111.139 161.695 111.492 161.632 111.847 161.585C112.311 161.526 112.687 161.481 112.975 161.451C113.267 161.418 113.479 161.363 113.612 161.287C113.748 161.211 113.816 161.078 113.816 160.889V160.849C113.816 160.359 113.681 159.978 113.413 159.706C113.148 159.434 112.745 159.298 112.205 159.298C111.645 159.298 111.206 159.421 110.887 159.666C110.569 159.911 110.346 160.173 110.216 160.452L109.103 160.054C109.301 159.59 109.567 159.229 109.898 158.97C110.233 158.708 110.597 158.526 110.992 158.423C111.39 158.317 111.781 158.264 112.165 158.264C112.41 158.264 112.692 158.294 113.01 158.354C113.332 158.41 113.642 158.528 113.94 158.707C114.242 158.886 114.492 159.156 114.691 159.517C114.89 159.878 114.989 160.362 114.989 160.969V166H113.816V164.966H113.756C113.676 165.132 113.544 165.309 113.358 165.498C113.173 165.687 112.926 165.848 112.618 165.98C112.309 166.113 111.933 166.179 111.489 166.179ZM111.668 165.125C112.132 165.125 112.523 165.034 112.841 164.852C113.163 164.669 113.405 164.434 113.567 164.146C113.733 163.857 113.816 163.554 113.816 163.236V162.162C113.766 162.222 113.657 162.276 113.488 162.326C113.322 162.372 113.13 162.414 112.911 162.45C112.695 162.483 112.485 162.513 112.279 162.54C112.077 162.563 111.913 162.583 111.787 162.599C111.482 162.639 111.197 162.704 110.932 162.793C110.67 162.879 110.458 163.01 110.296 163.186C110.137 163.358 110.057 163.594 110.057 163.892C110.057 164.3 110.208 164.608 110.51 164.817C110.815 165.022 111.201 165.125 111.668 165.125ZM117.131 166V158.364H118.264V159.517H118.344C118.483 159.139 118.735 158.833 119.099 158.597C119.464 158.362 119.875 158.244 120.332 158.244C120.418 158.244 120.526 158.246 120.655 158.249C120.785 158.253 120.882 158.258 120.949 158.264V159.457C120.909 159.447 120.818 159.433 120.675 159.413C120.536 159.389 120.389 159.378 120.233 159.378C119.862 159.378 119.53 159.456 119.238 159.612C118.95 159.764 118.721 159.976 118.552 160.248C118.387 160.516 118.304 160.823 118.304 161.168V166H117.131ZM123.433 163.216L123.413 161.764H123.652L126.993 158.364H128.445L124.885 161.963H124.786L123.433 163.216ZM122.339 166V155.818H123.513V166H122.339ZM127.192 166L124.209 162.222L125.044 161.406L128.683 166H127.192ZM132.842 166.159C132.106 166.159 131.471 165.997 130.938 165.672C130.408 165.344 129.998 164.886 129.71 164.3C129.425 163.71 129.282 163.024 129.282 162.241C129.282 161.459 129.425 160.77 129.71 160.173C129.998 159.573 130.399 159.106 130.913 158.771C131.43 158.433 132.033 158.264 132.723 158.264C133.12 158.264 133.513 158.33 133.901 158.463C134.289 158.596 134.642 158.811 134.96 159.109C135.278 159.404 135.532 159.795 135.721 160.283C135.909 160.77 136.004 161.37 136.004 162.082V162.58H130.118V161.565H134.811C134.811 161.134 134.725 160.75 134.552 160.412C134.383 160.074 134.141 159.807 133.826 159.612C133.515 159.416 133.147 159.318 132.723 159.318C132.255 159.318 131.851 159.434 131.51 159.666C131.172 159.895 130.911 160.193 130.729 160.561C130.547 160.929 130.456 161.323 130.456 161.744V162.42C130.456 162.997 130.555 163.486 130.754 163.887C130.956 164.285 131.236 164.588 131.594 164.797C131.952 165.002 132.368 165.105 132.842 165.105C133.15 165.105 133.429 165.062 133.677 164.976C133.929 164.886 134.146 164.754 134.328 164.578C134.511 164.399 134.652 164.177 134.751 163.912L135.885 164.23C135.765 164.615 135.565 164.953 135.283 165.244C135.001 165.533 134.653 165.758 134.239 165.92C133.825 166.08 133.359 166.159 132.842 166.159ZM141.11 158.364V159.358H137.152V158.364H141.11ZM138.306 156.534H139.479V163.812C139.479 164.144 139.527 164.393 139.623 164.558C139.723 164.721 139.849 164.83 140.001 164.886C140.157 164.939 140.321 164.966 140.493 164.966C140.623 164.966 140.729 164.959 140.811 164.946C140.894 164.929 140.961 164.916 141.01 164.906L141.249 165.96C141.169 165.99 141.058 166.02 140.916 166.05C140.773 166.083 140.593 166.099 140.374 166.099C140.042 166.099 139.718 166.028 139.4 165.886C139.085 165.743 138.823 165.526 138.614 165.234C138.408 164.943 138.306 164.575 138.306 164.131V156.534ZM142.875 166V158.364H144.048V166H142.875ZM143.471 157.091C143.243 157.091 143.045 157.013 142.88 156.857C142.717 156.701 142.636 156.514 142.636 156.295C142.636 156.077 142.717 155.889 142.88 155.734C143.045 155.578 143.243 155.5 143.471 155.5C143.7 155.5 143.895 155.578 144.058 155.734C144.224 155.889 144.306 156.077 144.306 156.295C144.306 156.514 144.224 156.701 144.058 156.857C143.895 157.013 143.7 157.091 143.471 157.091ZM147.37 161.406V166H146.197V158.364H147.33V159.557H147.43C147.609 159.169 147.881 158.857 148.245 158.622C148.61 158.384 149.08 158.264 149.657 158.264C150.174 158.264 150.627 158.37 151.014 158.582C151.402 158.791 151.704 159.109 151.919 159.537C152.135 159.961 152.242 160.498 152.242 161.148V166H151.069V161.227C151.069 160.627 150.913 160.16 150.602 159.825C150.29 159.487 149.863 159.318 149.319 159.318C148.945 159.318 148.61 159.399 148.315 159.562C148.023 159.724 147.793 159.961 147.624 160.273C147.455 160.584 147.37 160.962 147.37 161.406ZM157.469 169.023C156.902 169.023 156.415 168.95 156.007 168.804C155.599 168.661 155.26 168.473 154.988 168.237C154.719 168.005 154.506 167.757 154.347 167.491L155.281 166.835C155.387 166.974 155.522 167.134 155.684 167.312C155.846 167.495 156.068 167.652 156.35 167.785C156.635 167.921 157.008 167.989 157.469 167.989C158.085 167.989 158.594 167.839 158.995 167.541C159.396 167.243 159.597 166.776 159.597 166.139V164.588H159.497C159.411 164.727 159.288 164.9 159.129 165.105C158.973 165.307 158.748 165.488 158.453 165.647C158.161 165.803 157.767 165.881 157.27 165.881C156.653 165.881 156.1 165.735 155.609 165.443C155.122 165.152 154.736 164.727 154.451 164.17C154.169 163.614 154.028 162.937 154.028 162.142C154.028 161.36 154.166 160.679 154.441 160.099C154.716 159.515 155.099 159.065 155.589 158.746C156.08 158.425 156.647 158.264 157.29 158.264C157.787 158.264 158.181 158.347 158.473 158.513C158.768 158.675 158.993 158.861 159.149 159.07C159.308 159.275 159.431 159.444 159.517 159.577H159.636V158.364H160.77V166.219C160.77 166.875 160.621 167.409 160.322 167.82C160.027 168.234 159.63 168.537 159.129 168.729C158.632 168.925 158.079 169.023 157.469 169.023ZM157.429 164.827C157.9 164.827 158.297 164.719 158.622 164.504C158.947 164.288 159.194 163.978 159.363 163.574C159.532 163.17 159.616 162.686 159.616 162.122C159.616 161.572 159.534 161.086 159.368 160.665C159.202 160.245 158.957 159.915 158.632 159.676C158.307 159.437 157.906 159.318 157.429 159.318C156.932 159.318 156.518 159.444 156.186 159.696C155.858 159.948 155.611 160.286 155.445 160.71C155.283 161.134 155.202 161.605 155.202 162.122C155.202 162.652 155.285 163.121 155.45 163.529C155.619 163.933 155.868 164.252 156.196 164.484C156.527 164.712 156.938 164.827 157.429 164.827ZM175.207 159H173.974C173.902 158.645 173.774 158.334 173.592 158.065C173.413 157.797 173.194 157.571 172.935 157.389C172.68 157.204 172.397 157.064 172.085 156.972C171.774 156.879 171.449 156.832 171.111 156.832C170.494 156.832 169.936 156.988 169.435 157.3C168.938 157.611 168.542 158.07 168.247 158.677C167.955 159.283 167.81 160.027 167.81 160.909C167.81 161.791 167.955 162.535 168.247 163.141C168.542 163.748 168.938 164.207 169.435 164.518C169.936 164.83 170.494 164.986 171.111 164.986C171.449 164.986 171.774 164.939 172.085 164.847C172.397 164.754 172.68 164.616 172.935 164.434C173.194 164.248 173.413 164.021 173.592 163.753C173.774 163.481 173.902 163.17 173.974 162.818H175.207C175.115 163.339 174.946 163.804 174.7 164.215C174.455 164.626 174.15 164.976 173.786 165.264C173.421 165.549 173.012 165.766 172.558 165.915C172.107 166.065 171.625 166.139 171.111 166.139C170.242 166.139 169.47 165.927 168.794 165.503C168.118 165.079 167.586 164.475 167.198 163.693C166.81 162.911 166.616 161.983 166.616 160.909C166.616 159.835 166.81 158.907 167.198 158.125C167.586 157.343 168.118 156.74 168.794 156.315C169.47 155.891 170.242 155.679 171.111 155.679C171.625 155.679 172.107 155.754 172.558 155.903C173.012 156.052 173.421 156.271 173.786 156.559C174.15 156.844 174.455 157.192 174.7 157.603C174.946 158.011 175.115 158.476 175.207 159ZM180.242 166.159C179.507 166.159 178.872 165.997 178.338 165.672C177.808 165.344 177.399 164.886 177.11 164.3C176.825 163.71 176.683 163.024 176.683 162.241C176.683 161.459 176.825 160.77 177.11 160.173C177.399 159.573 177.8 159.106 178.313 158.771C178.83 158.433 179.434 158.264 180.123 158.264C180.521 158.264 180.914 158.33 181.301 158.463C181.689 158.596 182.042 158.811 182.36 159.109C182.678 159.404 182.932 159.795 183.121 160.283C183.31 160.77 183.404 161.37 183.404 162.082V162.58H177.518V161.565H182.211C182.211 161.134 182.125 160.75 181.953 160.412C181.784 160.074 181.542 159.807 181.227 159.612C180.915 159.416 180.547 159.318 180.123 159.318C179.656 159.318 179.251 159.434 178.91 159.666C178.572 159.895 178.312 160.193 178.129 160.561C177.947 160.929 177.856 161.323 177.856 161.744V162.42C177.856 162.997 177.955 163.486 178.154 163.887C178.356 164.285 178.637 164.588 178.994 164.797C179.352 165.002 179.768 165.105 180.242 165.105C180.551 165.105 180.829 165.062 181.078 164.976C181.329 164.886 181.547 164.754 181.729 164.578C181.911 164.399 182.052 164.177 182.151 163.912L183.285 164.23C183.166 164.615 182.965 164.953 182.683 165.244C182.402 165.533 182.054 165.758 181.639 165.92C181.225 166.08 180.759 166.159 180.242 166.159ZM185.189 166V158.364H186.323V159.517H186.402C186.541 159.139 186.793 158.833 187.158 158.597C187.522 158.362 187.933 158.244 188.391 158.244C188.477 158.244 188.585 158.246 188.714 158.249C188.843 158.253 188.941 158.258 189.007 158.264V159.457C188.968 159.447 188.876 159.433 188.734 159.413C188.595 159.389 188.447 159.378 188.291 159.378C187.92 159.378 187.589 159.456 187.297 159.612C187.009 159.764 186.78 159.976 186.611 160.248C186.445 160.516 186.362 160.823 186.362 161.168V166H185.189ZM194.198 158.364V159.358H190.24V158.364H194.198ZM191.394 156.534H192.567V163.812C192.567 164.144 192.615 164.393 192.711 164.558C192.811 164.721 192.936 164.83 193.089 164.886C193.245 164.939 193.409 164.966 193.581 164.966C193.71 164.966 193.816 164.959 193.899 164.946C193.982 164.929 194.048 164.916 194.098 164.906L194.337 165.96C194.257 165.99 194.146 166.02 194.004 166.05C193.861 166.083 193.681 166.099 193.462 166.099C193.13 166.099 192.806 166.028 192.487 165.886C192.173 165.743 191.911 165.526 191.702 165.234C191.496 164.943 191.394 164.575 191.394 164.131V156.534ZM195.963 166V158.364H197.136V166H195.963ZM196.559 157.091C196.33 157.091 196.133 157.013 195.968 156.857C195.805 156.701 195.724 156.514 195.724 156.295C195.724 156.077 195.805 155.889 195.968 155.734C196.133 155.578 196.33 155.5 196.559 155.5C196.788 155.5 196.983 155.578 197.146 155.734C197.311 155.889 197.394 156.077 197.394 156.295C197.394 156.514 197.311 156.701 197.146 156.857C196.983 157.013 196.788 157.091 196.559 157.091ZM202.685 158.364V159.358H198.569V158.364H202.685ZM199.802 166V157.31C199.802 156.872 199.905 156.508 200.11 156.216C200.316 155.924 200.582 155.705 200.911 155.56C201.239 155.414 201.585 155.341 201.95 155.341C202.238 155.341 202.473 155.364 202.656 155.411C202.838 155.457 202.974 155.5 203.063 155.54L202.725 156.554C202.665 156.534 202.583 156.509 202.477 156.479C202.374 156.45 202.238 156.435 202.069 156.435C201.681 156.435 201.401 156.532 201.229 156.728C201.06 156.924 200.975 157.21 200.975 157.588V166H199.802ZM204.33 166V158.364H205.503V166H204.33ZM204.926 157.091C204.698 157.091 204.5 157.013 204.335 156.857C204.172 156.701 204.091 156.514 204.091 156.295C204.091 156.077 204.172 155.889 204.335 155.734C204.5 155.578 204.698 155.5 204.926 155.5C205.155 155.5 205.351 155.578 205.513 155.734C205.679 155.889 205.762 156.077 205.762 156.295C205.762 156.514 205.679 156.701 205.513 156.857C205.351 157.013 205.155 157.091 204.926 157.091ZM210.854 166.159C210.118 166.159 209.483 165.997 208.95 165.672C208.419 165.344 208.01 164.886 207.722 164.3C207.437 163.71 207.294 163.024 207.294 162.241C207.294 161.459 207.437 160.77 207.722 160.173C208.01 159.573 208.411 159.106 208.925 158.771C209.442 158.433 210.045 158.264 210.734 158.264C211.132 158.264 211.525 158.33 211.913 158.463C212.3 158.596 212.653 158.811 212.972 159.109C213.29 159.404 213.543 159.795 213.732 160.283C213.921 160.77 214.016 161.37 214.016 162.082V162.58H208.129V161.565H212.822C212.822 161.134 212.736 160.75 212.564 160.412C212.395 160.074 212.153 159.807 211.838 159.612C211.527 159.416 211.159 159.318 210.734 159.318C210.267 159.318 209.863 159.434 209.521 159.666C209.183 159.895 208.923 160.193 208.741 160.561C208.558 160.929 208.467 161.323 208.467 161.744V162.42C208.467 162.997 208.567 163.486 208.766 163.887C208.968 164.285 209.248 164.588 209.606 164.797C209.964 165.002 210.38 165.105 210.854 165.105C211.162 165.105 211.44 165.062 211.689 164.976C211.941 164.886 212.158 164.754 212.34 164.578C212.522 164.399 212.663 164.177 212.763 163.912L213.896 164.23C213.777 164.615 213.576 164.953 213.295 165.244C213.013 165.533 212.665 165.758 212.251 165.92C211.836 166.08 211.371 166.159 210.854 166.159ZM218.684 166.159C218.048 166.159 217.486 165.998 216.999 165.677C216.511 165.352 216.13 164.895 215.855 164.305C215.58 163.711 215.442 163.01 215.442 162.202C215.442 161.4 215.58 160.704 215.855 160.114C216.13 159.524 216.513 159.068 217.004 158.746C217.494 158.425 218.061 158.264 218.704 158.264C219.201 158.264 219.594 158.347 219.882 158.513C220.174 158.675 220.396 158.861 220.548 159.07C220.704 159.275 220.825 159.444 220.911 159.577H221.011V155.818H222.184V166H221.05V164.827H220.911C220.825 164.966 220.702 165.142 220.543 165.354C220.384 165.562 220.157 165.75 219.862 165.915C219.567 166.078 219.174 166.159 218.684 166.159ZM218.843 165.105C219.314 165.105 219.711 164.982 220.036 164.737C220.361 164.489 220.608 164.146 220.777 163.708C220.946 163.267 221.031 162.759 221.031 162.182C221.031 161.612 220.948 161.113 220.782 160.685C220.616 160.254 220.371 159.92 220.046 159.681C219.721 159.439 219.32 159.318 218.843 159.318C218.346 159.318 217.932 159.446 217.6 159.701C217.272 159.953 217.025 160.296 216.859 160.73C216.697 161.161 216.616 161.645 216.616 162.182C216.616 162.725 216.699 163.219 216.864 163.663C217.033 164.104 217.282 164.455 217.61 164.717C217.942 164.976 218.353 165.105 218.843 165.105Z" fill="#4A5568"/>
</g>
<defs>
<filter id="filter0_d_6170_29153" x="0.2172" y="0.94006" width="274.36" height="227.632" filterUnits="userSpaceOnUse" color-interpolation-filters="sRGB">
<feFlood flood-opacity="0" result="BackgroundImageFix"/>
<feColorMatrix in="SourceAlpha" type="matrix" values="0 0 0 0 0 0 0 0 0 0 0 0 0 0 0 0 0 0 127 0" result="hardAlpha"/>
<feOffset dx="9.39704" dy="10.1199"/>
<feGaussianBlur stdDeviation="7.58992"/>
<feColorMatrix type="matrix" values="0 0 0 0 0.0375 0 0 0 0 0.18975 0 0 0 0 0.3 0 0 0 0.06 0"/>
<feBlend mode="normal" in2="BackgroundImageFix" result="effect1_dropShadow_6170_29153"/>
<feBlend mode="normal" in="SourceGraphic" in2="effect1_dropShadow_6170_29153" result="shape"/>
</filter>
</defs>
</svg>
