<svg width="238" height="229" viewBox="0 0 238 229" fill="none" xmlns="http://www.w3.org/2000/svg">
<g filter="url(#filter0_d_6170_29143)">
<path d="M197 6H22C13.1634 6 6 13.1634 6 22V187.272C6 196.109 13.1634 203.272 22 203.272H197C205.837 203.272 213 196.109 213 187.272V22C213 13.1634 205.837 6 197 6Z" fill="#FFCF54"/>
<path d="M39.3125 55V34.6364H53.9886V39.0909H44.8409V42.5909H53.233V47.0455H44.8409V50.5455H53.9489V55H39.3125ZM62.3384 55.1989C61.2513 55.1989 60.2504 54.9138 59.3356 54.3438C58.4274 53.7737 57.6983 52.9086 57.1481 51.7486C56.6045 50.5885 56.3327 49.1269 56.3327 47.3636C56.3327 45.5208 56.6178 44.0227 57.1879 42.8693C57.7646 41.7159 58.507 40.8707 59.4151 40.3338C60.3299 39.7969 61.2911 39.5284 62.2987 39.5284C63.0543 39.5284 63.7172 39.661 64.2873 39.9261C64.8574 40.1847 65.3346 40.5327 65.7191 40.9702C66.1036 41.401 66.3952 41.875 66.5941 42.392H66.6737V34.6364H72.1623V55H66.7134V52.4943H66.5941C66.382 53.0114 66.0771 53.4754 65.6793 53.8864C65.2882 54.2907 64.811 54.6122 64.2475 54.8509C63.6907 55.0829 63.0543 55.1989 62.3384 55.1989ZM64.3668 50.983C64.8706 50.983 65.3015 50.8371 65.6594 50.5455C66.024 50.2472 66.3024 49.8295 66.4947 49.2926C66.6935 48.7491 66.793 48.1061 66.793 47.3636C66.793 46.608 66.6935 45.9616 66.4947 45.4247C66.3024 44.8812 66.024 44.4669 65.6594 44.1818C65.3015 43.8902 64.8706 43.7443 64.3668 43.7443C63.863 43.7443 63.4322 43.8902 63.0742 44.1818C62.7229 44.4669 62.4511 44.8812 62.2589 45.4247C62.0733 45.9616 61.9805 46.608 61.9805 47.3636C61.9805 48.1193 62.0733 48.7689 62.2589 49.3125C62.4511 49.8494 62.7229 50.2637 63.0742 50.5554C63.4322 50.8404 63.863 50.983 64.3668 50.983ZM84.7603 48.3182V39.7273H90.2489V55H85.0387V52.0966H84.8796C84.5482 53.071 83.9682 53.8333 83.1396 54.3835C82.311 54.9271 81.3266 55.1989 80.1864 55.1989C79.1192 55.1989 78.1845 54.9536 77.3825 54.4631C76.587 53.9725 75.9672 53.2964 75.5231 52.4347C75.0856 51.5729 74.8635 50.5852 74.8569 49.4716V39.7273H80.3455V48.3182C80.3522 49.0739 80.5444 49.6671 80.9222 50.098C81.3067 50.5289 81.8436 50.7443 82.533 50.7443C82.9904 50.7443 83.3848 50.6482 83.7163 50.456C84.0543 50.2571 84.3129 49.9787 84.4918 49.6207C84.6774 49.2562 84.7669 48.822 84.7603 48.3182ZM100.398 55.2784C98.7412 55.2784 97.3227 54.9503 96.1428 54.294C94.9628 53.6312 94.058 52.7098 93.4283 51.5298C92.7985 50.3433 92.4837 48.9678 92.4837 47.4034C92.4837 45.839 92.7985 44.4669 93.4283 43.2869C94.058 42.1004 94.9628 41.179 96.1428 40.5227C97.3227 39.8598 98.7412 39.5284 100.398 39.5284C101.897 39.5284 103.192 39.8002 104.286 40.3438C105.387 40.8807 106.238 41.643 106.842 42.6307C107.445 43.6117 107.75 44.7652 107.756 46.0909H102.665C102.593 45.2888 102.361 44.679 101.969 44.2614C101.585 43.8371 101.088 43.625 100.478 43.625C100.001 43.625 99.5831 43.7642 99.2251 44.0426C98.8672 44.3144 98.5888 44.7287 98.3899 45.2855C98.1911 45.8357 98.0916 46.5284 98.0916 47.3636C98.0916 48.1989 98.1911 48.8949 98.3899 49.4517C98.5888 50.0019 98.8672 50.4162 99.2251 50.6946C99.5831 50.9664 100.001 51.1023 100.478 51.1023C100.882 51.1023 101.24 51.0095 101.552 50.8239C101.863 50.6316 102.115 50.3532 102.308 49.9886C102.506 49.6174 102.626 49.1667 102.665 48.6364H107.756C107.737 49.982 107.428 51.1553 106.832 52.1562C106.235 53.1506 105.39 53.9195 104.296 54.4631C103.209 55.0066 101.91 55.2784 100.398 55.2784ZM114.277 55.2386C113.302 55.2386 112.44 55.0795 111.691 54.7614C110.949 54.4366 110.366 53.946 109.941 53.2898C109.517 52.6335 109.305 51.7983 109.305 50.7841C109.305 49.9489 109.448 49.2363 109.733 48.6463C110.018 48.0497 110.415 47.5625 110.926 47.1847C111.436 46.8068 112.029 46.5185 112.706 46.3196C113.388 46.1207 114.124 45.9915 114.913 45.9318C115.768 45.8655 116.454 45.786 116.971 45.6932C117.495 45.5937 117.873 45.4579 118.105 45.2855C118.337 45.1065 118.453 44.8712 118.453 44.5795V44.5398C118.453 44.142 118.3 43.8371 117.995 43.625C117.69 43.4129 117.299 43.3068 116.822 43.3068C116.298 43.3068 115.871 43.4228 115.539 43.6548C115.215 43.8802 115.019 44.2282 114.953 44.6989H109.902C109.968 43.7708 110.263 42.9157 110.787 42.1335C111.317 41.3447 112.089 40.715 113.103 40.2443C114.118 39.767 115.384 39.5284 116.902 39.5284C117.995 39.5284 118.976 39.6577 119.845 39.9162C120.713 40.1681 121.452 40.5227 122.062 40.9801C122.672 41.4309 123.136 41.9612 123.454 42.571C123.779 43.1742 123.941 43.8305 123.941 44.5398V55H118.811V52.8523H118.691C118.386 53.4223 118.015 53.883 117.578 54.2344C117.147 54.5857 116.653 54.8409 116.096 55C115.546 55.1591 114.94 55.2386 114.277 55.2386ZM116.066 51.7784C116.484 51.7784 116.875 51.6922 117.24 51.5199C117.611 51.3475 117.913 51.099 118.145 50.7741C118.377 50.4493 118.493 50.0549 118.493 49.5909V48.3182C118.347 48.3778 118.191 48.4342 118.025 48.4872C117.866 48.5402 117.694 48.59 117.508 48.6364C117.329 48.6828 117.137 48.7259 116.931 48.7656C116.733 48.8054 116.524 48.8419 116.305 48.875C115.881 48.9413 115.533 49.0507 115.261 49.2031C114.996 49.349 114.797 49.5312 114.664 49.75C114.538 49.9621 114.475 50.2008 114.475 50.4659C114.475 50.8902 114.625 51.215 114.923 51.4403C115.221 51.6657 115.602 51.7784 116.066 51.7784ZM135.672 39.7273V43.7045H125.609V39.7273H135.672ZM127.558 36.0682H133.047V50.0881C133.047 50.3002 133.083 50.4792 133.156 50.625C133.229 50.7642 133.342 50.8703 133.494 50.9432C133.647 51.0095 133.842 51.0426 134.081 51.0426C134.247 51.0426 134.439 51.0227 134.658 50.983C134.883 50.9432 135.049 50.91 135.155 50.8835L135.95 54.7415C135.705 54.8144 135.354 54.9039 134.896 55.0099C134.446 55.116 133.909 55.1856 133.286 55.2188C132.026 55.285 130.969 55.1558 130.114 54.831C129.259 54.4995 128.616 53.9792 128.185 53.2699C127.754 52.5606 127.545 51.6723 127.558 50.6051V36.0682ZM137.912 55V39.7273H143.4V55H137.912ZM140.656 38.1364C139.913 38.1364 139.277 37.8911 138.747 37.4006C138.217 36.91 137.951 36.3201 137.951 35.6307C137.951 34.9413 138.217 34.3513 138.747 33.8608C139.277 33.3703 139.913 33.125 140.656 33.125C141.405 33.125 142.041 33.3703 142.565 33.8608C143.095 34.3513 143.36 34.9413 143.36 35.6307C143.36 36.3201 143.095 36.91 142.565 37.4006C142.041 37.8911 141.405 38.1364 140.656 38.1364ZM153.555 55.2784C151.897 55.2784 150.479 54.9503 149.299 54.294C148.119 53.6312 147.214 52.7098 146.585 51.5298C145.955 50.3433 145.64 48.9678 145.64 47.4034C145.64 45.839 145.955 44.4669 146.585 43.2869C147.214 42.1004 148.119 41.179 149.299 40.5227C150.479 39.8598 151.897 39.5284 153.555 39.5284C155.212 39.5284 156.63 39.8598 157.81 40.5227C158.99 41.179 159.895 42.1004 160.525 43.2869C161.155 44.4669 161.469 45.839 161.469 47.4034C161.469 48.9678 161.155 50.3433 160.525 51.5298C159.895 52.7098 158.99 53.6312 157.81 54.294C156.63 54.9503 155.212 55.2784 153.555 55.2784ZM153.594 51.2216C154.058 51.2216 154.46 51.0658 154.798 50.7543C155.136 50.4427 155.397 49.9986 155.583 49.4219C155.769 48.8452 155.862 48.1591 155.862 47.3636C155.862 46.5616 155.769 45.8755 155.583 45.3054C155.397 44.7287 155.136 44.2846 154.798 43.973C154.46 43.6615 154.058 43.5057 153.594 43.5057C153.104 43.5057 152.683 43.6615 152.332 43.973C151.98 44.2846 151.712 44.7287 151.526 45.3054C151.341 45.8755 151.248 46.5616 151.248 47.3636C151.248 48.1591 151.341 48.8452 151.526 49.4219C151.712 49.9986 151.98 50.4427 152.332 50.7543C152.683 51.0658 153.104 51.2216 153.594 51.2216ZM169.185 46.4091V55H163.697V39.7273H168.907V42.6307H169.066C169.397 41.6629 169.981 40.9039 170.816 40.3537C171.658 39.8035 172.639 39.5284 173.759 39.5284C174.84 39.5284 175.778 39.777 176.573 40.2741C177.375 40.7647 177.995 41.4408 178.433 42.3026C178.877 43.1643 179.095 44.1487 179.089 45.2557V55H173.6V46.4091C173.607 45.6534 173.415 45.0601 173.023 44.6293C172.639 44.1984 172.102 43.983 171.413 43.983C170.962 43.983 170.567 44.0824 170.229 44.2812C169.898 44.4735 169.643 44.7519 169.464 45.1165C169.285 45.4744 169.192 45.9053 169.185 46.4091Z" fill="#615E4A"/>
<path d="M32.9142 83.8182H34.1471V90.5597C34.1471 91.2557 33.9831 91.8771 33.6549 92.424C33.3301 92.9676 32.8711 93.3968 32.2778 93.7116C31.6845 94.0232 30.9885 94.179 30.1897 94.179C29.391 94.179 28.6949 94.0232 28.1017 93.7116C27.5084 93.3968 27.0477 92.9676 26.7196 92.424C26.3948 91.8771 26.2324 91.2557 26.2324 90.5597V83.8182H27.4653V90.4602C27.4653 90.9574 27.5747 91.3999 27.7934 91.7876C28.0122 92.1721 28.3237 92.4754 28.7281 92.6974C29.1358 92.9162 29.623 93.0256 30.1897 93.0256C30.7565 93.0256 31.2437 92.9162 31.6514 92.6974C32.0591 92.4754 32.3706 92.1721 32.586 91.7876C32.8048 91.3999 32.9142 90.9574 32.9142 90.4602V83.8182ZM37.6235 89.4062V94H36.4502V86.3636H37.5837V87.5568H37.6832C37.8621 87.169 38.1339 86.8575 38.4985 86.6222C38.8631 86.3835 39.3337 86.2642 39.9104 86.2642C40.4275 86.2642 40.8799 86.3703 41.2677 86.5824C41.6555 86.7912 41.9571 87.1094 42.1725 87.5369C42.388 87.9612 42.4957 88.4981 42.4957 89.1477V94H41.3224V89.2273C41.3224 88.6274 41.1666 88.16 40.855 87.8253C40.5435 87.4872 40.1159 87.3182 39.5724 87.3182C39.1978 87.3182 38.8631 87.3994 38.5681 87.5618C38.2764 87.7242 38.0461 87.9612 37.8771 88.2727C37.708 88.5843 37.6235 88.9621 37.6235 89.4062ZM44.6397 94V86.3636H45.813V94H44.6397ZM45.2363 85.0909C45.0076 85.0909 44.8104 85.013 44.6446 84.8572C44.4822 84.7015 44.401 84.5142 44.401 84.2955C44.401 84.0767 44.4822 83.8894 44.6446 83.7337C44.8104 83.5779 45.0076 83.5 45.2363 83.5C45.465 83.5 45.6605 83.5779 45.8229 83.7337C45.9886 83.8894 46.0715 84.0767 46.0715 84.2955C46.0715 84.5142 45.9886 84.7015 45.8229 84.8572C45.6605 85.013 45.465 85.0909 45.2363 85.0909ZM54.2063 86.3636L51.3824 94H50.1892L47.3653 86.3636H48.6381L50.746 92.4489H50.8256L52.9335 86.3636H54.2063ZM58.6832 94.1591C57.9474 94.1591 57.3127 93.9967 56.7791 93.6719C56.2487 93.3438 55.8394 92.8864 55.5511 92.2997C55.266 91.7098 55.1235 91.0237 55.1235 90.2415C55.1235 89.4593 55.266 88.7699 55.5511 88.1733C55.8394 87.5734 56.2405 87.1061 56.7542 86.7713C57.2712 86.4332 57.8745 86.2642 58.5639 86.2642C58.9616 86.2642 59.3543 86.3305 59.7421 86.4631C60.1299 86.5956 60.4829 86.8111 60.8011 87.1094C61.1193 87.4044 61.3728 87.7955 61.5617 88.2827C61.7506 88.7699 61.8451 89.3698 61.8451 90.0824V90.5795H55.9587V89.5653H60.6519C60.6519 89.1345 60.5657 88.75 60.3934 88.4119C60.2244 88.0739 59.9824 87.8071 59.6675 87.6115C59.356 87.416 58.9881 87.3182 58.5639 87.3182C58.0965 87.3182 57.6922 87.4342 57.3508 87.6662C57.0127 87.8949 56.7525 88.1932 56.5702 88.5611C56.388 88.929 56.2968 89.3234 56.2968 89.7443V90.4205C56.2968 90.9972 56.3962 91.486 56.5951 91.8871C56.7973 92.2848 57.0773 92.5881 57.4353 92.7969C57.7933 93.0024 58.2092 93.1051 58.6832 93.1051C58.9914 93.1051 59.2698 93.062 59.5184 92.9759C59.7703 92.8864 59.9874 92.7538 60.1697 92.5781C60.352 92.3991 60.4928 92.1771 60.5923 91.9119L61.7258 92.2301C61.6065 92.6146 61.4059 92.9527 61.1242 93.2443C60.8425 93.5327 60.4945 93.758 60.0802 93.9205C59.6659 94.0795 59.2002 94.1591 58.6832 94.1591ZM63.6299 94V86.3636H64.7634V87.517H64.843C64.9822 87.1392 65.2341 86.8326 65.5987 86.5973C65.9632 86.362 66.3742 86.2443 66.8316 86.2443C66.9178 86.2443 67.0255 86.246 67.1548 86.2493C67.284 86.2526 67.3818 86.2576 67.4481 86.2642V87.4574C67.4083 87.4474 67.3172 87.4325 67.1746 87.4126C67.0354 87.3894 66.888 87.3778 66.7322 87.3778C66.361 87.3778 66.0295 87.4557 65.7379 87.6115C65.4495 87.764 65.2208 87.9761 65.0518 88.2479C64.8861 88.5163 64.8032 88.8229 64.8032 89.1676V94H63.6299ZM74.248 88.0739L73.194 88.3722C73.1277 88.1965 73.0299 88.0258 72.9007 87.8601C72.7747 87.6911 72.6024 87.5518 72.3836 87.4425C72.1649 87.3331 71.8848 87.2784 71.5434 87.2784C71.0761 87.2784 70.6867 87.3861 70.3751 87.6016C70.0669 87.8137 69.9128 88.0838 69.9128 88.4119C69.9128 88.7036 70.0188 88.9339 70.2309 89.103C70.4431 89.272 70.7745 89.4129 71.2253 89.5256L72.3588 89.804C73.0415 89.9697 73.5503 90.2232 73.8851 90.5646C74.2198 90.9027 74.3872 91.3385 74.3872 91.8722C74.3872 92.3097 74.2612 92.7008 74.0093 93.0455C73.7608 93.3902 73.4128 93.6619 72.9653 93.8608C72.5179 94.0597 71.9975 94.1591 71.4042 94.1591C70.6253 94.1591 69.9807 93.9901 69.4703 93.652C68.9599 93.3139 68.6367 92.8201 68.5008 92.1705L69.6145 91.892C69.7205 92.303 69.921 92.6113 70.216 92.8168C70.5143 93.0223 70.9038 93.125 71.3843 93.125C71.9312 93.125 72.3654 93.009 72.6869 92.777C73.0117 92.5417 73.1741 92.2599 73.1741 91.9318C73.1741 91.6667 73.0813 91.4446 72.8957 91.2656C72.7101 91.0833 72.4251 90.9474 72.0406 90.858L70.7679 90.5597C70.0685 90.3939 69.5548 90.1371 69.2267 89.7891C68.9019 89.4377 68.7395 88.9986 68.7395 88.4716C68.7395 88.0407 68.8604 87.6596 69.1024 87.3281C69.3476 86.9967 69.6807 86.7365 70.1017 86.5476C70.5259 86.3587 71.0065 86.2642 71.5434 86.2642C72.2991 86.2642 72.8924 86.4299 73.3233 86.7614C73.7574 87.0928 74.0657 87.5303 74.248 88.0739ZM76.1533 94V86.3636H77.3266V94H76.1533ZM76.7499 85.0909C76.5212 85.0909 76.324 85.013 76.1583 84.8572C75.9959 84.7015 75.9147 84.5142 75.9147 84.2955C75.9147 84.0767 75.9959 83.8894 76.1583 83.7337C76.324 83.5779 76.5212 83.5 76.7499 83.5C76.9786 83.5 77.1742 83.5779 77.3366 83.7337C77.5023 83.8894 77.5852 84.0767 77.5852 84.2955C77.5852 84.5142 77.5023 84.7015 77.3366 84.8572C77.1742 85.013 76.9786 85.0909 76.7499 85.0909ZM82.7966 86.3636V87.358H78.8392V86.3636H82.7966ZM79.9927 84.5341H81.1659V91.8125C81.1659 92.1439 81.214 92.3925 81.3101 92.5582C81.4096 92.7206 81.5355 92.83 81.688 92.8864C81.8437 92.9394 82.0078 92.9659 82.1802 92.9659C82.3094 92.9659 82.4155 92.9593 82.4983 92.946C82.5812 92.9295 82.6475 92.9162 82.6972 92.9062L82.9358 93.9602C82.8563 93.9901 82.7453 94.0199 82.6027 94.0497C82.4602 94.0829 82.2796 94.0994 82.0608 94.0994C81.7294 94.0994 81.4046 94.0282 81.0864 93.8857C80.7715 93.7431 80.5097 93.526 80.3009 93.2344C80.0954 92.9427 79.9927 92.5748 79.9927 92.1307V84.5341ZM86.8087 94.179C86.3248 94.179 85.8856 94.0878 85.4912 93.9055C85.0968 93.7199 84.7836 93.4531 84.5516 93.1051C84.3196 92.7538 84.2036 92.3295 84.2036 91.8324C84.2036 91.3949 84.2898 91.0402 84.4621 90.7685C84.6345 90.4934 84.8648 90.2779 85.1532 90.1222C85.4415 89.9664 85.7597 89.8504 86.1077 89.7741C86.459 89.6946 86.812 89.6316 87.1667 89.5852C87.6307 89.5256 88.0069 89.4808 88.2952 89.451C88.5869 89.4179 88.799 89.3632 88.9316 89.2869C89.0675 89.2107 89.1354 89.0781 89.1354 88.8892V88.8494C89.1354 88.3589 89.0012 87.9777 88.7327 87.706C88.4676 87.4342 88.0649 87.2983 87.5246 87.2983C86.9645 87.2983 86.5253 87.4209 86.2071 87.6662C85.889 87.9115 85.6652 88.1733 85.536 88.4517L84.4223 88.054C84.6212 87.59 84.8864 87.2287 85.2178 86.9702C85.5525 86.7083 85.9171 86.526 86.3115 86.4233C86.7093 86.3172 87.1004 86.2642 87.4848 86.2642C87.7301 86.2642 88.0118 86.294 88.33 86.3537C88.6515 86.41 88.9614 86.5277 89.2597 86.7067C89.5613 86.8857 89.8115 87.1558 90.0104 87.517C90.2093 87.8783 90.3087 88.3622 90.3087 88.9688V94H89.1354V92.9659H89.0757C88.9962 93.1316 88.8636 93.3089 88.678 93.4979C88.4924 93.6868 88.2455 93.8475 87.9373 93.9801C87.629 94.1127 87.2528 94.179 86.8087 94.179ZM86.9877 93.125C87.4517 93.125 87.8428 93.0339 88.161 92.8516C88.4825 92.6693 88.7244 92.4339 88.8868 92.1456C89.0525 91.8572 89.1354 91.554 89.1354 91.2358V90.1619C89.0857 90.2216 88.9763 90.2763 88.8073 90.326C88.6416 90.3724 88.4493 90.4138 88.2306 90.4503C88.0151 90.4834 87.8047 90.5133 87.5992 90.5398C87.397 90.563 87.2329 90.5829 87.107 90.5994C86.8021 90.6392 86.517 90.7038 86.2519 90.7933C85.99 90.8795 85.7779 91.0104 85.6155 91.1861C85.4564 91.3584 85.3769 91.5937 85.3769 91.892C85.3769 92.2997 85.5277 92.608 85.8293 92.8168C86.1342 93.0223 86.5204 93.125 86.9877 93.125ZM97.8593 88.0739L96.8053 88.3722C96.739 88.1965 96.6413 88.0258 96.512 87.8601C96.3861 87.6911 96.2137 87.5518 95.995 87.4425C95.7762 87.3331 95.4961 87.2784 95.1548 87.2784C94.6874 87.2784 94.298 87.3861 93.9864 87.6016C93.6782 87.8137 93.5241 88.0838 93.5241 88.4119C93.5241 88.7036 93.6301 88.9339 93.8423 89.103C94.0544 89.272 94.3858 89.4129 94.8366 89.5256L95.9701 89.804C96.6529 89.9697 97.1616 90.2232 97.4964 90.5646C97.8311 90.9027 97.9985 91.3385 97.9985 91.8722C97.9985 92.3097 97.8726 92.7008 97.6207 93.0455C97.3721 93.3902 97.0241 93.6619 96.5766 93.8608C96.1292 94.0597 95.6088 94.1591 95.0156 94.1591C94.2367 94.1591 93.592 93.9901 93.0816 93.652C92.5712 93.3139 92.248 92.8201 92.1121 92.1705L93.2258 91.892C93.3318 92.303 93.5324 92.6113 93.8273 92.8168C94.1256 93.0223 94.5151 93.125 94.9957 93.125C95.5425 93.125 95.9767 93.009 96.2982 92.777C96.623 92.5417 96.7854 92.2599 96.7854 91.9318C96.7854 91.6667 96.6926 91.4446 96.507 91.2656C96.3214 91.0833 96.0364 90.9474 95.6519 90.858L94.3792 90.5597C93.6799 90.3939 93.1661 90.1371 92.838 89.7891C92.5132 89.4377 92.3508 88.9986 92.3508 88.4716C92.3508 88.0407 92.4718 87.6596 92.7137 87.3281C92.959 86.9967 93.2921 86.7365 93.713 86.5476C94.1372 86.3587 94.6178 86.2642 95.1548 86.2642C95.9104 86.2642 96.5037 86.4299 96.9346 86.7614C97.3688 87.0928 97.677 87.5303 97.8593 88.0739ZM105.094 83.8182V94H103.861V83.8182H105.094ZM108.58 89.4062V94H107.407V86.3636H108.54V87.5568H108.64C108.819 87.169 109.091 86.8575 109.455 86.6222C109.82 86.3835 110.29 86.2642 110.867 86.2642C111.384 86.2642 111.837 86.3703 112.224 86.5824C112.612 86.7912 112.914 87.1094 113.129 87.5369C113.345 87.9612 113.452 88.4981 113.452 89.1477V94H112.279V89.2273C112.279 88.6274 112.123 88.16 111.812 87.8253C111.5 87.4872 111.073 87.3182 110.529 87.3182C110.154 87.3182 109.82 87.3994 109.525 87.5618C109.233 87.7242 109.003 87.9612 108.834 88.2727C108.665 88.5843 108.58 88.9621 108.58 89.4062ZM118.48 94.1591C117.843 94.1591 117.282 93.9983 116.794 93.6768C116.307 93.352 115.926 92.8946 115.651 92.3047C115.376 91.7114 115.238 91.0104 115.238 90.2017C115.238 89.3996 115.376 88.7036 115.651 88.1136C115.926 87.5237 116.309 87.0679 116.799 86.7464C117.29 86.425 117.857 86.2642 118.5 86.2642C118.997 86.2642 119.39 86.3471 119.678 86.5128C119.97 86.6752 120.192 86.8608 120.344 87.0696C120.5 87.2751 120.621 87.4441 120.707 87.5767H120.807V83.8182H121.98V94H120.846V92.8267H120.707C120.621 92.9659 120.498 93.1416 120.339 93.3537C120.18 93.5625 119.953 93.7498 119.658 93.9155C119.363 94.0779 118.97 94.1591 118.48 94.1591ZM118.639 93.1051C119.11 93.1051 119.507 92.9825 119.832 92.7372C120.157 92.4886 120.404 92.1456 120.573 91.7081C120.742 91.2673 120.826 90.7585 120.826 90.1818C120.826 89.6117 120.744 89.1129 120.578 88.6854C120.412 88.2545 120.167 87.9197 119.842 87.6811C119.517 87.4392 119.116 87.3182 118.639 87.3182C118.142 87.3182 117.727 87.4458 117.396 87.701C117.068 87.9529 116.821 88.2959 116.655 88.7301C116.493 89.161 116.412 89.6449 116.412 90.1818C116.412 90.7254 116.495 91.2192 116.66 91.6634C116.829 92.1042 117.078 92.4555 117.406 92.7173C117.737 92.9759 118.148 93.1051 118.639 93.1051ZM127.394 94.1591C126.704 94.1591 126.1 93.995 125.579 93.6669C125.062 93.3388 124.658 92.8797 124.366 92.2898C124.078 91.6998 123.934 91.0104 123.934 90.2216C123.934 89.4261 124.078 88.7318 124.366 88.1385C124.658 87.5452 125.062 87.0845 125.579 86.7564C126.1 86.4283 126.704 86.2642 127.394 86.2642C128.083 86.2642 128.687 86.4283 129.204 86.7564C129.724 87.0845 130.128 87.5452 130.417 88.1385C130.708 88.7318 130.854 89.4261 130.854 90.2216C130.854 91.0104 130.708 91.6998 130.417 92.2898C130.128 92.8797 129.724 93.3388 129.204 93.6669C128.687 93.995 128.083 94.1591 127.394 94.1591ZM127.394 93.1051C127.918 93.1051 128.348 92.9709 128.687 92.7024C129.025 92.4339 129.275 92.081 129.437 91.6435C129.6 91.206 129.681 90.732 129.681 90.2216C129.681 89.7112 129.6 89.2356 129.437 88.7947C129.275 88.3539 129.025 87.9976 128.687 87.7259C128.348 87.4541 127.918 87.3182 127.394 87.3182C126.87 87.3182 126.439 87.4541 126.101 87.7259C125.763 87.9976 125.513 88.3539 125.351 88.7947C125.188 89.2356 125.107 89.7112 125.107 90.2216C125.107 90.732 125.188 91.206 125.351 91.6435C125.513 92.081 125.763 92.4339 126.101 92.7024C126.439 92.9709 126.87 93.1051 127.394 93.1051ZM133.818 89.4062V94H132.645V86.3636H133.779V87.5568H133.878C134.057 87.169 134.329 86.8575 134.693 86.6222C135.058 86.3835 135.529 86.2642 136.105 86.2642C136.622 86.2642 137.075 86.3703 137.463 86.5824C137.85 86.7912 138.152 87.1094 138.367 87.5369C138.583 87.9612 138.691 88.4981 138.691 89.1477V94H137.517V89.2273C137.517 88.6274 137.362 88.16 137.05 87.8253C136.738 87.4872 136.311 87.3182 135.767 87.3182C135.393 87.3182 135.058 87.3994 134.763 87.5618C134.471 87.7242 134.241 87.9612 134.072 88.2727C133.903 88.5843 133.818 88.9621 133.818 89.4062ZM144.036 94.1591C143.3 94.1591 142.666 93.9967 142.132 93.6719C141.602 93.3438 141.193 92.8864 140.904 92.2997C140.619 91.7098 140.477 91.0237 140.477 90.2415C140.477 89.4593 140.619 88.7699 140.904 88.1733C141.193 87.5734 141.594 87.1061 142.107 86.7713C142.624 86.4332 143.228 86.2642 143.917 86.2642C144.315 86.2642 144.707 86.3305 145.095 86.4631C145.483 86.5956 145.836 86.8111 146.154 87.1094C146.472 87.4044 146.726 87.7955 146.915 88.2827C147.104 88.7699 147.198 89.3698 147.198 90.0824V90.5795H141.312V89.5653H146.005C146.005 89.1345 145.919 88.75 145.747 88.4119C145.577 88.0739 145.336 87.8071 145.021 87.6115C144.709 87.416 144.341 87.3182 143.917 87.3182C143.45 87.3182 143.045 87.4342 142.704 87.6662C142.366 87.8949 142.106 88.1932 141.923 88.5611C141.741 88.929 141.65 89.3234 141.65 89.7443V90.4205C141.65 90.9972 141.749 91.486 141.948 91.8871C142.15 92.2848 142.43 92.5881 142.788 92.7969C143.146 93.0024 143.562 93.1051 144.036 93.1051C144.345 93.1051 144.623 93.062 144.872 92.9759C145.123 92.8864 145.341 92.7538 145.523 92.5781C145.705 92.3991 145.846 92.1771 145.945 91.9119L147.079 92.2301C146.96 92.6146 146.759 92.9527 146.477 93.2443C146.196 93.5327 145.848 93.758 145.433 93.9205C145.019 94.0795 144.553 94.1591 144.036 94.1591ZM154.392 88.0739L153.338 88.3722C153.272 88.1965 153.174 88.0258 153.045 87.8601C152.919 87.6911 152.747 87.5518 152.528 87.4425C152.309 87.3331 152.029 87.2784 151.688 87.2784C151.22 87.2784 150.831 87.3861 150.519 87.6016C150.211 87.8137 150.057 88.0838 150.057 88.4119C150.057 88.7036 150.163 88.9339 150.375 89.103C150.587 89.272 150.919 89.4129 151.369 89.5256L152.503 89.804C153.186 89.9697 153.694 90.2232 154.029 90.5646C154.364 90.9027 154.531 91.3385 154.531 91.8722C154.531 92.3097 154.405 92.7008 154.153 93.0455C153.905 93.3902 153.557 93.6619 153.109 93.8608C152.662 94.0597 152.142 94.1591 151.548 94.1591C150.769 94.1591 150.125 93.9901 149.614 93.652C149.104 93.3139 148.781 92.8201 148.645 92.1705L149.759 91.892C149.865 92.303 150.065 92.6113 150.36 92.8168C150.658 93.0223 151.048 93.125 151.528 93.125C152.075 93.125 152.51 93.009 152.831 92.777C153.156 92.5417 153.318 92.2599 153.318 91.9318C153.318 91.6667 153.225 91.4446 153.04 91.2656C152.854 91.0833 152.569 90.9474 152.185 90.858L150.912 90.5597C150.213 90.3939 149.699 90.1371 149.371 89.7891C149.046 89.4377 148.884 88.9986 148.884 88.4716C148.884 88.0407 149.005 87.6596 149.247 87.3281C149.492 86.9967 149.825 86.7365 150.246 86.5476C150.67 86.3587 151.151 86.2642 151.688 86.2642C152.443 86.2642 153.037 86.4299 153.467 86.7614C153.902 87.0928 154.21 87.5303 154.392 88.0739ZM156.297 94V86.3636H157.471V94H156.297ZM156.894 85.0909C156.665 85.0909 156.468 85.013 156.302 84.8572C156.14 84.7015 156.059 84.5142 156.059 84.2955C156.059 84.0767 156.14 83.8894 156.302 83.7337C156.468 83.5779 156.665 83.5 156.894 83.5C157.123 83.5 157.318 83.5779 157.481 83.7337C157.646 83.8894 157.729 84.0767 157.729 84.2955C157.729 84.5142 157.646 84.7015 157.481 84.8572C157.318 85.013 157.123 85.0909 156.894 85.0909ZM161.867 94.179C161.383 94.179 160.944 94.0878 160.549 93.9055C160.155 93.7199 159.842 93.4531 159.61 93.1051C159.378 92.7538 159.262 92.3295 159.262 91.8324C159.262 91.3949 159.348 91.0402 159.52 90.7685C159.693 90.4934 159.923 90.2779 160.211 90.1222C160.5 89.9664 160.818 89.8504 161.166 89.7741C161.517 89.6946 161.87 89.6316 162.225 89.5852C162.689 89.5256 163.065 89.4808 163.353 89.451C163.645 89.4179 163.857 89.3632 163.99 89.2869C164.126 89.2107 164.194 89.0781 164.194 88.8892V88.8494C164.194 88.3589 164.059 87.9777 163.791 87.706C163.526 87.4342 163.123 87.2983 162.583 87.2983C162.023 87.2983 161.584 87.4209 161.265 87.6662C160.947 87.9115 160.723 88.1733 160.594 88.4517L159.481 88.054C159.679 87.59 159.945 87.2287 160.276 86.9702C160.611 86.7083 160.975 86.526 161.37 86.4233C161.767 86.3172 162.159 86.2642 162.543 86.2642C162.788 86.2642 163.07 86.294 163.388 86.3537C163.71 86.41 164.02 86.5277 164.318 86.7067C164.62 86.8857 164.87 87.1558 165.069 87.517C165.267 87.8783 165.367 88.3622 165.367 88.9688V94H164.194V92.9659H164.134C164.054 93.1316 163.922 93.3089 163.736 93.4979C163.551 93.6868 163.304 93.8475 162.995 93.9801C162.687 94.1127 162.311 94.179 161.867 94.179ZM162.046 93.125C162.51 93.125 162.901 93.0339 163.219 92.8516C163.541 92.6693 163.783 92.4339 163.945 92.1456C164.111 91.8572 164.194 91.554 164.194 91.2358V90.1619C164.144 90.2216 164.035 90.2763 163.865 90.326C163.7 90.3724 163.508 90.4138 163.289 90.4503C163.073 90.4834 162.863 90.5133 162.657 90.5398C162.455 90.563 162.291 90.5829 162.165 90.5994C161.86 90.6392 161.575 90.7038 161.31 90.7933C161.048 90.8795 160.836 91.0104 160.674 91.1861C160.515 91.3584 160.435 91.5937 160.435 91.892C160.435 92.2997 160.586 92.608 160.887 92.8168C161.192 93.0223 161.579 93.125 162.046 93.125ZM31.8005 110.364C31.7409 109.86 31.4989 109.469 31.0747 109.19C30.6504 108.912 30.1301 108.773 29.5136 108.773C29.0628 108.773 28.6684 108.846 28.3304 108.991C27.9956 109.137 27.7338 109.338 27.5449 109.593C27.3592 109.848 27.2664 110.138 27.2664 110.463C27.2664 110.735 27.3311 110.969 27.4603 111.164C27.5929 111.356 27.7619 111.517 27.9674 111.646C28.1729 111.772 28.3884 111.877 28.6137 111.96C28.8391 112.039 29.0463 112.104 29.2352 112.153L30.2693 112.432C30.5344 112.501 30.8294 112.598 31.1542 112.72C31.4824 112.843 31.7956 113.01 32.0939 113.222C32.3955 113.431 32.644 113.7 32.8396 114.028C33.0351 114.356 33.1329 114.759 33.1329 115.236C33.1329 115.786 32.9887 116.283 32.7004 116.727C32.4154 117.171 31.9977 117.524 31.4476 117.786C30.9007 118.048 30.2361 118.179 29.4539 118.179C28.7248 118.179 28.0934 118.061 27.5598 117.826C27.0295 117.591 26.6119 117.263 26.3069 116.842C26.0053 116.421 25.8346 115.932 25.7949 115.375H27.0676C27.1007 115.759 27.23 116.078 27.4554 116.33C27.6841 116.578 27.9724 116.764 28.3204 116.886C28.6717 117.006 29.0496 117.065 29.4539 117.065C29.9246 117.065 30.3472 116.989 30.7217 116.837C31.0962 116.681 31.3929 116.465 31.6116 116.19C31.8304 115.912 31.9397 115.587 31.9397 115.216C31.9397 114.878 31.8453 114.603 31.6564 114.391C31.4674 114.179 31.2189 114.006 30.9106 113.874C30.6024 113.741 30.2693 113.625 29.9113 113.526L28.6585 113.168C27.863 112.939 27.2333 112.612 26.7693 112.188C26.3053 111.764 26.0733 111.209 26.0733 110.523C26.0733 109.953 26.2274 109.455 26.5356 109.031C26.8472 108.604 27.2648 108.272 27.7885 108.037C28.3155 107.798 28.9038 107.679 29.5534 107.679C30.2096 107.679 30.793 107.797 31.3034 108.032C31.8138 108.264 32.2182 108.582 32.5164 108.987C32.8181 109.391 32.9771 109.85 32.9937 110.364H31.8005ZM38.5607 107.818V118H37.3277V109.111H37.268L34.7822 110.761V109.509L37.3277 107.818H38.5607ZM45.6054 107.818H47.077L50.5372 116.27H50.6565L54.1168 107.818H55.5884V118H54.4349V110.264H54.3355L51.1537 118H50.0401L46.8582 110.264H46.7588V118H45.6054V107.818ZM60.1485 118.179C59.6646 118.179 59.2255 118.088 58.8311 117.906C58.4367 117.72 58.1235 117.453 57.8914 117.105C57.6594 116.754 57.5434 116.33 57.5434 115.832C57.5434 115.395 57.6296 115.04 57.802 114.768C57.9743 114.493 58.2047 114.278 58.493 114.122C58.7814 113.966 59.0995 113.85 59.4476 113.774C59.7989 113.695 60.1519 113.632 60.5065 113.585C60.9705 113.526 61.3467 113.481 61.6351 113.451C61.9267 113.418 62.1388 113.363 62.2714 113.287C62.4073 113.211 62.4753 113.078 62.4753 112.889V112.849C62.4753 112.359 62.341 111.978 62.0726 111.706C61.8074 111.434 61.4047 111.298 60.8645 111.298C60.3043 111.298 59.8652 111.421 59.547 111.666C59.2288 111.911 59.0051 112.173 58.8758 112.452L57.7622 112.054C57.961 111.59 58.2262 111.229 58.5576 110.97C58.8924 110.708 59.257 110.526 59.6514 110.423C60.0491 110.317 60.4402 110.264 60.8247 110.264C61.0699 110.264 61.3517 110.294 61.6699 110.354C61.9914 110.41 62.3012 110.528 62.5995 110.707C62.9012 110.886 63.1514 111.156 63.3503 111.517C63.5491 111.878 63.6485 112.362 63.6485 112.969V118H62.4753V116.966H62.4156C62.336 117.132 62.2035 117.309 62.0179 117.498C61.8323 117.687 61.5853 117.848 61.2771 117.98C60.9689 118.113 60.5927 118.179 60.1485 118.179ZM60.3275 117.125C60.7915 117.125 61.1826 117.034 61.5008 116.852C61.8223 116.669 62.0643 116.434 62.2267 116.146C62.3924 115.857 62.4753 115.554 62.4753 115.236V114.162C62.4255 114.222 62.3162 114.276 62.1471 114.326C61.9814 114.372 61.7892 114.414 61.5704 114.45C61.355 114.483 61.1445 114.513 60.939 114.54C60.7369 114.563 60.5728 114.583 60.4468 114.599C60.1419 114.639 59.8569 114.704 59.5917 114.793C59.3299 114.879 59.1178 115.01 58.9554 115.186C58.7963 115.358 58.7167 115.594 58.7167 115.892C58.7167 116.3 58.8675 116.608 59.1691 116.817C59.4741 117.022 59.8602 117.125 60.3275 117.125ZM66.9634 113.406V118H65.7901V110.364H66.9236V111.557H67.023C67.202 111.169 67.4738 110.857 67.8384 110.622C68.2029 110.384 68.6736 110.264 69.2503 110.264C69.7673 110.264 70.2197 110.37 70.6075 110.582C70.9953 110.791 71.2969 111.109 71.5124 111.537C71.7278 111.961 71.8355 112.498 71.8355 113.148V118H70.6622V113.227C70.6622 112.627 70.5064 112.16 70.1949 111.825C69.8833 111.487 69.4558 111.318 68.9122 111.318C68.5377 111.318 68.2029 111.399 67.908 111.562C67.6163 111.724 67.3859 111.961 67.2169 112.273C67.0479 112.584 66.9634 112.962 66.9634 113.406ZM76.2267 118.179C75.7428 118.179 75.3036 118.088 74.9092 117.906C74.5148 117.72 74.2016 117.453 73.9696 117.105C73.7376 116.754 73.6216 116.33 73.6216 115.832C73.6216 115.395 73.7077 115.04 73.8801 114.768C74.0524 114.493 74.2828 114.278 74.5711 114.122C74.8595 113.966 75.1777 113.85 75.5257 113.774C75.877 113.695 76.23 113.632 76.5846 113.585C77.0486 113.526 77.4248 113.481 77.7132 113.451C78.0048 113.418 78.217 113.363 78.3495 113.287C78.4854 113.211 78.5534 113.078 78.5534 112.889V112.849C78.5534 112.359 78.4191 111.978 78.1507 111.706C77.8855 111.434 77.4828 111.298 76.9426 111.298C76.3824 111.298 75.9433 111.421 75.6251 111.666C75.3069 111.911 75.0832 112.173 74.9539 112.452L73.8403 112.054C74.0392 111.59 74.3043 111.229 74.6358 110.97C74.9705 110.708 75.3351 110.526 75.7295 110.423C76.1272 110.317 76.5183 110.264 76.9028 110.264C77.1481 110.264 77.4298 110.294 77.748 110.354C78.0695 110.41 78.3794 110.528 78.6777 110.707C78.9793 110.886 79.2295 111.156 79.4284 111.517C79.6272 111.878 79.7267 112.362 79.7267 112.969V118H78.5534V116.966H78.4937C78.4142 117.132 78.2816 117.309 78.096 117.498C77.9104 117.687 77.6635 117.848 77.3552 117.98C77.047 118.113 76.6708 118.179 76.2267 118.179ZM76.4056 117.125C76.8697 117.125 77.2608 117.034 77.5789 116.852C77.9004 116.669 78.1424 116.434 78.3048 116.146C78.4705 115.857 78.5534 115.554 78.5534 115.236V114.162C78.5037 114.222 78.3943 114.276 78.2253 114.326C78.0595 114.372 77.8673 114.414 77.6485 114.45C77.4331 114.483 77.2226 114.513 77.0172 114.54C76.815 114.563 76.6509 114.583 76.525 114.599C76.22 114.639 75.935 114.704 75.6699 114.793C75.408 114.879 75.1959 115.01 75.0335 115.186C74.8744 115.358 74.7949 115.594 74.7949 115.892C74.7949 116.3 74.9457 116.608 75.2473 116.817C75.5522 117.022 75.9383 117.125 76.4056 117.125ZM81.8682 110.364H83.0415V118.557C83.0415 119.027 82.9603 119.435 82.7979 119.78C82.6388 120.125 82.3968 120.391 82.072 120.58C81.7505 120.769 81.3445 120.864 80.854 120.864C80.8142 120.864 80.7744 120.864 80.7347 120.864C80.6949 120.864 80.6551 120.864 80.6153 120.864V119.77C80.6551 119.77 80.6916 119.77 80.7247 119.77C80.7579 119.77 80.7943 119.77 80.8341 119.77C81.192 119.77 81.4539 119.664 81.6196 119.452C81.7853 119.243 81.8682 118.945 81.8682 118.557V110.364ZM82.4449 109.091C82.2162 109.091 82.019 109.013 81.8533 108.857C81.6909 108.701 81.6097 108.514 81.6097 108.295C81.6097 108.077 81.6909 107.889 81.8533 107.734C82.019 107.578 82.2162 107.5 82.4449 107.5C82.6736 107.5 82.8691 107.578 83.0315 107.734C83.1973 107.889 83.2801 108.077 83.2801 108.295C83.2801 108.514 83.1973 108.701 83.0315 108.857C82.8691 109.013 82.6736 109.091 82.4449 109.091ZM88.3922 118.159C87.6564 118.159 87.0217 117.997 86.488 117.672C85.9577 117.344 85.5484 116.886 85.2601 116.3C84.975 115.71 84.8325 115.024 84.8325 114.241C84.8325 113.459 84.975 112.77 85.2601 112.173C85.5484 111.573 85.9494 111.106 86.4632 110.771C86.9802 110.433 87.5834 110.264 88.2728 110.264C88.6706 110.264 89.0633 110.33 89.4511 110.463C89.8389 110.596 90.1919 110.811 90.5101 111.109C90.8282 111.404 91.0818 111.795 91.2707 112.283C91.4596 112.77 91.5541 113.37 91.5541 114.082V114.58H85.6677V113.565H90.3609C90.3609 113.134 90.2747 112.75 90.1024 112.412C89.9333 112.074 89.6914 111.807 89.3765 111.612C89.065 111.416 88.6971 111.318 88.2728 111.318C87.8055 111.318 87.4012 111.434 87.0598 111.666C86.7217 111.895 86.4615 112.193 86.2792 112.561C86.0969 112.929 86.0058 113.323 86.0058 113.744V114.42C86.0058 114.997 86.1052 115.486 86.3041 115.887C86.5063 116.285 86.7863 116.588 87.1443 116.797C87.5022 117.002 87.9182 117.105 88.3922 117.105C88.7004 117.105 88.9788 117.062 89.2274 116.976C89.4793 116.886 89.6964 116.754 89.8787 116.578C90.061 116.399 90.2018 116.177 90.3012 115.912L91.4348 116.23C91.3155 116.615 91.1149 116.953 90.8332 117.244C90.5515 117.533 90.2035 117.758 89.7892 117.92C89.3749 118.08 88.9092 118.159 88.3922 118.159ZM93.3389 118V110.364H94.4724V111.557H94.5718C94.7309 111.149 94.9878 110.833 95.3424 110.607C95.6971 110.379 96.123 110.264 96.6201 110.264C97.1239 110.264 97.5432 110.379 97.878 110.607C98.216 110.833 98.4795 111.149 98.6684 111.557H98.748C98.9435 111.162 99.2369 110.849 99.628 110.617C100.019 110.382 100.488 110.264 101.035 110.264C101.717 110.264 102.276 110.478 102.71 110.906C103.144 111.33 103.361 111.991 103.361 112.889V118H102.188V112.889C102.188 112.326 102.034 111.923 101.726 111.681C101.417 111.439 101.054 111.318 100.637 111.318C100.1 111.318 99.6843 111.481 99.3893 111.805C99.0943 112.127 98.9468 112.535 98.9468 113.028V118H97.7537V112.77C97.7537 112.336 97.6128 111.986 97.3311 111.721C97.0494 111.452 96.6864 111.318 96.2423 111.318C95.9374 111.318 95.6523 111.399 95.3872 111.562C95.1253 111.724 94.9132 111.95 94.7508 112.238C94.5917 112.523 94.5122 112.853 94.5122 113.227V118H93.3389ZM108.708 118.159C107.972 118.159 107.338 117.997 106.804 117.672C106.274 117.344 105.864 116.886 105.576 116.3C105.291 115.71 105.149 115.024 105.149 114.241C105.149 113.459 105.291 112.77 105.576 112.173C105.864 111.573 106.265 111.106 106.779 110.771C107.296 110.433 107.899 110.264 108.589 110.264C108.987 110.264 109.379 110.33 109.767 110.463C110.155 110.596 110.508 110.811 110.826 111.109C111.144 111.404 111.398 111.795 111.587 112.283C111.776 112.77 111.87 113.37 111.87 114.082V114.58H105.984V113.565H110.677C110.677 113.134 110.591 112.75 110.418 112.412C110.249 112.074 110.007 111.807 109.693 111.612C109.381 111.416 109.013 111.318 108.589 111.318C108.122 111.318 107.717 111.434 107.376 111.666C107.038 111.895 106.778 112.193 106.595 112.561C106.413 112.929 106.322 113.323 106.322 113.744V114.42C106.322 114.997 106.421 115.486 106.62 115.887C106.822 116.285 107.102 116.588 107.46 116.797C107.818 117.002 108.234 117.105 108.708 117.105C109.016 117.105 109.295 117.062 109.543 116.976C109.795 116.886 110.012 116.754 110.195 116.578C110.377 116.399 110.518 116.177 110.617 115.912L111.751 116.23C111.631 116.615 111.431 116.953 111.149 117.244C110.867 117.533 110.519 117.758 110.105 117.92C109.691 118.08 109.225 118.159 108.708 118.159ZM114.828 113.406V118H113.655V110.364H114.788V111.557H114.888C115.067 111.169 115.339 110.857 115.703 110.622C116.068 110.384 116.538 110.264 117.115 110.264C117.632 110.264 118.085 110.37 118.472 110.582C118.86 110.791 119.162 111.109 119.377 111.537C119.593 111.961 119.7 112.498 119.7 113.148V118H118.527V113.227C118.527 112.627 118.371 112.16 118.06 111.825C117.748 111.487 117.321 111.318 116.777 111.318C116.403 111.318 116.068 111.399 115.773 111.562C115.481 111.724 115.251 111.961 115.082 112.273C114.913 112.584 114.828 112.962 114.828 113.406ZM125.941 118V107.818H129.381C130.18 107.818 130.833 107.962 131.34 108.251C131.851 108.536 132.228 108.922 132.474 109.409C132.719 109.896 132.842 110.44 132.842 111.04C132.842 111.64 132.719 112.185 132.474 112.675C132.232 113.166 131.857 113.557 131.35 113.849C130.843 114.137 130.193 114.281 129.401 114.281H126.935V113.188H129.361C129.908 113.188 130.347 113.093 130.679 112.904C131.01 112.715 131.251 112.46 131.4 112.138C131.552 111.814 131.628 111.447 131.628 111.04C131.628 110.632 131.552 110.268 131.4 109.946C131.251 109.625 131.009 109.373 130.674 109.19C130.339 109.005 129.895 108.912 129.342 108.912H127.174V118H125.941ZM137.788 118.159C137.052 118.159 136.418 117.997 135.884 117.672C135.354 117.344 134.944 116.886 134.656 116.3C134.371 115.71 134.229 115.024 134.229 114.241C134.229 113.459 134.371 112.77 134.656 112.173C134.944 111.573 135.346 111.106 135.859 110.771C136.376 110.433 136.98 110.264 137.669 110.264C138.067 110.264 138.459 110.33 138.847 110.463C139.235 110.596 139.588 110.811 139.906 111.109C140.224 111.404 140.478 111.795 140.667 112.283C140.856 112.77 140.95 113.37 140.95 114.082V114.58H135.064V113.565H139.757C139.757 113.134 139.671 112.75 139.498 112.412C139.329 112.074 139.087 111.807 138.773 111.612C138.461 111.416 138.093 111.318 137.669 111.318C137.202 111.318 136.797 111.434 136.456 111.666C136.118 111.895 135.858 112.193 135.675 112.561C135.493 112.929 135.402 113.323 135.402 113.744V114.42C135.402 114.997 135.501 115.486 135.7 115.887C135.902 116.285 136.182 116.588 136.54 116.797C136.898 117.002 137.314 117.105 137.788 117.105C138.096 117.105 138.375 117.062 138.623 116.976C138.875 116.886 139.092 116.754 139.275 116.578C139.457 116.399 139.598 116.177 139.697 115.912L140.831 116.23C140.712 116.615 140.511 116.953 140.229 117.244C139.948 117.533 139.6 117.758 139.185 117.92C138.771 118.08 138.305 118.159 137.788 118.159ZM142.735 118V110.364H143.868V111.557H143.968C144.127 111.149 144.384 110.833 144.739 110.607C145.093 110.379 145.519 110.264 146.016 110.264C146.52 110.264 146.939 110.379 147.274 110.607C147.612 110.833 147.876 111.149 148.065 111.557H148.144C148.34 111.162 148.633 110.849 149.024 110.617C149.415 110.382 149.884 110.264 150.431 110.264C151.114 110.264 151.672 110.478 152.106 110.906C152.541 111.33 152.758 111.991 152.758 112.889V118H151.584V112.889C151.584 112.326 151.43 111.923 151.122 111.681C150.814 111.439 150.451 111.318 150.033 111.318C149.496 111.318 149.08 111.481 148.785 111.805C148.49 112.127 148.343 112.535 148.343 113.028V118H147.15V112.77C147.15 112.336 147.009 111.986 146.727 111.721C146.445 111.452 146.083 111.318 145.638 111.318C145.333 111.318 145.048 111.399 144.783 111.562C144.521 111.724 144.309 111.95 144.147 112.238C143.988 112.523 143.908 112.853 143.908 113.227V118H142.735ZM157.15 118.179C156.666 118.179 156.227 118.088 155.833 117.906C155.438 117.72 155.125 117.453 154.893 117.105C154.661 116.754 154.545 116.33 154.545 115.832C154.545 115.395 154.631 115.04 154.804 114.768C154.976 114.493 155.206 114.278 155.495 114.122C155.783 113.966 156.101 113.85 156.449 113.774C156.8 113.695 157.153 113.632 157.508 113.585C157.972 113.526 158.348 113.481 158.637 113.451C158.928 113.418 159.14 113.363 159.273 113.287C159.409 113.211 159.477 113.078 159.477 112.889V112.849C159.477 112.359 159.343 111.978 159.074 111.706C158.809 111.434 158.406 111.298 157.866 111.298C157.306 111.298 156.867 111.421 156.549 111.666C156.23 111.911 156.007 112.173 155.877 112.452L154.764 112.054C154.963 111.59 155.228 111.229 155.559 110.97C155.894 110.708 156.259 110.526 156.653 110.423C157.051 110.317 157.442 110.264 157.826 110.264C158.072 110.264 158.353 110.294 158.671 110.354C158.993 110.41 159.303 110.528 159.601 110.707C159.903 110.886 160.153 111.156 160.352 111.517C160.551 111.878 160.65 112.362 160.65 112.969V118H159.477V116.966H159.417C159.338 117.132 159.205 117.309 159.019 117.498C158.834 117.687 158.587 117.848 158.279 117.98C157.97 118.113 157.594 118.179 157.15 118.179ZM157.329 117.125C157.793 117.125 158.184 117.034 158.502 116.852C158.824 116.669 159.066 116.434 159.228 116.146C159.394 115.857 159.477 115.554 159.477 115.236V114.162C159.427 114.222 159.318 114.276 159.149 114.326C158.983 114.372 158.791 114.414 158.572 114.45C158.357 114.483 158.146 114.513 157.941 114.54C157.738 114.563 157.574 114.583 157.448 114.599C157.143 114.639 156.858 114.704 156.593 114.793C156.331 114.879 156.119 115.01 155.957 115.186C155.798 115.358 155.718 115.594 155.718 115.892C155.718 116.3 155.869 116.608 156.171 116.817C156.476 117.022 156.862 117.125 157.329 117.125ZM168.201 112.074L167.147 112.372C167.08 112.196 166.983 112.026 166.853 111.86C166.727 111.691 166.555 111.552 166.336 111.442C166.118 111.333 165.838 111.278 165.496 111.278C165.029 111.278 164.639 111.386 164.328 111.602C164.02 111.814 163.865 112.084 163.865 112.412C163.865 112.704 163.972 112.934 164.184 113.103C164.396 113.272 164.727 113.413 165.178 113.526L166.311 113.804C166.994 113.97 167.503 114.223 167.838 114.565C168.173 114.903 168.34 115.339 168.34 115.872C168.34 116.31 168.214 116.701 167.962 117.045C167.713 117.39 167.365 117.662 166.918 117.861C166.471 118.06 165.95 118.159 165.357 118.159C164.578 118.159 163.933 117.99 163.423 117.652C162.913 117.314 162.589 116.82 162.454 116.17L163.567 115.892C163.673 116.303 163.874 116.611 164.169 116.817C164.467 117.022 164.856 117.125 165.337 117.125C165.884 117.125 166.318 117.009 166.64 116.777C166.964 116.542 167.127 116.26 167.127 115.932C167.127 115.667 167.034 115.445 166.848 115.266C166.663 115.083 166.378 114.947 165.993 114.858L164.721 114.56C164.021 114.394 163.508 114.137 163.179 113.789C162.855 113.438 162.692 112.999 162.692 112.472C162.692 112.041 162.813 111.66 163.055 111.328C163.3 110.997 163.633 110.737 164.054 110.548C164.479 110.359 164.959 110.264 165.496 110.264C166.252 110.264 166.845 110.43 167.276 110.761C167.71 111.093 168.018 111.53 168.201 112.074ZM172.353 118.179C171.869 118.179 171.43 118.088 171.036 117.906C170.641 117.72 170.328 117.453 170.096 117.105C169.864 116.754 169.748 116.33 169.748 115.832C169.748 115.395 169.834 115.04 170.007 114.768C170.179 114.493 170.409 114.278 170.698 114.122C170.986 113.966 171.304 113.85 171.652 113.774C172.004 113.695 172.357 113.632 172.711 113.585C173.175 113.526 173.551 113.481 173.84 113.451C174.131 113.418 174.344 113.363 174.476 113.287C174.612 113.211 174.68 113.078 174.68 112.889V112.849C174.68 112.359 174.546 111.978 174.277 111.706C174.012 111.434 173.609 111.298 173.069 111.298C172.509 111.298 172.07 111.421 171.752 111.666C171.433 111.911 171.21 112.173 171.08 112.452L169.967 112.054C170.166 111.59 170.431 111.229 170.762 110.97C171.097 110.708 171.462 110.526 171.856 110.423C172.254 110.317 172.645 110.264 173.029 110.264C173.275 110.264 173.556 110.294 173.875 110.354C174.196 110.41 174.506 110.528 174.804 110.707C175.106 110.886 175.356 111.156 175.555 111.517C175.754 111.878 175.853 112.362 175.853 112.969V118H174.68V116.966H174.62C174.541 117.132 174.408 117.309 174.223 117.498C174.037 117.687 173.79 117.848 173.482 117.98C173.174 118.113 172.797 118.179 172.353 118.179ZM172.532 117.125C172.996 117.125 173.387 117.034 173.705 116.852C174.027 116.669 174.269 116.434 174.431 116.146C174.597 115.857 174.68 115.554 174.68 115.236V114.162C174.63 114.222 174.521 114.276 174.352 114.326C174.186 114.372 173.994 114.414 173.775 114.45C173.56 114.483 173.349 114.513 173.144 114.54C172.942 114.563 172.777 114.583 172.652 114.599C172.347 114.639 172.062 114.704 171.796 114.793C171.535 114.879 171.322 115.01 171.16 115.186C171.001 115.358 170.921 115.594 170.921 115.892C170.921 116.3 171.072 116.608 171.374 116.817C171.679 117.022 172.065 117.125 172.532 117.125ZM177.995 118V110.364H179.128V111.517H179.208C179.347 111.139 179.599 110.833 179.963 110.597C180.328 110.362 180.739 110.244 181.196 110.244C181.283 110.244 181.39 110.246 181.52 110.249C181.649 110.253 181.747 110.258 181.813 110.264V111.457C181.773 111.447 181.682 111.433 181.539 111.413C181.4 111.389 181.253 111.378 181.097 111.378C180.726 111.378 180.394 111.456 180.103 111.612C179.814 111.764 179.586 111.976 179.417 112.248C179.251 112.516 179.168 112.823 179.168 113.168V118H177.995ZM185.451 118.179C184.967 118.179 184.528 118.088 184.133 117.906C183.739 117.72 183.426 117.453 183.194 117.105C182.962 116.754 182.846 116.33 182.846 115.832C182.846 115.395 182.932 115.04 183.104 114.768C183.277 114.493 183.507 114.278 183.795 114.122C184.084 113.966 184.402 113.85 184.75 113.774C185.101 113.695 185.454 113.632 185.809 113.585C186.273 113.526 186.649 113.481 186.937 113.451C187.229 113.418 187.441 113.363 187.574 113.287C187.71 113.211 187.778 113.078 187.778 112.889V112.849C187.778 112.359 187.643 111.978 187.375 111.706C187.11 111.434 186.707 111.298 186.167 111.298C185.607 111.298 185.168 111.421 184.849 111.666C184.531 111.911 184.307 112.173 184.178 112.452L183.065 112.054C183.263 111.59 183.529 111.229 183.86 110.97C184.195 110.708 184.559 110.526 184.954 110.423C185.351 110.317 185.743 110.264 186.127 110.264C186.372 110.264 186.654 110.294 186.972 110.354C187.294 110.41 187.604 110.528 187.902 110.707C188.203 110.886 188.454 111.156 188.653 111.517C188.851 111.878 188.951 112.362 188.951 112.969V118H187.778V116.966H187.718C187.638 117.132 187.506 117.309 187.32 117.498C187.135 117.687 186.888 117.848 186.579 117.98C186.271 118.113 185.895 118.179 185.451 118.179ZM185.63 117.125C186.094 117.125 186.485 117.034 186.803 116.852C187.125 116.669 187.367 116.434 187.529 116.146C187.695 115.857 187.778 115.554 187.778 115.236V114.162C187.728 114.222 187.618 114.276 187.449 114.326C187.284 114.372 187.092 114.414 186.873 114.45C186.657 114.483 186.447 114.513 186.241 114.54C186.039 114.563 185.875 114.583 185.749 114.599C185.444 114.639 185.159 114.704 184.894 114.793C184.632 114.879 184.42 115.01 184.258 115.186C184.099 115.358 184.019 115.594 184.019 115.892C184.019 116.3 184.17 116.608 184.471 116.817C184.776 117.022 185.163 117.125 185.63 117.125ZM192.266 113.406V118H191.092V110.364H192.226V111.557H192.325C192.504 111.169 192.776 110.857 193.141 110.622C193.505 110.384 193.976 110.264 194.553 110.264C195.07 110.264 195.522 110.37 195.91 110.582C196.298 110.791 196.599 111.109 196.815 111.537C197.03 111.961 197.138 112.498 197.138 113.148V118H195.965V113.227C195.965 112.627 195.809 112.16 195.497 111.825C195.186 111.487 194.758 111.318 194.215 111.318C193.84 111.318 193.505 111.399 193.21 111.562C192.919 111.724 192.688 111.961 192.519 112.273C192.35 112.584 192.266 112.962 192.266 113.406ZM26.0534 142V141.105L29.4142 137.426C29.8086 136.995 30.1334 136.621 30.3886 136.303C30.6438 135.981 30.8327 135.679 30.9554 135.398C31.0813 135.113 31.1443 134.814 31.1443 134.503C31.1443 134.145 31.0581 133.835 30.8858 133.573C30.7167 133.311 30.4847 133.109 30.1897 132.967C29.8948 132.824 29.5633 132.753 29.1954 132.753C28.8043 132.753 28.4629 132.834 28.1713 132.996C27.8829 133.156 27.6592 133.379 27.5001 133.668C27.3443 133.956 27.2664 134.294 27.2664 134.682H26.0932C26.0932 134.085 26.2307 133.562 26.5058 133.111C26.7809 132.66 27.1554 132.309 27.6294 132.057C28.1066 131.805 28.6419 131.679 29.2352 131.679C29.8318 131.679 30.3604 131.805 30.8211 132.057C31.2818 132.309 31.6431 132.648 31.9049 133.076C32.1668 133.504 32.2977 133.979 32.2977 134.503C32.2977 134.877 32.2298 135.244 32.0939 135.602C31.9613 135.956 31.7293 136.352 31.3978 136.79C31.0697 137.224 30.614 137.754 30.0306 138.381L27.7437 140.827V140.906H32.4767V142H26.0534ZM37.851 142.139C37.1019 142.139 36.4639 141.935 35.9369 141.528C35.4099 141.117 35.0072 140.522 34.7288 139.743C34.4504 138.961 34.3112 138.016 34.3112 136.909C34.3112 135.809 34.4504 134.869 34.7288 134.09C35.0105 133.308 35.4149 132.711 35.9419 132.3C36.4722 131.886 37.1085 131.679 37.851 131.679C38.5934 131.679 39.2281 131.886 39.7551 132.3C40.2854 132.711 40.6897 133.308 40.9682 134.09C41.2499 134.869 41.3907 135.809 41.3907 136.909C41.3907 138.016 41.2515 138.961 40.9731 139.743C40.6947 140.522 40.292 141.117 39.765 141.528C39.238 141.935 38.6 142.139 37.851 142.139ZM37.851 141.045C38.5934 141.045 39.1701 140.687 39.5811 139.972C39.9921 139.256 40.1976 138.235 40.1976 136.909C40.1976 136.027 40.1031 135.277 39.9142 134.657C39.7286 134.037 39.4601 133.565 39.1088 133.24C38.7608 132.915 38.3415 132.753 37.851 132.753C37.1152 132.753 36.5401 133.116 36.1258 133.842C35.7115 134.564 35.5044 135.587 35.5044 136.909C35.5044 137.791 35.5972 138.54 35.7828 139.156C35.9684 139.773 36.2352 140.242 36.5832 140.563C36.9345 140.885 37.3571 141.045 37.851 141.045ZM46.8595 131.818V142H45.6265V133.111H45.5669L43.0811 134.761V133.509L45.6265 131.818H46.8595ZM50.1059 142L54.6599 132.991V132.912H49.4099V131.818H55.9326V132.972L51.3985 142H50.1059ZM66.1182 136.362V137.456H61.6636V136.362H66.1182ZM72.1003 142V141.105L75.461 137.426C75.8555 136.995 76.1803 136.621 76.4355 136.303C76.6907 135.981 76.8796 135.679 77.0022 135.398C77.1282 135.113 77.1912 134.814 77.1912 134.503C77.1912 134.145 77.105 133.835 76.9326 133.573C76.7636 133.311 76.5316 133.109 76.2366 132.967C75.9416 132.824 75.6102 132.753 75.2423 132.753C74.8512 132.753 74.5098 132.834 74.2182 132.996C73.9298 133.156 73.7061 133.379 73.547 133.668C73.3912 133.956 73.3133 134.294 73.3133 134.682H72.14C72.14 134.085 72.2776 133.562 72.5527 133.111C72.8278 132.66 73.2023 132.309 73.6762 132.057C74.1535 131.805 74.6888 131.679 75.2821 131.679C75.8787 131.679 76.4073 131.805 76.868 132.057C77.3287 132.309 77.69 132.648 77.9518 133.076C78.2137 133.504 78.3446 133.979 78.3446 134.503C78.3446 134.877 78.2766 135.244 78.1407 135.602C78.0082 135.956 77.7762 136.352 77.4447 136.79C77.1166 137.224 76.6609 137.754 76.0775 138.381L73.7906 140.827V140.906H78.5235V142H72.1003ZM83.8978 142.139C83.1488 142.139 82.5108 141.935 81.9838 141.528C81.4568 141.117 81.0541 140.522 80.7757 139.743C80.4973 138.961 80.3581 138.016 80.3581 136.909C80.3581 135.809 80.4973 134.869 80.7757 134.09C81.0574 133.308 81.4618 132.711 81.9887 132.3C82.519 131.886 83.1554 131.679 83.8978 131.679C84.6403 131.679 85.275 131.886 85.802 132.3C86.3323 132.711 86.7366 133.308 87.015 134.09C87.2967 134.869 87.4376 135.809 87.4376 136.909C87.4376 138.016 87.2984 138.961 87.02 139.743C86.7416 140.522 86.3389 141.117 85.8119 141.528C85.2849 141.935 84.6469 142.139 83.8978 142.139ZM83.8978 141.045C84.6403 141.045 85.217 140.687 85.628 139.972C86.0389 139.256 86.2444 138.235 86.2444 136.909C86.2444 136.027 86.15 135.277 85.961 134.657C85.7754 134.037 85.507 133.565 85.1556 133.24C84.8076 132.915 84.3884 132.753 83.8978 132.753C83.162 132.753 82.587 133.116 82.1727 133.842C81.7584 134.564 81.5512 135.587 81.5512 136.909C81.5512 137.791 81.644 138.54 81.8297 139.156C82.0153 139.773 82.2821 140.242 82.6301 140.563C82.9814 140.885 83.404 141.045 83.8978 141.045ZM89.3268 142V141.105L92.6876 137.426C93.082 136.995 93.4068 136.621 93.662 136.303C93.9173 135.981 94.1062 135.679 94.2288 135.398C94.3548 135.113 94.4177 134.814 94.4177 134.503C94.4177 134.145 94.3315 133.835 94.1592 133.573C93.9902 133.311 93.7582 133.109 93.4632 132.967C93.1682 132.824 92.8368 132.753 92.4689 132.753C92.0778 132.753 91.7364 132.834 91.4447 132.996C91.1564 133.156 90.9326 133.379 90.7735 133.668C90.6178 133.956 90.5399 134.294 90.5399 134.682H89.3666C89.3666 134.085 89.5041 133.562 89.7792 133.111C90.0543 132.66 90.4289 132.309 90.9028 132.057C91.3801 131.805 91.9154 131.679 92.5086 131.679C93.1052 131.679 93.6339 131.805 94.0946 132.057C94.5553 132.309 94.9165 132.648 95.1784 133.076C95.4402 133.504 95.5711 133.979 95.5711 134.503C95.5711 134.877 95.5032 135.244 95.3673 135.602C95.2347 135.956 95.0027 136.352 94.6713 136.79C94.3432 137.224 93.8874 137.754 93.3041 138.381L91.0172 140.827V140.906H95.7501V142H89.3268ZM101.383 131.818V142H100.15V133.111H100.09L97.6045 134.761V133.509L100.15 131.818H101.383ZM27.4653 155.818V166H26.2324V155.818H27.4653ZM29.9374 166V155.818H33.3778C34.1765 155.818 34.8295 155.962 35.3366 156.251C35.847 156.536 36.2248 156.922 36.4701 157.409C36.7154 157.896 36.838 158.44 36.838 159.04C36.838 159.64 36.7154 160.185 36.4701 160.675C36.2282 161.166 35.8536 161.557 35.3465 161.849C34.8394 162.137 34.1898 162.281 33.3977 162.281H30.9318V161.188H33.3579C33.9048 161.188 34.3439 161.093 34.6754 160.904C35.0068 160.715 35.2471 160.46 35.3962 160.138C35.5487 159.814 35.6249 159.447 35.6249 159.04C35.6249 158.632 35.5487 158.268 35.3962 157.946C35.2471 157.625 35.0051 157.373 34.6704 157.19C34.3356 157.005 33.8915 156.912 33.338 156.912H31.1704V166H29.9374ZM38.8242 166V155.818H40.0571V160.869H40.1764L44.7503 155.818H46.3611L42.0855 160.412L46.3611 166H44.8696L41.3298 161.267L40.0571 162.699V166H38.8242ZM48.653 164.697C48.4077 164.697 48.1973 164.61 48.0216 164.434C47.8459 164.258 47.7581 164.048 47.7581 163.803C47.7581 163.557 47.8459 163.347 48.0216 163.171C48.1973 162.996 48.4077 162.908 48.653 162.908C48.8983 162.908 49.1087 162.996 49.2844 163.171C49.46 163.347 49.5479 163.557 49.5479 163.803C49.5479 163.965 49.5064 164.114 49.4236 164.25C49.344 164.386 49.2363 164.495 49.1004 164.578C48.9679 164.658 48.8187 164.697 48.653 164.697ZM48.653 159.547C48.4077 159.547 48.1973 159.459 48.0216 159.283C47.8459 159.108 47.7581 158.897 47.7581 158.652C47.7581 158.407 47.8459 158.196 48.0216 158.021C48.1973 157.845 48.4077 157.757 48.653 157.757C48.8983 157.757 49.1087 157.845 49.2844 158.021C49.46 158.196 49.5479 158.407 49.5479 158.652C49.5479 158.814 49.5064 158.964 49.4236 159.099C49.344 159.235 49.2363 159.345 49.1004 159.428C48.9679 159.507 48.8187 159.547 48.653 159.547ZM59.0113 166.139C58.355 166.139 57.7701 166.027 57.2563 165.801C56.7459 165.576 56.3399 165.263 56.0383 164.862C55.74 164.457 55.5776 163.988 55.5511 163.455H56.8039C56.8304 163.783 56.9431 164.066 57.142 164.305C57.3408 164.54 57.601 164.722 57.9225 164.852C58.244 164.981 58.6003 165.045 58.9914 165.045C59.4289 165.045 59.8167 164.969 60.1548 164.817C60.4928 164.664 60.758 164.452 60.9502 164.18C61.1425 163.909 61.2386 163.594 61.2386 163.236C61.2386 162.861 61.1458 162.531 60.9602 162.246C60.7746 161.958 60.5028 161.733 60.1448 161.57C59.7869 161.408 59.3494 161.327 58.8323 161.327H58.017V160.233H58.8323C59.2367 160.233 59.5913 160.16 59.8962 160.014C60.2045 159.868 60.4448 159.663 60.6171 159.398C60.7928 159.133 60.8806 158.821 60.8806 158.463C60.8806 158.118 60.8044 157.818 60.6519 157.563C60.4995 157.308 60.284 157.109 60.0056 156.967C59.7305 156.824 59.4057 156.753 59.0312 156.753C58.6799 156.753 58.3484 156.817 58.0369 156.947C57.7286 157.073 57.4767 157.257 57.2812 157.499C57.0856 157.737 56.9796 158.026 56.963 158.364H55.7698C55.7897 157.83 55.9505 157.363 56.2521 156.962C56.5537 156.557 56.9481 156.242 57.4353 156.017C57.9258 155.792 58.4644 155.679 59.0511 155.679C59.6808 155.679 60.2211 155.807 60.6718 156.062C61.1226 156.314 61.4689 156.647 61.7109 157.061C61.9528 157.475 62.0738 157.923 62.0738 158.403C62.0738 158.977 61.923 159.466 61.6214 159.87C61.3231 160.274 60.9171 160.554 60.4033 160.71V160.79C61.0463 160.896 61.5485 161.169 61.9097 161.61C62.271 162.048 62.4516 162.589 62.4516 163.236C62.4516 163.789 62.3008 164.286 61.9992 164.727C61.7009 165.165 61.2933 165.509 60.7762 165.761C60.2592 166.013 59.6709 166.139 59.0113 166.139ZM65.0456 166.08C64.8003 166.08 64.5898 165.992 64.4142 165.816C64.2385 165.64 64.1507 165.43 64.1507 165.185C64.1507 164.939 64.2385 164.729 64.4142 164.553C64.5898 164.378 64.8003 164.29 65.0456 164.29C65.2908 164.29 65.5013 164.378 65.677 164.553C65.8526 164.729 65.9405 164.939 65.9405 165.185C65.9405 165.347 65.899 165.496 65.8162 165.632C65.7366 165.768 65.6289 165.877 65.493 165.96C65.3604 166.04 65.2113 166.08 65.0456 166.08ZM70.9729 166.139C70.2902 166.139 69.687 166.018 69.1633 165.776C68.6429 165.531 68.2369 165.195 67.9452 164.767C67.6536 164.336 67.5094 163.846 67.5127 163.295C67.5094 162.865 67.5939 162.467 67.7663 162.102C67.9386 161.734 68.1739 161.428 68.4722 161.183C68.7738 160.934 69.1103 160.777 69.4815 160.71V160.651C68.9943 160.525 68.6065 160.251 68.3181 159.83C68.0298 159.406 67.8872 158.924 67.8906 158.384C67.8872 157.866 68.0182 157.404 68.2833 156.996C68.5485 156.589 68.913 156.267 69.3771 156.032C69.8444 155.797 70.3764 155.679 70.9729 155.679C71.5629 155.679 72.0899 155.797 72.5539 156.032C73.0179 156.267 73.3825 156.589 73.6477 156.996C73.9161 157.404 74.052 157.866 74.0553 158.384C74.052 158.924 73.9045 159.406 73.6129 159.83C73.3245 160.251 72.9417 160.525 72.4644 160.651V160.71C72.8323 160.777 73.1638 160.934 73.4587 161.183C73.7537 161.428 73.989 161.734 74.1647 162.102C74.3404 162.467 74.4299 162.865 74.4332 163.295C74.4299 163.846 74.2807 164.336 73.9857 164.767C73.6941 165.195 73.288 165.531 72.7677 165.776C72.2506 166.018 71.6524 166.139 70.9729 166.139ZM70.9729 165.045C71.4336 165.045 71.8314 164.971 72.1661 164.822C72.5009 164.673 72.7594 164.462 72.9417 164.19C73.124 163.919 73.2168 163.6 73.2201 163.236C73.2168 162.851 73.1174 162.512 72.9218 162.217C72.7263 161.922 72.4595 161.69 72.1214 161.521C71.7866 161.352 71.4038 161.267 70.9729 161.267C70.5388 161.267 70.151 161.352 69.8096 161.521C69.4715 161.69 69.2047 161.922 69.0092 162.217C68.8169 162.512 68.7225 162.851 68.7258 163.236C68.7225 163.6 68.8103 163.919 68.9893 164.19C69.1716 164.462 69.4318 164.673 69.7698 164.822C70.1079 164.971 70.5089 165.045 70.9729 165.045ZM70.9729 160.213C71.3375 160.213 71.6607 160.14 71.9424 159.994C72.2274 159.848 72.4512 159.645 72.6136 159.383C72.776 159.121 72.8588 158.814 72.8621 158.463C72.8588 158.118 72.7776 157.818 72.6185 157.563C72.4594 157.305 72.239 157.106 71.9573 156.967C71.6756 156.824 71.3475 156.753 70.9729 156.753C70.5918 156.753 70.2587 156.824 69.9737 156.967C69.6886 157.106 69.4682 157.305 69.3124 157.563C69.1567 157.818 69.0804 158.118 69.0837 158.463C69.0804 158.814 69.1583 159.121 69.3174 159.383C69.4798 159.645 69.7035 159.848 69.9886 159.994C70.2736 160.14 70.6017 160.213 70.9729 160.213ZM79.5999 166.139C78.9171 166.139 78.3139 166.018 77.7902 165.776C77.2699 165.531 76.8639 165.195 76.5722 164.767C76.2805 164.336 76.1364 163.846 76.1397 163.295C76.1364 162.865 76.2209 162.467 76.3932 162.102C76.5656 161.734 76.8009 161.428 77.0992 161.183C77.4008 160.934 77.7372 160.777 78.1084 160.71V160.651C77.6212 160.525 77.2334 160.251 76.9451 159.83C76.6567 159.406 76.5142 158.924 76.5175 158.384C76.5142 157.866 76.6451 157.404 76.9103 156.996C77.1754 156.589 77.54 156.267 78.004 156.032C78.4713 155.797 79.0033 155.679 79.5999 155.679C80.1899 155.679 80.7168 155.797 81.1809 156.032C81.6449 156.267 82.0095 156.589 82.2746 156.996C82.5431 157.404 82.679 157.866 82.6823 158.384C82.679 158.924 82.5315 159.406 82.2398 159.83C81.9515 160.251 81.5686 160.525 81.0914 160.651V160.71C81.4593 160.777 81.7907 160.934 82.0857 161.183C82.3807 161.428 82.616 161.734 82.7917 162.102C82.9673 162.467 83.0568 162.865 83.0601 163.295C83.0568 163.846 82.9077 164.336 82.6127 164.767C82.321 165.195 81.915 165.531 81.3946 165.776C80.8776 166.018 80.2793 166.139 79.5999 166.139ZM79.5999 165.045C80.0606 165.045 80.4583 164.971 80.7931 164.822C81.1278 164.673 81.3864 164.462 81.5686 164.19C81.7509 163.919 81.8437 163.6 81.8471 163.236C81.8437 162.851 81.7443 162.512 81.5488 162.217C81.3532 161.922 81.0864 161.69 80.7483 161.521C80.4136 161.352 80.0308 161.267 79.5999 161.267C79.1657 161.267 78.7779 161.352 78.4365 161.521C78.0985 161.69 77.8317 161.922 77.6361 162.217C77.4439 162.512 77.3494 162.851 77.3527 163.236C77.3494 163.6 77.4373 163.919 77.6162 164.19C77.7985 164.462 78.0587 164.673 78.3968 164.822C78.7348 164.971 79.1359 165.045 79.5999 165.045ZM79.5999 160.213C79.9645 160.213 80.2876 160.14 80.5694 159.994C80.8544 159.848 81.0781 159.645 81.2405 159.383C81.4029 159.121 81.4858 158.814 81.4891 158.463C81.4858 158.118 81.4046 157.818 81.2455 157.563C81.0864 157.305 80.866 157.106 80.5843 156.967C80.3025 156.824 79.9744 156.753 79.5999 156.753C79.2187 156.753 78.8856 156.824 78.6006 156.967C78.3156 157.106 78.0952 157.305 77.9394 157.563C77.7836 157.818 77.7074 158.118 77.7107 158.463C77.7074 158.814 77.7853 159.121 77.9444 159.383C78.1068 159.645 78.3305 159.848 78.6155 159.994C78.9006 160.14 79.2287 160.213 79.5999 160.213Z" fill="#4A5568"/>
</g>
<defs>
<filter id="filter0_d_6170_29143" x="0.2172" y="0.94006" width="237.36" height="227.632" filterUnits="userSpaceOnUse" color-interpolation-filters="sRGB">
<feFlood flood-opacity="0" result="BackgroundImageFix"/>
<feColorMatrix in="SourceAlpha" type="matrix" values="0 0 0 0 0 0 0 0 0 0 0 0 0 0 0 0 0 0 127 0" result="hardAlpha"/>
<feOffset dx="9.39704" dy="10.1199"/>
<feGaussianBlur stdDeviation="7.58992"/>
<feColorMatrix type="matrix" values="0 0 0 0 0.0375 0 0 0 0 0.18975 0 0 0 0 0.3 0 0 0 0.06 0"/>
<feBlend mode="normal" in2="BackgroundImageFix" result="effect1_dropShadow_6170_29143"/>
<feBlend mode="normal" in="SourceGraphic" in2="effect1_dropShadow_6170_29143" result="shape"/>
</filter>
</defs>
</svg>
